CSLSans-ExtraBoldItalic.ufo
<glyph name="percent" format="2">
  <advance width="935"/>
  <unicode hex="0025"/>
  <outline>
    <contour>
      <point x="682" y="69" type="qcurve" smooth="yes"/>
      <point x="710" y="69"/>
      <point x="738" y="113"/>
      <point x="748" y="159" type="qcurve"/>
      <point x="755" y="186"/>
      <point x="764" y="233"/>
      <point x="764" y="251" type="qcurve" smooth="yes"/>
      <point x="764" y="277"/>
      <point x="740" y="303"/>
      <point x="719" y="303" type="qcurve" smooth="yes"/>
      <point x="692" y="303"/>
      <point x="662" y="259"/>
      <point x="653" y="213" type="qcurve"/>
      <point x="638" y="154"/>
      <point x="638" y="121" type="qcurve" smooth="yes"/>
      <point x="638" y="69"/>
    </contour>
    <contour>
      <point x="251" y="395" type="qcurve" smooth="yes"/>
      <point x="279" y="395"/>
      <point x="307" y="439"/>
      <point x="317" y="485" type="qcurve"/>
      <point x="324" y="512"/>
      <point x="333" y="559"/>
      <point x="333" y="577" type="qcurve" smooth="yes"/>
      <point x="333" y="603"/>
      <point x="309" y="629"/>
      <point x="288" y="629" type="qcurve" smooth="yes"/>
      <point x="261" y="629"/>
      <point x="231" y="585"/>
      <point x="222" y="539" type="qcurve"/>
      <point x="207" y="480"/>
      <point x="207" y="447" type="qcurve"/>
      <point x="208" y="395"/>
    </contour>
    <contour>
      <point x="676" y="-12" type="qcurve" smooth="yes"/>
      <point x="601" y="-12"/>
      <point x="524" y="70"/>
      <point x="524" y="147" type="qcurve" smooth="yes"/>
      <point x="524" y="197"/>
      <point x="556" y="284"/>
      <point x="611" y="348"/>
      <point x="684" y="384"/>
      <point x="725" y="384" type="qcurve" smooth="yes"/>
      <point x="797" y="384"/>
      <point x="877" y="305"/>
      <point x="877" y="225" type="qcurve" smooth="yes"/>
      <point x="877" y="172"/>
      <point x="844" y="85"/>
      <point x="788" y="23"/>
      <point x="716" y="-12"/>
    </contour>
    <contour>
      <point x="245" y="314" type="qcurve" smooth="yes"/>
      <point x="170" y="314"/>
      <point x="93" y="396"/>
      <point x="93" y="473" type="qcurve" smooth="yes"/>
      <point x="93" y="523"/>
      <point x="125" y="610"/>
      <point x="180" y="674"/>
      <point x="253" y="710"/>
      <point x="294" y="710" type="qcurve" smooth="yes"/>
      <point x="366" y="710"/>
      <point x="446" y="631"/>
      <point x="446" y="551" type="qcurve" smooth="yes"/>
      <point x="446" y="498"/>
      <point x="413" y="411"/>
      <point x="357" y="349"/>
      <point x="285" y="314"/>
    </contour>
    <contour>
      <point x="141" y="0" type="line"/>
      <point x="709" y="698" type="line"/>
      <point x="829" y="698" type="line"/>
      <point x="261" y="0" type="line"/>
    </contour>
  </outline>
</glyph>
<glyph name="ampersand" format="2">
  <advance width="701"/>
  <unicode hex="0026"/>
  <outline>
    <contour>
      <point x="234" y="-12" type="qcurve" smooth="yes"/>
      <point x="186" y="-12"/>
      <point x="110" y="14"/>
      <point x="59" y="59"/>
      <point x="32" y="121"/>
      <point x="32" y="157" type="qcurve" smooth="yes"/>
      <point x="32" y="235"/>
      <point x="123" y="341"/>
      <point x="207" y="380" type="qcurve"/>
      <point x="156" y="452"/>
      <point x="156" y="516" type="qcurve" smooth="yes"/>
      <point x="156" y="559"/>
      <point x="189" y="631"/>
      <point x="249" y="682"/>
      <point x="331" y="710"/>
      <point x="381" y="710" type="qcurve" smooth="yes"/>
      <point x="419" y="710"/>
      <point x="484" y="692"/>
      <point x="532" y="655"/>
      <point x="559" y="600"/>
      <point x="559" y="563" type="qcurve" smooth="yes"/>
      <point x="559" y="530"/>
      <point x="531" y="471"/>
      <point x="482" y="420"/>
      <point x="417" y="378"/>
      <point x="380" y="361" type="qcurve"/>
      <point x="467" y="240" type="line"/>
      <point x="484" y="272"/>
      <point x="508" y="343"/>
      <point x="516" y="383" type="qcurve"/>
      <point x="685" y="383" type="line"/>
      <point x="662" y="268" type="line"/>
      <point x="584" y="268" type="line"/>
      <point x="575" y="236"/>
      <point x="549" y="176"/>
      <point x="531" y="149" type="qcurve"/>
      <point x="637" y="0" type="line"/>
      <point x="478" y="0" type="line"/>
      <point x="435" y="60" type="line"/>
      <point x="352" y="-12"/>
    </contour>
    <contour>
      <point x="338" y="444" type="line" smooth="yes"/>
      <point x="380" y="465"/>
      <point x="424" y="513"/>
      <point x="424" y="550" type="qcurve" smooth="yes"/>
      <point x="424" y="576"/>
      <point x="389" y="606"/>
      <point x="363" y="606" type="qcurve" smooth="yes"/>
      <point x="333" y="606"/>
      <point x="291" y="567"/>
      <point x="290" y="536" type="qcurve"/>
      <point x="289" y="529"/>
      <point x="289" y="512"/>
      <point x="291" y="504" type="qcurve"/>
      <point x="297" y="473"/>
      <point x="326" y="438" type="qcurve"/>
    </contour>
    <contour>
      <point x="268" y="102" type="qcurve" smooth="yes"/>
      <point x="329" y="102"/>
      <point x="380" y="138" type="qcurve"/>
      <point x="261" y="304" type="line"/>
      <point x="219" y="286"/>
      <point x="170" y="223"/>
      <point x="170" y="180" type="qcurve" smooth="yes"/>
      <point x="170" y="139"/>
      <point x="219" y="102"/>
    </contour>
  </outline>
</glyph>
<glyph name="comma" format="2">
  <advance width="300"/>
  <unicode hex="002C"/>
  <outline>
    <contour>
      <point x="-66" y="-146" type="line"/>
      <point x="17" y="-82"/>
      <point x="56" y="-8" type="qcurve"/>
      <point x="30" y="-1"/>
      <point x="7" y="30"/>
      <point x="7" y="47" type="qcurve" smooth="yes"/>
      <point x="7" y="71"/>
      <point x="18" y="113"/>
      <point x="42" y="145"/>
      <point x="80" y="164"/>
      <point x="106" y="164" type="qcurve" smooth="yes"/>
      <point x="147" y="164"/>
      <point x="180" y="126"/>
      <point x="180" y="100" type="qcurve" smooth="yes"/>
      <point x="180" y="70"/>
      <point x="159" y="4"/>
      <point x="122" y="-62"/>
      <point x="69" y="-122"/>
      <point x="36" y="-146" type="qcurve"/>
    </contour>
  </outline>
</glyph>
<glyph name="hyphen" format="2">
  <advance width="394"/>
  <unicode hex="002D"/>
  <outline>
    <contour>
      <point x="47" y="240" type="line"/>
      <point x="73" y="369" type="line"/>
      <point x="364" y="369" type="line"/>
      <point x="338" y="240" type="line"/>
    </contour>
  </outline>
</glyph>
<glyph name="period" format="2">
  <advance width="300"/>
  <unicode hex="002E"/>
  <outline>
    <contour>
      <point x="76" y="-11" type="qcurve" smooth="yes"/>
      <point x="36" y="-11"/>
      <point x="3" y="24"/>
      <point x="3" y="47" type="qcurve" smooth="yes"/>
      <point x="3" y="71"/>
      <point x="14" y="113"/>
      <point x="38" y="145"/>
      <point x="76" y="164"/>
      <point x="103" y="164" type="qcurve" smooth="yes"/>
      <point x="143" y="164"/>
      <point x="177" y="127"/>
      <point x="177" y="106" type="qcurve" smooth="yes"/>
      <point x="177" y="102"/>
      <point x="176" y="95"/>
      <point x="176" y="91" type="qcurve"/>
      <point x="170" y="61" type="line" smooth="yes"/>
      <point x="163" y="29"/>
      <point x="118" y="-11"/>
    </contour>
  </outline>
</glyph>
<glyph name="two" format="2">
  <advance width="600"/>
  <unicode hex="0032"/>
  <outline>
    <contour>
      <point x="14" y="0" type="line"/>
      <point x="40" y="130" type="line"/>
      <point x="291" y="317" type="line" smooth="yes"/>
      <point x="361" y="370"/>
      <point x="424" y="457"/>
      <point x="424" y="508" type="qcurve" smooth="yes"/>
      <point x="424" y="545"/>
      <point x="377" y="590"/>
      <point x="339" y="590" type="qcurve" smooth="yes"/>
      <point x="291" y="590"/>
      <point x="231" y="530"/>
      <point x="215" y="488" type="qcurve"/>
      <point x="98" y="535" type="line"/>
      <point x="136" y="620"/>
      <point x="260" y="710"/>
      <point x="350" y="710" type="qcurve" smooth="yes"/>
      <point x="401" y="710"/>
      <point x="482" y="682"/>
      <point x="539" y="632"/>
      <point x="570" y="562"/>
      <point x="570" y="519" type="qcurve" smooth="yes"/>
      <point x="570" y="476"/>
      <point x="541" y="401"/>
      <point x="486" y="332"/>
      <point x="406" y="265"/>
      <point x="356" y="231" type="qcurve"/>
      <point x="198" y="116" type="line"/>
      <point x="509" y="116" type="line"/>
      <point x="486" y="0" type="line"/>
    </contour>
  </outline>
</glyph>
<glyph name="four" format="2">
  <advance width="600"/>
  <unicode hex="0034"/>
  <outline>
    <contour>
      <point x="292" y="0" type="line"/>
      <point x="319" y="134" type="line"/>
      <point x="13" y="134" type="line"/>
      <point x="37" y="256" type="line"/>
      <point x="395" y="698" type="line"/>
      <point x="561" y="698" type="line"/>
      <point x="470" y="242" type="line"/>
      <point x="557" y="242" type="line"/>
      <point x="535" y="134" type="line"/>
      <point x="449" y="134" type="line"/>
      <point x="421" y="0" type="line"/>
    </contour>
    <contour>
      <point x="401" y="542" type="line"/>
      <point x="390" y="542" type="line"/>
      <point x="151" y="242" type="line"/>
      <point x="340" y="242" type="line"/>
    </contour>
  </outline>
</glyph>
<glyph name="eight" format="2">
  <advance width="600"/>
  <unicode hex="0038"/>
  <outline>
    <contour>
      <point x="267" y="96" type="qcurve" smooth="yes"/>
      <point x="317" y="96"/>
      <point x="378" y="142"/>
      <point x="389" y="191" type="qcurve"/>
      <point x="392" y="209" type="line"/>
      <point x="393" y="214"/>
      <point x="393" y="226" type="qcurve" smooth="yes"/>
      <point x="393" y="266"/>
      <point x="344" y="306"/>
      <point x="299" y="306" type="qcurve" smooth="yes"/>
      <point x="242" y="306"/>
      <point x="174" y="240"/>
      <point x="174" y="176" type="qcurve" smooth="yes"/>
      <point x="174" y="135"/>
      <point x="222" y="96"/>
    </contour>
    <contour>
      <point x="328" y="410" type="qcurve" smooth="yes"/>
      <point x="358" y="410"/>
      <point x="402" y="430"/>
      <point x="431" y="463"/>
      <point x="445" y="507"/>
      <point x="445" y="532" type="qcurve" smooth="yes"/>
      <point x="445" y="564"/>
      <point x="402" y="602"/>
      <point x="357" y="602" type="qcurve" smooth="yes"/>
      <point x="327" y="602"/>
      <point x="282" y="582"/>
      <point x="254" y="549"/>
      <point x="240" y="505"/>
      <point x="240" y="480" type="qcurve"/>
      <point x="241" y="448"/>
      <point x="284" y="410"/>
    </contour>
    <contour>
      <point x="258" y="-12" type="qcurve" smooth="yes"/>
      <point x="201" y="-12"/>
      <point x="116" y="14"/>
      <point x="60" y="61"/>
      <point x="33" y="126"/>
      <point x="33" y="165" type="qcurve" smooth="yes"/>
      <point x="33" y="240"/>
      <point x="123" y="344"/>
      <point x="201" y="361" type="qcurve"/>
      <point x="201" y="363"/>
      <point x="202" y="367"/>
      <point x="202" y="369" type="qcurve"/>
      <point x="117" y="402"/>
      <point x="117" y="505" type="qcurve" smooth="yes"/>
      <point x="117" y="545"/>
      <point x="150" y="619"/>
      <point x="215" y="676"/>
      <point x="311" y="710"/>
      <point x="375" y="710" type="qcurve" smooth="yes"/>
      <point x="477" y="710"/>
      <point x="579" y="622"/>
      <point x="579" y="550" type="qcurve" smooth="yes"/>
      <point x="579" y="484"/>
      <point x="500" y="391"/>
      <point x="434" y="368" type="qcurve"/>
      <point x="434" y="366"/>
      <point x="433" y="362"/>
      <point x="433" y="360" type="qcurve"/>
      <point x="483" y="344"/>
      <point x="535" y="270"/>
      <point x="535" y="211" type="qcurve" smooth="yes"/>
      <point x="535" y="165"/>
      <point x="493" y="84"/>
      <point x="419" y="23"/>
      <point x="318" y="-12"/>
    </contour>
  </outline>
</glyph>
<glyph name="colon" format="2">
  <advance width="300"/>
  <unicode hex="003A"/>
  <outline>
    <contour>
      <point x="86" y="-11" type="qcurve" smooth="yes"/>
      <point x="46" y="-11"/>
      <point x="13" y="24"/>
      <point x="13" y="47" type="qcurve" smooth="yes"/>
      <point x="13" y="71"/>
      <point x="24" y="113"/>
      <point x="48" y="145"/>
      <point x="86" y="164"/>
      <point x="113" y="164" type="qcurve" smooth="yes"/>
      <point x="153" y="164"/>
      <point x="187" y="127"/>
      <point x="187" y="106" type="qcurve" smooth="yes"/>
      <point x="187" y="102"/>
      <point x="186" y="95"/>
      <point x="186" y="91" type="qcurve"/>
      <point x="180" y="61" type="line" smooth="yes"/>
      <point x="173" y="29"/>
      <point x="128" y="-11"/>
    </contour>
    <contour>
      <point x="160" y="361" type="qcurve" smooth="yes"/>
      <point x="119" y="361"/>
      <point x="87" y="396"/>
      <point x="87" y="419" type="qcurve" smooth="yes"/>
      <point x="87" y="443"/>
      <point x="98" y="485"/>
      <point x="122" y="517"/>
      <point x="160" y="536"/>
      <point x="187" y="536" type="qcurve" smooth="yes"/>
      <point x="228" y="536"/>
      <point x="261" y="500"/>
      <point x="261" y="478" type="qcurve" smooth="yes"/>
      <point x="261" y="473"/>
      <point x="260" y="466"/>
      <point x="260" y="462" type="qcurve"/>
      <point x="254" y="433" type="line" smooth="yes"/>
      <point x="247" y="400"/>
      <point x="201" y="361"/>
    </contour>
  </outline>
</glyph>
<glyph name="semicolon" format="2">
  <advance width="323"/>
  <unicode hex="003B"/>
  <outline>
    <contour>
      <point x="184" y="361" type="qcurve" smooth="yes"/>
      <point x="143" y="361"/>
      <point x="111" y="396"/>
      <point x="111" y="419" type="qcurve" smooth="yes"/>
      <point x="111" y="443"/>
      <point x="122" y="485"/>
      <point x="146" y="517"/>
      <point x="184" y="536"/>
      <point x="211" y="536" type="qcurve" smooth="yes"/>
      <point x="252" y="536"/>
      <point x="285" y="500"/>
      <point x="285" y="478" type="qcurve" smooth="yes"/>
      <point x="285" y="473"/>
      <point x="284" y="466"/>
      <point x="284" y="462" type="qcurve"/>
      <point x="278" y="433" type="line" smooth="yes"/>
      <point x="271" y="400"/>
      <point x="225" y="361"/>
    </contour>
    <contour>
      <point x="-32" y="-146" type="line"/>
      <point x="51" y="-82"/>
      <point x="90" y="-8" type="qcurve"/>
      <point x="64" y="-1"/>
      <point x="41" y="30"/>
      <point x="41" y="47" type="qcurve" smooth="yes"/>
      <point x="41" y="71"/>
      <point x="52" y="113"/>
      <point x="76" y="145"/>
      <point x="114" y="164"/>
      <point x="140" y="164" type="qcurve" smooth="yes"/>
      <point x="181" y="164"/>
      <point x="214" y="126"/>
      <point x="214" y="100" type="qcurve" smooth="yes"/>
      <point x="214" y="70"/>
      <point x="193" y="4"/>
      <point x="156" y="-62"/>
      <point x="103" y="-122"/>
      <point x="70" y="-146" type="qcurve"/>
    </contour>
  </outline>
</glyph>
<glyph name="at" format="2">
  <advance width="888"/>
  <unicode hex="0040"/>
  <outline>
    <contour>
      <point x="382" y="-121" type="line" smooth="yes"/>
      <point x="306" y="-121"/>
      <point x="186" y="-72"/>
      <point x="104" y="16"/>
      <point x="60" y="137"/>
      <point x="60" y="209" type="qcurve" smooth="yes"/>
      <point x="60" y="317"/>
      <point x="132" y="501"/>
      <point x="256" y="634"/>
      <point x="425" y="709"/>
      <point x="522" y="709" type="qcurve" smooth="yes"/>
      <point x="591" y="709"/>
      <point x="710" y="665"/>
      <point x="798" y="583"/>
      <point x="848" y="467"/>
      <point x="848" y="394" type="qcurve" smooth="yes"/>
      <point x="848" y="373"/>
      <point x="843" y="329"/>
      <point x="838" y="306" type="qcurve" smooth="yes"/>
      <point x="827" y="260"/>
      <point x="786" y="178"/>
      <point x="729" y="117"/>
      <point x="658" y="81"/>
      <point x="616" y="81" type="qcurve" smooth="yes"/>
      <point x="564" y="81"/>
      <point x="507" y="125"/>
      <point x="507" y="163" type="qcurve" smooth="yes"/>
      <point x="507" y="175" type="line"/>
      <point x="502" y="175" type="line"/>
      <point x="489" y="136"/>
      <point x="425" y="82"/>
      <point x="382" y="82" type="qcurve" smooth="yes"/>
      <point x="319" y="82"/>
      <point x="251" y="158"/>
      <point x="251" y="232" type="qcurve" smooth="yes"/>
      <point x="251" y="293"/>
      <point x="284" y="391"/>
      <point x="338" y="461"/>
      <point x="408" y="499"/>
      <point x="444" y="499" type="qcurve" smooth="yes"/>
      <point x="525" y="499"/>
      <point x="542" y="430" type="qcurve"/>
      <point x="546" y="430" type="line"/>
      <point x="559" y="490" type="line"/>
      <point x="665" y="490" type="line"/>
      <point x="612" y="224" type="line"/>
      <point x="610" y="216"/>
      <point x="608" y="202"/>
      <point x="608" y="197" type="qcurve" smooth="yes"/>
      <point x="608" y="164"/>
      <point x="640" y="164" type="qcurve" smooth="yes"/>
      <point x="669" y="164"/>
      <point x="714" y="216"/>
      <point x="744" y="292"/>
      <point x="759" y="377"/>
      <point x="759" y="409" type="qcurve" smooth="yes"/>
      <point x="759" y="461"/>
      <point x="721" y="542"/>
      <point x="653" y="598"/>
      <point x="562" y="626"/>
      <point x="509" y="626" type="qcurve" smooth="yes"/>
      <point x="444" y="626"/>
      <point x="329" y="581"/>
      <point x="238" y="499"/>
      <point x="176" y="384"/>
      <point x="166" y="313" type="qcurve"/>
      <point x="162" y="292" type="line"/>
      <point x="151" y="245"/>
      <point x="151" y="208" type="qcurve" smooth="yes"/>
      <point x="151" y="150"/>
      <point x="185" y="59"/>
      <point x="249" y="-5"/>
      <point x="340" y="-39"/>
      <point x="397" y="-39" type="qcurve" smooth="yes"/>
      <point x="590" y="-39" type="line"/>
      <point x="574" y="-121" type="line"/>
    </contour>
    <contour>
      <point x="421" y="170" type="qcurve" smooth="yes"/>
      <point x="437" y="170"/>
      <point x="467" y="183"/>
      <point x="490" y="204"/>
      <point x="506" y="231"/>
      <point x="509" y="245" type="qcurve"/>
      <point x="517" y="300"/>
      <point x="531" y="353"/>
      <point x="531" y="358" type="qcurve" smooth="yes"/>
      <point x="531" y="382"/>
      <point x="491" y="412"/>
      <point x="463" y="412" type="qcurve" smooth="yes"/>
      <point x="427" y="412"/>
      <point x="385" y="368"/>
      <point x="376" y="326" type="qcurve" smooth="yes"/>
      <point x="361" y="250" type="line"/>
      <point x="360" y="247"/>
      <point x="360" y="231" type="qcurve" smooth="yes"/>
      <point x="360" y="170"/>
    </contour>
  </outline>
</glyph>
<glyph name="E" format="2">
  <advance width="577"/>
  <unicode hex="0045"/>
  <outline>
    <contour>
      <point x="24" y="0" type="line"/>
      <point x="164" y="698" type="line"/>
      <point x="609" y="698" type="line"/>
      <point x="584" y="576" type="line"/>
      <point x="278" y="576" type="line"/>
      <point x="246" y="414" type="line"/>
      <point x="517" y="414" type="line"/>
      <point x="492" y="292" type="line"/>
      <point x="221" y="292" type="line"/>
      <point x="187" y="122" type="line"/>
      <point x="504" y="122" type="line"/>
      <point x="480" y="0" type="line"/>
    </contour>
  </outline>
</glyph>
<glyph name="H" format="2">
  <advance width="698"/>
  <unicode hex="0048"/>
  <outline>
    <contour>
      <point x="430" y="0" type="line"/>
      <point x="489" y="292" type="line"/>
      <point x="221" y="292" type="line"/>
      <point x="162" y="0" type="line"/>
      <point x="24" y="0" type="line"/>
      <point x="164" y="698" type="line"/>
      <point x="302" y="698" type="line"/>
      <point x="246" y="414" type="line"/>
      <point x="514" y="414" type="line"/>
      <point x="570" y="698" type="line"/>
      <point x="709" y="698" type="line"/>
      <point x="569" y="0" type="line"/>
    </contour>
  </outline>
</glyph>
<glyph name="J" format="2">
  <advance width="532"/>
  <unicode hex="004A"/>
  <outline>
    <contour>
      <point x="211" y="-11" type="qcurve" smooth="yes"/>
      <point x="161" y="-11"/>
      <point x="88" y="17"/>
      <point x="37" y="68"/>
      <point x="9" y="136"/>
      <point x="5" y="177" type="qcurve"/>
      <point x="137" y="204" type="line"/>
      <point x="139" y="162"/>
      <point x="173" y="110"/>
      <point x="211" y="110" type="qcurve" smooth="yes"/>
      <point x="245" y="110"/>
      <point x="295" y="153"/>
      <point x="306" y="204" type="qcurve" smooth="yes"/>
      <point x="404" y="698" type="line"/>
      <point x="544" y="698" type="line"/>
      <point x="441" y="190" type="line" smooth="yes"/>
      <point x="423" y="99"/>
      <point x="310" y="-11"/>
    </contour>
  </outline>
</glyph>
<glyph name="P" format="2">
  <advance width="632"/>
  <unicode hex="0050"/>
  <outline>
    <contour>
      <point x="24" y="0" type="line"/>
      <point x="164" y="698" type="line"/>
      <point x="425" y="698" type="line" smooth="yes"/>
      <point x="529" y="698"/>
      <point x="641" y="601"/>
      <point x="641" y="513" type="qcurve" smooth="yes"/>
      <point x="641" y="456"/>
      <point x="601" y="362"/>
      <point x="529" y="296"/>
      <point x="431" y="259"/>
      <point x="373" y="259" type="qcurve" smooth="yes"/>
      <point x="214" y="259" type="line"/>
      <point x="162" y="0" type="line"/>
    </contour>
    <contour>
      <point x="392" y="382" type="line" smooth="yes"/>
      <point x="468" y="382"/>
      <point x="486" y="457" type="qcurve"/>
      <point x="494" y="496" type="line" smooth="yes"/>
      <point x="497" y="509"/>
      <point x="497" y="519" type="qcurve" smooth="yes"/>
      <point x="497" y="554"/>
      <point x="449" y="576"/>
      <point x="403" y="576" type="qcurve" smooth="yes"/>
      <point x="277" y="576" type="line"/>
      <point x="239" y="382" type="line"/>
    </contour>
  </outline>
</glyph>
<glyph name="Q" format="2">
  <advance width="693"/>
  <unicode hex="0051"/>
  <outline>
    <contour>
      <point x="307" y="-12" type="qcurve" smooth="yes"/>
      <point x="258" y="-12"/>
      <point x="168" y="20"/>
      <point x="99" y="89"/>
      <point x="57" y="195"/>
      <point x="57" y="270" type="qcurve" smooth="yes"/>
      <point x="57" y="357"/>
      <point x="108" y="516"/>
      <point x="203" y="637"/>
      <point x="335" y="710"/>
      <point x="416" y="710" type="qcurve" smooth="yes"/>
      <point x="465" y="710"/>
      <point x="555" y="678"/>
      <point x="624" y="609"/>
      <point x="666" y="502"/>
      <point x="666" y="428" type="qcurve" smooth="yes"/>
      <point x="666" y="341"/>
      <point x="615" y="182"/>
      <point x="521" y="61"/>
      <point x="388" y="-12"/>
    </contour>
    <contour>
      <point x="317" y="111" type="qcurve" smooth="yes"/>
      <point x="390" y="111"/>
      <point x="482" y="208"/>
      <point x="501" y="296" type="qcurve"/>
      <point x="515" y="369" type="line" smooth="yes"/>
      <point x="519" y="392"/>
      <point x="527" y="437"/>
      <point x="527" y="454" type="qcurve" smooth="yes"/>
      <point x="527" y="587"/>
      <point x="406" y="587" type="qcurve" smooth="yes"/>
      <point x="332" y="587"/>
      <point x="239" y="489"/>
      <point x="222" y="402" type="qcurve" smooth="yes"/>
      <point x="208" y="329" type="line" smooth="yes"/>
      <point x="204" y="307"/>
      <point x="196" y="264"/>
      <point x="196" y="244" type="qcurve" smooth="yes"/>
      <point x="196" y="180"/>
      <point x="255" y="111"/>
    </contour>
    <contour>
      <point x="536" y="-12" type="line"/>
      <point x="276" y="267" type="line"/>
      <point x="419" y="267" type="line"/>
      <point x="679" y="-12" type="line"/>
    </contour>
  </outline>
</glyph>
<glyph name="bracketright" format="2">
  <advance width="322"/>
  <unicode hex="005D"/>
  <outline>
    <contour>
      <point x="-46" y="-138" type="line"/>
      <point x="-28" y="-45" type="line"/>
      <point x="62" y="-45" type="line"/>
      <point x="205" y="667" type="line"/>
      <point x="115" y="667" type="line"/>
      <point x="133" y="760" type="line"/>
      <point x="345" y="760" type="line"/>
      <point x="165" y="-138" type="line"/>
    </contour>
  </outline>
</glyph>
<glyph name="asciicircum" format="2">
  <advance width="600"/>
  <unicode hex="005E"/>
  <outline>
    <contour>
      <point x="365" y="558" type="line"/>
      <point x="355" y="558" type="line"/>
      <point x="152" y="282" type="line"/>
      <point x="51" y="342" type="line"/>
      <point x="316" y="698" type="line"/>
      <point x="442" y="698" type="line"/>
      <point x="581" y="325" type="line"/>
      <point x="469" y="282" type="line"/>
    </contour>
  </outline>
</glyph>
<glyph name="e" format="2">
  <advance width="515"/>
  <unicode hex="0065"/>
  <outline>
    <contour>
      <point x="182" y="295" type="line"/>
      <point x="236" y="299"/>
      <point x="309" y="311"/>
      <point x="353" y="330"/>
      <point x="372" y="358"/>
      <point x="372" y="378" type="qcurve" smooth="yes"/>
      <point x="372" y="407"/>
      <point x="336" y="433"/>
      <point x="308" y="433" type="qcurve" smooth="yes"/>
      <point x="262" y="433"/>
      <point x="196" y="373"/>
      <point x="186" y="319" type="qcurve" smooth="yes"/>
    </contour>
    <contour>
      <point x="252" y="-12" type="qcurve" smooth="yes"/>
      <point x="142" y="-12"/>
      <point x="33" y="108"/>
      <point x="33" y="213" type="qcurve" smooth="yes"/>
      <point x="33" y="274"/>
      <point x="72" y="390"/>
      <point x="146" y="481"/>
      <point x="251" y="536"/>
      <point x="316" y="536" type="qcurve" smooth="yes"/>
      <point x="355" y="536"/>
      <point x="423" y="518"/>
      <point x="473" y="482"/>
      <point x="502" y="427"/>
      <point x="502" y="391" type="qcurve" smooth="yes"/>
      <point x="502" y="218"/>
      <point x="168" y="209" type="qcurve"/>
      <point x="167" y="204"/>
      <point x="166" y="193"/>
      <point x="166" y="184" type="qcurve" smooth="yes"/>
      <point x="166" y="142"/>
      <point x="210" y="97"/>
      <point x="262" y="97" type="qcurve" smooth="yes"/>
      <point x="297" y="97"/>
      <point x="358" y="128"/>
      <point x="393" y="170" type="qcurve"/>
      <point x="475" y="105" type="line"/>
      <point x="427" y="42"/>
      <point x="320" y="-12"/>
    </contour>
  </outline>
</glyph>
<glyph name="g" format="2">
  <advance width="571"/>
  <unicode hex="0067"/>
  <outline>
    <contour>
      <point x="240" y="111" type="qcurve"/>
      <point x="267" y="111"/>
      <point x="314" y="139"/>
      <point x="350" y="183"/>
      <point x="374" y="238"/>
      <point x="379" y="265" type="qcurve" smooth="yes"/>
      <point x="387" y="305"/>
      <point x="395" y="348"/>
      <point x="395" y="352" type="qcurve" smooth="yes"/>
      <point x="395" y="364"/>
      <point x="386" y="391"/>
      <point x="365" y="412"/>
      <point x="332" y="426"/>
      <point x="308" y="426" type="qcurve" smooth="yes"/>
      <point x="261" y="426"/>
      <point x="199" y="365"/>
      <point x="189" y="305" type="qcurve"/>
      <point x="177" y="247" type="line"/>
      <point x="174" y="230"/>
      <point x="171" y="204"/>
      <point x="171" y="190" type="qcurve" smooth="yes"/>
      <point x="171" y="153"/>
      <point x="203" y="114"/>
    </contour>
    <contour>
      <point x="206" y="-212" type="qcurve" smooth="yes"/>
      <point x="140" y="-212"/>
      <point x="35" y="-170"/>
      <point x="-3" y="-119" type="qcurve"/>
      <point x="83" y="-41" type="line"/>
      <point x="103" y="-73"/>
      <point x="164" y="-104"/>
      <point x="202" y="-104" type="qcurve" smooth="yes"/>
      <point x="255" y="-104"/>
      <point x="317" y="-40"/>
      <point x="331" y="24" type="qcurve"/>
      <point x="353" y="134" type="line"/>
      <point x="347" y="134" type="line"/>
      <point x="318" y="71"/>
      <point x="239" y="1"/>
      <point x="176" y="1" type="qcurve" smooth="yes"/>
      <point x="140" y="1"/>
      <point x="87" y="28"/>
      <point x="52" y="77"/>
      <point x="35" y="144"/>
      <point x="35" y="184" type="qcurve" smooth="yes"/>
      <point x="35" y="263"/>
      <point x="71" y="393"/>
      <point x="135" y="485"/>
      <point x="224" y="536"/>
      <point x="277" y="536" type="qcurve" smooth="yes"/>
      <point x="331" y="536"/>
      <point x="401" y="481"/>
      <point x="408" y="434" type="qcurve"/>
      <point x="413" y="434" type="line"/>
      <point x="431" y="524" type="line"/>
      <point x="565" y="524" type="line"/>
      <point x="463" y="16" type="line"/>
      <point x="453" y="-39"/>
      <point x="414" y="-124"/>
      <point x="352" y="-182"/>
      <point x="265" y="-212"/>
    </contour>
  </outline>
</glyph>
<glyph name="k" format="2">
  <advance width="547"/>
  <unicode hex="006B"/>
  <outline>
    <contour>
      <point x="438" y="0" type="line" smooth="yes"/>
      <point x="411" y="0"/>
      <point x="370" y="5"/>
      <point x="338" y="20"/>
      <point x="316" y="50"/>
      <point x="308" y="76" type="qcurve"/>
      <point x="259" y="221" type="line"/>
      <point x="179" y="146" type="line"/>
      <point x="150" y="0" type="line"/>
      <point x="16" y="0" type="line"/>
      <point x="164" y="740" type="line"/>
      <point x="298" y="740" type="line"/>
      <point x="210" y="302" type="line"/>
      <point x="217" y="302" type="line"/>
      <point x="291" y="392" type="line"/>
      <point x="422" y="524" type="line"/>
      <point x="578" y="524" type="line"/>
      <point x="363" y="312" type="line"/>
      <point x="438" y="108" type="line"/>
      <point x="500" y="108" type="line"/>
      <point x="477" y="0" type="line"/>
    </contour>
  </outline>
</glyph>
<glyph name="p" format="2">
  <advance width="582"/>
  <unicode hex="0070"/>
  <outline>
    <contour>
      <point x="273" y="98" type="qcurve" smooth="yes"/>
      <point x="368" y="98"/>
      <point x="392" y="219" type="qcurve" smooth="yes"/>
      <point x="397" y="247"/>
      <point x="404" y="288"/>
      <point x="409" y="317"/>
      <point x="412" y="337"/>
      <point x="412" y="346" type="qcurve"/>
      <point x="407" y="426"/>
      <point x="343" y="426" type="qcurve" smooth="yes"/>
      <point x="317" y="426"/>
      <point x="272" y="401"/>
      <point x="236" y="358"/>
      <point x="210" y="302"/>
      <point x="204" y="271" type="qcurve" smooth="yes"/>
      <point x="189" y="198" type="line"/>
      <point x="186" y="172"/>
      <point x="186" y="168" type="qcurve" smooth="yes"/>
      <point x="186" y="136"/>
      <point x="234" y="98"/>
    </contour>
    <contour>
      <point x="-24" y="-200" type="line"/>
      <point x="121" y="524" type="line"/>
      <point x="255" y="524" type="line"/>
      <point x="231" y="403" type="line"/>
      <point x="237" y="403" type="line"/>
      <point x="266" y="466"/>
      <point x="345" y="536"/>
      <point x="407" y="536" type="qcurve" smooth="yes"/>
      <point x="444" y="536"/>
      <point x="498" y="508"/>
      <point x="533" y="459"/>
      <point x="549" y="392"/>
      <point x="549" y="353" type="qcurve" smooth="yes"/>
      <point x="549" y="273"/>
      <point x="512" y="140"/>
      <point x="446" y="42"/>
      <point x="356" y="-12"/>
      <point x="304" y="-12" type="qcurve" smooth="yes"/>
      <point x="253" y="-12"/>
      <point x="179" y="45"/>
      <point x="173" y="90" type="qcurve"/>
      <point x="168" y="90" type="line"/>
      <point x="110" y="-200" type="line"/>
    </contour>
  </outline>
</glyph>
<glyph name="q" format="2">
  <advance width="582"/>
  <unicode hex="0071"/>
  <outline>
    <contour>
      <point x="239" y="98" type="qcurve" smooth="yes"/>
      <point x="263" y="98"/>
      <point x="308" y="122"/>
      <point x="344" y="164"/>
      <point x="371" y="220"/>
      <point x="378" y="253" type="qcurve"/>
      <point x="391" y="326" type="line" smooth="yes"/>
      <point x="393" y="338"/>
      <point x="396" y="352"/>
      <point x="396" y="356" type="qcurve" smooth="yes"/>
      <point x="396" y="388"/>
      <point x="348" y="426"/>
      <point x="309" y="426" type="qcurve" smooth="yes"/>
      <point x="214" y="426"/>
      <point x="190" y="305" type="qcurve"/>
      <point x="185" y="276"/>
      <point x="178" y="236"/>
      <point x="173" y="208"/>
      <point x="170" y="187"/>
      <point x="170" y="178" type="qcurve"/>
      <point x="175" y="98"/>
    </contour>
    <contour>
      <point x="287" y="-200" type="line"/>
      <point x="351" y="121" type="line"/>
      <point x="345" y="121" type="line"/>
      <point x="319" y="67"/>
      <point x="257" y="0"/>
      <point x="210" y="-8" type="qcurve"/>
      <point x="195" y="-11"/>
      <point x="178" y="-11" type="qcurve" smooth="yes"/>
      <point x="170" y="-11" type="line"/>
      <point x="134" y="-10"/>
      <point x="83" y="18"/>
      <point x="49" y="67"/>
      <point x="33" y="133"/>
      <point x="33" y="171" type="qcurve" smooth="yes"/>
      <point x="33" y="255"/>
      <point x="73" y="391"/>
      <point x="140" y="485"/>
      <point x="229" y="536"/>
      <point x="278" y="536" type="qcurve" smooth="yes"/>
      <point x="329" y="536"/>
      <point x="402" y="479"/>
      <point x="409" y="434" type="qcurve"/>
      <point x="414" y="434" type="line"/>
      <point x="432" y="524" type="line"/>
      <point x="566" y="524" type="line"/>
      <point x="421" y="-200" type="line"/>
    </contour>
  </outline>
</glyph>
<glyph name="x" format="2">
  <advance width="516"/>
  <unicode hex="0078"/>
  <outline>
    <contour>
      <point x="306" y="0" type="line"/>
      <point x="238" y="176" type="line"/>
      <point x="233" y="176" type="line"/>
      <point x="98" y="0" type="line"/>
      <point x="-49" y="0" type="line"/>
      <point x="180" y="273" type="line"/>
      <point x="66" y="524" type="line"/>
      <point x="211" y="524" type="line"/>
      <point x="276" y="347" type="line"/>
      <point x="282" y="347" type="line"/>
      <point x="416" y="524" type="line"/>
      <point x="562" y="524" type="line"/>
      <point x="334" y="253" type="line"/>
      <point x="451" y="0" type="line"/>
    </contour>
  </outline>
</glyph>
<glyph name="asciitilde" format="2">
  <advance width="600"/>
  <unicode hex="007E"/>
  <outline>
    <contour>
      <point x="401" y="213" type="qcurve" smooth="yes"/>
      <point x="380" y="213"/>
      <point x="370" y="216" type="qcurve"/>
      <point x="316" y="226"/>
      <point x="262" y="251"/>
      <point x="231" y="272"/>
      <point x="206" y="286"/>
      <point x="180" y="286" type="qcurve" smooth="yes"/>
      <point x="157" y="286"/>
      <point x="120" y="272"/>
      <point x="97" y="257" type="qcurve"/>
      <point x="61" y="340" type="line"/>
      <point x="110" y="397"/>
      <point x="201" y="397" type="qcurve" smooth="yes"/>
      <point x="241" y="397"/>
      <point x="296" y="374"/>
      <point x="344" y="347"/>
      <point x="390" y="324"/>
      <point x="421" y="324" type="qcurve" smooth="yes"/>
      <point x="444" y="324"/>
      <point x="482" y="339"/>
      <point x="505" y="354" type="qcurve"/>
      <point x="541" y="271" type="line"/>
      <point x="490" y="213"/>
    </contour>
  </outline>
</glyph>
<glyph name="sfthyphen" format="2">
  <advance width="395"/>
  <unicode hex="00AD"/>
  <outline>
    <contour>
      <point x="45" y="238" type="line"/>
      <point x="72" y="372" type="line"/>
      <point x="367" y="372" type="line"/>
      <point x="340" y="238" type="line"/>
    </contour>
  </outline>
</glyph>
<glyph name="plusminus" format="2">
  <advance width="600"/>
  <unicode hex="00B1"/>
  <outline>
    <contour>
      <point x="223" y="181" type="line"/>
      <point x="257" y="351" type="line"/>
      <point x="86" y="351" type="line"/>
      <point x="108" y="462" type="line"/>
      <point x="279" y="462" type="line"/>
      <point x="313" y="632" type="line"/>
      <point x="432" y="632" type="line"/>
      <point x="399" y="462" type="line"/>
      <point x="570" y="462" type="line"/>
      <point x="548" y="351" type="line"/>
      <point x="377" y="351" type="line"/>
      <point x="343" y="181" type="line"/>
    </contour>
    <contour>
      <point x="17" y="0" type="line"/>
      <point x="39" y="111" type="line"/>
      <point x="500" y="111" type="line"/>
      <point x="478" y="0" type="line"/>
    </contour>
  </outline>
</glyph>
<glyph name="threesuperior" format="2">
  <advance width="332"/>
  <unicode hex="00B3"/>
  <outline>
    <contour>
      <point x="171" y="323" type="qcurve" smooth="yes"/>
      <point x="62" y="323"/>
      <point x="34" y="396" type="qcurve"/>
      <point x="103" y="445" type="line"/>
      <point x="121" y="399"/>
      <point x="172" y="399" type="qcurve" smooth="yes"/>
      <point x="193" y="399"/>
      <point x="226" y="417"/>
      <point x="230" y="436" type="qcurve"/>
      <point x="232" y="450" type="line"/>
      <point x="232" y="479"/>
      <point x="184" y="479" type="qcurve" smooth="yes"/>
      <point x="144" y="479" type="line"/>
      <point x="159" y="556" type="line"/>
      <point x="195" y="556" type="line" smooth="yes"/>
      <point x="225" y="556"/>
      <point x="255" y="574"/>
      <point x="257" y="585" type="qcurve"/>
      <point x="259" y="599" type="line"/>
      <point x="256" y="628"/>
      <point x="215" y="628" type="qcurve" smooth="yes"/>
      <point x="175" y="628"/>
      <point x="138" y="585" type="qcurve"/>
      <point x="86" y="645" type="line"/>
      <point x="113" y="673"/>
      <point x="180" y="704"/>
      <point x="229" y="704" type="qcurve" smooth="yes"/>
      <point x="292" y="704"/>
      <point x="360" y="656"/>
      <point x="360" y="614" type="qcurve" smooth="yes"/>
      <point x="360" y="580"/>
      <point x="315" y="531"/>
      <point x="270" y="522" type="qcurve"/>
      <point x="270" y="520" type="line"/>
      <point x="334" y="507"/>
      <point x="334" y="446" type="qcurve" smooth="yes"/>
      <point x="334" y="392"/>
      <point x="249" y="323"/>
    </contour>
  </outline>
</glyph>
<glyph name="guillemotright" format="2">
  <advance width="556"/>
  <unicode hex="00BB"/>
  <outline>
    <contour>
      <point x="12" y="142" type="line"/>
      <point x="165" y="281" type="line"/>
      <point x="70" y="414" type="line"/>
      <point x="124" y="494" type="line"/>
      <point x="280" y="333" type="line"/>
      <point x="255" y="211" type="line"/>
      <point x="51" y="53" type="line"/>
    </contour>
    <contour>
      <point x="257" y="142" type="line"/>
      <point x="410" y="281" type="line"/>
      <point x="315" y="414" type="line"/>
      <point x="369" y="494" type="line"/>
      <point x="525" y="333" type="line"/>
      <point x="500" y="211" type="line"/>
      <point x="296" y="53" type="line"/>
    </contour>
  </outline>
</glyph>
<glyph name="Acircumflex" format="2">
  <advance width="654"/>
  <unicode hex="00C2"/>
  <outline>
    <contour>
      <point x="393" y="572" type="line"/>
      <point x="386" y="572" type="line"/>
      <point x="253" y="290" type="line"/>
      <point x="416" y="290" type="line"/>
    </contour>
    <contour>
      <point x="238" y="796" type="line"/>
      <point x="392" y="952" type="line"/>
      <point x="511" y="952" type="line"/>
      <point x="609" y="796" type="line"/>
      <point x="538" y="741" type="line"/>
      <point x="439" y="856" type="line"/>
      <point x="305" y="741" type="line"/>
    </contour>
    <contour>
      <point x="443" y="0" type="line"/>
      <point x="426" y="174" type="line"/>
      <point x="198" y="174" type="line"/>
      <point x="114" y="0" type="line"/>
      <point x="-34" y="0" type="line"/>
      <point x="326" y="698" type="line"/>
      <point x="503" y="698" type="line"/>
      <point x="584" y="0" type="line"/>
    </contour>
  </outline>
</glyph>
<glyph name="AE" format="2">
  <advance width="917"/>
  <unicode hex="00C6"/>
  <outline>
    <contour>
      <point x="364" y="0" type="line"/>
      <point x="398" y="173" type="line"/>
      <point x="200" y="173" type="line"/>
      <point x="95" y="0" type="line"/>
      <point x="-55" y="0" type="line"/>
      <point x="393" y="698" type="line"/>
      <point x="949" y="698" type="line"/>
      <point x="924" y="576" type="line"/>
      <point x="618" y="576" type="line"/>
      <point x="586" y="414" type="line"/>
      <point x="856" y="414" type="line"/>
      <point x="832" y="292" type="line"/>
      <point x="561" y="292" type="line"/>
      <point x="527" y="122" type="line"/>
      <point x="844" y="122" type="line"/>
      <point x="819" y="0" type="line"/>
    </contour>
    <contour>
      <point x="479" y="576" type="line"/>
      <point x="452" y="576" type="line"/>
      <point x="274" y="289" type="line"/>
      <point x="421" y="289" type="line"/>
    </contour>
  </outline>
</glyph>
<glyph name="Eacute" format="2">
  <advance width="577"/>
  <unicode hex="00C9"/>
  <outline>
    <contour>
      <point x="332" y="785" type="line"/>
      <point x="450" y="972" type="line"/>
      <point x="557" y="915" type="line"/>
      <point x="413" y="741" type="line"/>
    </contour>
    <contour>
      <point x="24" y="0" type="line"/>
      <point x="164" y="698" type="line"/>
      <point x="609" y="698" type="line"/>
      <point x="584" y="576" type="line"/>
      <point x="278" y="576" type="line"/>
      <point x="246" y="414" type="line"/>
      <point x="517" y="414" type="line"/>
      <point x="492" y="292" type="line"/>
      <point x="221" y="292" type="line"/>
      <point x="187" y="122" type="line"/>
      <point x="504" y="122" type="line"/>
      <point x="480" y="0" type="line"/>
    </contour>
  </outline>
</glyph>
<glyph name="Ntilde" format="2">
  <advance width="698"/>
  <unicode hex="00D1"/>
  <outline>
    <contour>
      <point x="418" y="0" type="line"/>
      <point x="282" y="406" type="line"/>
      <point x="258" y="486" type="line"/>
      <point x="252" y="486" type="line"/>
      <point x="155" y="0" type="line"/>
      <point x="24" y="0" type="line"/>
      <point x="164" y="698" type="line"/>
      <point x="314" y="698" type="line"/>
      <point x="450" y="291" type="line"/>
      <point x="475" y="212" type="line"/>
      <point x="480" y="212" type="line"/>
      <point x="578" y="698" type="line"/>
      <point x="709" y="698" type="line"/>
      <point x="569" y="0" type="line"/>
    </contour>
    <contour>
      <point x="529" y="763" type="qcurve" smooth="yes"/>
      <point x="500" y="763"/>
      <point x="447" y="789"/>
      <point x="421" y="798" type="qcurve"/>
      <point x="411" y="802"/>
      <point x="391" y="807"/>
      <point x="382" y="807" type="qcurve" smooth="yes"/>
      <point x="363" y="807"/>
      <point x="341" y="794"/>
      <point x="324" y="782" type="qcurve"/>
      <point x="282" y="847" type="line"/>
      <point x="332" y="909"/>
      <point x="396" y="909" type="qcurve" smooth="yes"/>
      <point x="409" y="909"/>
      <point x="435" y="903"/>
      <point x="446" y="898" type="qcurve"/>
      <point x="472" y="888"/>
      <point x="519" y="865"/>
      <point x="543" y="865" type="qcurve" smooth="yes"/>
      <point x="562" y="865"/>
      <point x="584" y="878"/>
      <point x="601" y="890" type="qcurve"/>
      <point x="643" y="824" type="line"/>
      <point x="593" y="763"/>
    </contour>
  </outline>
</glyph>
<glyph name="ae" format="2">
  <advance width="825"/>
  <unicode hex="00E6"/>
  <outline>
    <contour>
      <point x="562" y="-12" type="qcurve" smooth="yes"/>
      <point x="418" y="-12"/>
      <point x="367" y="92" type="qcurve"/>
      <point x="360" y="92" type="line"/>
      <point x="335" y="39"/>
      <point x="243" y="-12"/>
      <point x="181" y="-12" type="qcurve" smooth="yes"/>
      <point x="103" y="-12"/>
      <point x="25" y="60"/>
      <point x="25" y="125" type="qcurve" smooth="yes"/>
      <point x="25" y="207"/>
      <point x="151" y="287"/>
      <point x="267" y="293" type="qcurve" smooth="yes"/>
      <point x="359" y="297" type="line"/>
      <point x="368" y="343"/>
      <point x="368" y="357" type="qcurve" smooth="yes"/>
      <point x="368" y="428"/>
      <point x="284" y="428" type="qcurve" smooth="yes"/>
      <point x="205" y="428"/>
      <point x="161" y="360" type="qcurve"/>
      <point x="82" y="435" type="line"/>
      <point x="120" y="485"/>
      <point x="225" y="536"/>
      <point x="295" y="536" type="qcurve" smooth="yes"/>
      <point x="410" y="536"/>
      <point x="451" y="458" type="qcurve"/>
      <point x="458" y="458" type="line"/>
      <point x="525" y="536"/>
      <point x="628" y="536" type="qcurve" smooth="yes"/>
      <point x="667" y="536"/>
      <point x="735" y="517"/>
      <point x="784" y="481"/>
      <point x="812" y="427"/>
      <point x="812" y="392" type="qcurve" smooth="yes"/>
      <point x="812" y="307"/>
      <point x="645" y="222"/>
      <point x="478" y="217" type="qcurve"/>
      <point x="478" y="212"/>
      <point x="476" y="197"/>
      <point x="476" y="184" type="qcurve" smooth="yes"/>
      <point x="476" y="143"/>
      <point x="519" y="97"/>
      <point x="573" y="97" type="qcurve" smooth="yes"/>
      <point x="608" y="97"/>
      <point x="668" y="128"/>
      <point x="703" y="170" type="qcurve"/>
      <point x="785" y="105" type="line"/>
      <point x="737" y="42"/>
      <point x="631" y="-12"/>
    </contour>
    <contour>
      <point x="529" y="302" type="line" smooth="yes"/>
      <point x="610" y="309"/>
      <point x="682" y="343"/>
      <point x="682" y="378" type="qcurve" smooth="yes"/>
      <point x="682" y="433"/>
      <point x="619" y="433" type="qcurve" smooth="yes"/>
      <point x="571" y="433"/>
      <point x="507" y="371"/>
      <point x="497" y="319" type="qcurve" smooth="yes"/>
      <point x="493" y="299" type="line"/>
    </contour>
    <contour>
      <point x="226" y="86" type="qcurve" smooth="yes"/>
      <point x="313" y="86"/>
      <point x="333" y="169" type="qcurve" smooth="yes"/>
      <point x="344" y="218" type="line"/>
      <point x="261" y="214" type="line" smooth="yes"/>
      <point x="213" y="212"/>
      <point x="164" y="175"/>
      <point x="164" y="133" type="qcurve" smooth="yes"/>
      <point x="164" y="109"/>
      <point x="197" y="86"/>
    </contour>
  </outline>
</glyph>
<glyph name="iacute" format="2">
  <advance width="279"/>
  <unicode hex="00ED"/>
  <outline>
    <contour>
      <point x="137" y="623" type="line"/>
      <point x="254" y="811" type="line"/>
      <point x="362" y="754" type="line"/>
      <point x="217" y="580" type="line"/>
    </contour>
    <contour>
      <point x="122" y="0" type="line" smooth="yes"/>
      <point x="80" y="0"/>
      <point x="34" y="43"/>
      <point x="34" y="78" type="qcurve" smooth="yes"/>
      <point x="34" y="87"/>
      <point x="121" y="524" type="qcurve"/>
      <point x="255" y="524" type="line"/>
      <point x="171" y="108" type="line"/>
      <point x="231" y="108" type="line"/>
      <point x="210" y="0" type="line"/>
    </contour>
  </outline>
</glyph>
<glyph name="eth" format="2">
  <advance width="572"/>
  <unicode hex="00F0"/>
  <outline>
    <contour>
      <point x="250" y="92" type="qcurve" smooth="yes"/>
      <point x="295" y="92"/>
      <point x="351" y="155"/>
      <point x="365" y="215" type="qcurve" smooth="yes"/>
      <point x="370" y="238"/>
      <point x="379" y="288"/>
      <point x="379" y="305" type="qcurve" smooth="yes"/>
      <point x="379" y="347"/>
      <point x="336" y="394"/>
      <point x="297" y="394" type="qcurve" smooth="yes"/>
      <point x="252" y="394"/>
      <point x="195" y="331"/>
      <point x="183" y="272" type="qcurve" smooth="yes"/>
      <point x="178" y="249"/>
      <point x="168" y="201"/>
      <point x="168" y="181" type="qcurve" smooth="yes"/>
      <point x="168" y="139"/>
      <point x="211" y="92"/>
    </contour>
    <contour>
      <point x="241" y="-12" type="qcurve" smooth="yes"/>
      <point x="140" y="-12"/>
      <point x="33" y="104"/>
      <point x="33" y="210" type="qcurve" smooth="yes"/>
      <point x="33" y="267"/>
      <point x="67" y="372"/>
      <point x="128" y="452"/>
      <point x="211" y="500"/>
      <point x="261" y="500" type="qcurve" smooth="yes"/>
      <point x="313" y="500"/>
      <point x="380" y="446"/>
      <point x="395" y="400" type="qcurve"/>
      <point x="403" y="400" type="line"/>
      <point x="385" y="506"/>
      <point x="328" y="584" type="qcurve"/>
      <point x="223" y="529" type="line"/>
      <point x="192" y="589" type="line"/>
      <point x="284" y="639" type="line"/>
      <point x="217" y="708"/>
      <point x="164" y="740" type="qcurve"/>
      <point x="351" y="740" type="line"/>
      <point x="363" y="730"/>
      <point x="386" y="710"/>
      <point x="397" y="698" type="qcurve"/>
      <point x="496" y="751" type="line"/>
      <point x="527" y="690" type="line"/>
      <point x="444" y="646" type="line"/>
      <point x="533" y="518"/>
      <point x="533" y="345" type="qcurve" smooth="yes"/>
      <point x="533" y="261"/>
      <point x="490" y="128"/>
      <point x="413" y="36"/>
      <point x="305" y="-12"/>
    </contour>
  </outline>
</glyph>
<glyph name="Amacron" format="2">
  <advance width="654"/>
  <unicode hex="0100"/>
  <outline>
    <contour>
      <point x="393" y="572" type="line"/>
      <point x="386" y="572" type="line"/>
      <point x="253" y="290" type="line"/>
      <point x="416" y="290" type="line"/>
    </contour>
    <contour>
      <point x="288" y="787" type="line"/>
      <point x="307" y="886" type="line"/>
      <point x="585" y="886" type="line"/>
      <point x="565" y="787" type="line"/>
    </contour>
    <contour>
      <point x="443" y="0" type="line"/>
      <point x="426" y="174" type="line"/>
      <point x="198" y="174" type="line"/>
      <point x="114" y="0" type="line"/>
      <point x="-34" y="0" type="line"/>
      <point x="326" y="698" type="line"/>
      <point x="503" y="698" type="line"/>
      <point x="584" y="0" type="line"/>
    </contour>
  </outline>
</glyph>
<glyph name="aogonek" format="2">
  <advance width="590"/>
  <unicode hex="0105"/>
  <outline>
    <contour>
      <point x="420" y="-212" type="qcurve" smooth="yes"/>
      <point x="370" y="-212"/>
      <point x="303" y="-171"/>
      <point x="303" y="-129" type="qcurve" smooth="yes"/>
      <point x="303" y="-89"/>
      <point x="370" y="-25"/>
      <point x="440" y="-4" type="qcurve"/>
      <point x="440" y="-3"/>
      <point x="439" y="-1"/>
      <point x="439" y="0" type="qcurve"/>
      <point x="431" y="0" type="line" smooth="yes"/>
      <point x="394" y="0"/>
      <point x="345" y="39"/>
      <point x="345" y="75" type="qcurve" smooth="yes"/>
      <point x="345" y="88"/>
      <point x="349" y="111"/>
      <point x="351" y="121" type="qcurve"/>
      <point x="345" y="121" type="line"/>
      <point x="315" y="58"/>
      <point x="238" y="-12"/>
      <point x="175" y="-12" type="qcurve" smooth="yes"/>
      <point x="139" y="-12"/>
      <point x="85" y="16"/>
      <point x="50" y="65"/>
      <point x="33" y="132"/>
      <point x="33" y="171" type="qcurve" smooth="yes"/>
      <point x="33" y="253"/>
      <point x="72" y="387"/>
      <point x="138" y="482"/>
      <point x="225" y="535"/>
      <point x="274" y="536" type="qcurve"/>
      <point x="295" y="536"/>
      <point x="318" y="531" type="qcurve"/>
      <point x="356" y="521"/>
      <point x="403" y="470"/>
      <point x="409" y="434" type="qcurve"/>
      <point x="414" y="434" type="line"/>
      <point x="432" y="524" type="line"/>
      <point x="566" y="524" type="line"/>
      <point x="482" y="108" type="line"/>
      <point x="542" y="108" type="line"/>
      <point x="521" y="0" type="line"/>
      <point x="485" y="-22"/>
      <point x="438" y="-55"/>
      <point x="412" y="-81"/>
      <point x="402" y="-102"/>
      <point x="402" y="-112" type="qcurve" smooth="yes"/>
      <point x="402" y="-128"/>
      <point x="421" y="-141"/>
      <point x="437" y="-141" type="qcurve" smooth="yes"/>
      <point x="473" y="-141"/>
      <point x="491" y="-114" type="qcurve"/>
      <point x="542" y="-163" type="line"/>
      <point x="524" y="-186"/>
      <point x="466" y="-212"/>
    </contour>
    <contour>
      <point x="239" y="98" type="qcurve" smooth="yes"/>
      <point x="264" y="98"/>
      <point x="309" y="123"/>
      <point x="345" y="166"/>
      <point x="371" y="222"/>
      <point x="378" y="253" type="qcurve"/>
      <point x="396" y="346"/>
      <point x="396" y="355" type="qcurve" smooth="yes"/>
      <point x="396" y="389"/>
      <point x="344" y="426"/>
      <point x="309" y="426" type="qcurve" smooth="yes"/>
      <point x="260" y="426"/>
      <point x="227" y="391" type="qcurve" smooth="yes"/>
      <point x="210" y="373"/>
      <point x="189" y="306"/>
      <point x="175" y="240"/>
      <point x="170" y="189"/>
      <point x="170" y="186" type="qcurve" smooth="yes"/>
      <point x="170" y="144"/>
      <point x="202" y="98"/>
    </contour>
  </outline>
</glyph>
<glyph name="Cdot" format="2">
  <advance width="635"/>
  <unicode hex="010A"/>
  <outline>
    <contour>
      <point x="434" y="751" type="qcurve" smooth="yes"/>
      <point x="358" y="751"/>
      <point x="358" y="810" type="qcurve" smooth="yes"/>
      <point x="358" y="814"/>
      <point x="360" y="824" type="qcurve" smooth="yes"/>
      <point x="365" y="852" type="line"/>
      <point x="369" y="882"/>
      <point x="411" y="919"/>
      <point x="459" y="919" type="qcurve" smooth="yes"/>
      <point x="535" y="919"/>
      <point x="535" y="860" type="qcurve" smooth="yes"/>
      <point x="535" y="849"/>
      <point x="528" y="818" type="qcurve"/>
      <point x="524" y="788"/>
      <point x="482" y="751"/>
    </contour>
    <contour>
      <point x="306" y="-12" type="qcurve" smooth="yes"/>
      <point x="193" y="-12"/>
      <point x="126" y="60" type="qcurve"/>
      <point x="57" y="130"/>
      <point x="57" y="272" type="qcurve" smooth="yes"/>
      <point x="57" y="364"/>
      <point x="112" y="524"/>
      <point x="208" y="642"/>
      <point x="339" y="710"/>
      <point x="415" y="710" type="qcurve" smooth="yes"/>
      <point x="509" y="710"/>
      <point x="626" y="622"/>
      <point x="651" y="540" type="qcurve"/>
      <point x="522" y="486" type="line"/>
      <point x="511" y="528"/>
      <point x="460" y="581"/>
      <point x="404" y="581" type="qcurve" smooth="yes"/>
      <point x="334" y="581"/>
      <point x="247" y="487"/>
      <point x="231" y="406" type="qcurve" smooth="yes"/>
      <point x="209" y="296" type="line"/>
      <point x="207" y="281"/>
      <point x="204" y="256"/>
      <point x="204" y="246" type="qcurve" smooth="yes"/>
      <point x="204" y="117"/>
      <point x="319" y="117" type="qcurve" smooth="yes"/>
      <point x="379" y="117"/>
      <point x="450" y="173"/>
      <point x="472" y="221" type="qcurve"/>
      <point x="593" y="166" type="line"/>
      <point x="545" y="75"/>
      <point x="397" y="-12"/>
    </contour>
  </outline>
</glyph>
<glyph name="cdotaccent" format="2">
  <advance width="494"/>
  <unicode hex="010B"/>
  <outline>
    <contour>
      <point x="237" y="-12" type="qcurve" smooth="yes"/>
      <point x="146" y="-12"/>
      <point x="91" y="41" type="qcurve" smooth="yes"/>
      <point x="31" y="99"/>
      <point x="31" y="215" type="qcurve" smooth="yes"/>
      <point x="31" y="355"/>
      <point x="110" y="446" type="qcurve" smooth="yes"/>
      <point x="189" y="537"/>
      <point x="310" y="537" type="qcurve" smooth="yes"/>
      <point x="385" y="537"/>
      <point x="437" y="500" type="qcurve"/>
      <point x="486" y="463"/>
      <point x="498" y="401" type="qcurve"/>
      <point x="380" y="356" type="line"/>
      <point x="372" y="387"/>
      <point x="340" y="424"/>
      <point x="302" y="424" type="qcurve" smooth="yes"/>
      <point x="216" y="424"/>
      <point x="193" y="314" type="qcurve" smooth="yes"/>
      <point x="175" y="225" type="line" smooth="yes"/>
      <point x="170" y="200"/>
      <point x="170" y="183" type="qcurve" smooth="yes"/>
      <point x="170" y="101"/>
      <point x="249" y="101" type="qcurve" smooth="yes"/>
      <point x="290" y="101"/>
      <point x="332" y="147"/>
      <point x="353" y="184" type="qcurve"/>
      <point x="460" y="134" type="line"/>
      <point x="386" y="-12"/>
    </contour>
    <contour>
      <point x="327" y="591" type="qcurve" smooth="yes"/>
      <point x="251" y="591"/>
      <point x="251" y="650" type="qcurve" smooth="yes"/>
      <point x="251" y="654"/>
      <point x="253" y="664" type="qcurve" smooth="yes"/>
      <point x="258" y="692" type="line"/>
      <point x="262" y="722"/>
      <point x="304" y="759"/>
      <point x="352" y="759" type="qcurve" smooth="yes"/>
      <point x="428" y="759"/>
      <point x="428" y="700" type="qcurve" smooth="yes"/>
      <point x="428" y="689"/>
      <point x="421" y="658" type="qcurve"/>
      <point x="417" y="628"/>
      <point x="375" y="591"/>
    </contour>
  </outline>
</glyph>
<glyph name="Dcaron" format="2">
  <advance width="679"/>
  <unicode hex="010E"/>
  <outline>
    <contour>
      <point x="342" y="750" type="line"/>
      <point x="242" y="907" type="line"/>
      <point x="313" y="961" type="line"/>
      <point x="409" y="846" type="line"/>
      <point x="546" y="961" type="line"/>
      <point x="615" y="907" type="line"/>
      <point x="462" y="750" type="line"/>
    </contour>
    <contour>
      <point x="24" y="0" type="line"/>
      <point x="164" y="698" type="line"/>
      <point x="386" y="698" type="line" smooth="yes"/>
      <point x="510" y="698"/>
      <point x="651" y="565"/>
      <point x="651" y="436" type="qcurve" smooth="yes"/>
      <point x="651" y="345"/>
      <point x="603" y="186"/>
      <point x="510" y="68"/>
      <point x="374" y="0"/>
      <point x="287" y="0" type="qcurve" smooth="yes"/>
    </contour>
    <contour>
      <point x="298" y="122" type="line" smooth="yes"/>
      <point x="369" y="122"/>
      <point x="466" y="208"/>
      <point x="484" y="295" type="qcurve" smooth="yes"/>
      <point x="501" y="385" type="line" smooth="yes"/>
      <point x="505" y="404"/>
      <point x="508" y="425"/>
      <point x="510" y="438"/>
      <point x="510" y="442" type="qcurve"/>
      <point x="510" y="442"/>
      <point x="510" y="442" type="qcurve"/>
      <point x="510" y="442"/>
      <point x="510" y="443" type="qcurve"/>
      <point x="510" y="443"/>
      <point x="510" y="443" type="qcurve"/>
      <point x="510" y="443"/>
      <point x="510" y="443" type="qcurve"/>
      <point x="510" y="443"/>
      <point x="510" y="443" type="qcurve"/>
      <point x="510" y="443"/>
      <point x="510" y="443" type="qcurve"/>
      <point x="510" y="444" type="line"/>
      <point x="510" y="444"/>
      <point x="510" y="444" type="qcurve"/>
      <point x="510" y="444"/>
      <point x="510" y="444" type="qcurve"/>
      <point x="510" y="444"/>
      <point x="510" y="444" type="qcurve"/>
      <point x="510" y="444"/>
      <point x="510" y="444" type="qcurve"/>
      <point x="510" y="444"/>
      <point x="510" y="444" type="qcurve"/>
      <point x="510" y="444"/>
      <point x="510" y="444" type="qcurve"/>
      <point x="510" y="444"/>
      <point x="510" y="445" type="qcurve"/>
      <point x="510" y="445"/>
      <point x="510" y="445" type="qcurve"/>
      <point x="510" y="445"/>
      <point x="510" y="445" type="qcurve"/>
      <point x="510" y="445"/>
      <point x="510" y="445" type="qcurve"/>
      <point x="510" y="445"/>
      <point x="510" y="445" type="qcurve"/>
      <point x="510" y="445"/>
      <point x="510" y="445" type="qcurve"/>
      <point x="510" y="445"/>
      <point x="510" y="445" type="qcurve"/>
      <point x="510" y="445"/>
      <point x="510" y="445" type="qcurve"/>
      <point x="510" y="445"/>
      <point x="510" y="445" type="qcurve"/>
      <point x="510" y="445"/>
      <point x="510" y="445" type="qcurve"/>
      <point x="510" y="445"/>
      <point x="510" y="446" type="qcurve"/>
      <point x="510" y="446"/>
      <point x="510" y="446" type="qcurve"/>
      <point x="510" y="446"/>
      <point x="510" y="446" type="qcurve"/>
      <point x="510" y="446"/>
      <point x="510" y="446" type="qcurve"/>
      <point x="510" y="446"/>
      <point x="510" y="446" type="qcurve"/>
      <point x="510" y="452" type="line" smooth="yes"/>
      <point x="510" y="490"/>
      <point x="490" y="539"/>
      <point x="452" y="566"/>
      <point x="396" y="576"/>
      <point x="359" y="576" type="qcurve" smooth="yes"/>
      <point x="278" y="576" type="line"/>
      <point x="187" y="122" type="line"/>
    </contour>
    <contour>
      <point x="510" y="450" type="qcurve"/>
      <point x="510" y="450"/>
      <point x="510" y="450" type="qcurve"/>
      <point x="510" y="450"/>
      <point x="510" y="450" type="qcurve"/>
      <point x="510" y="450"/>
    </contour>
  </outline>
</glyph>
<glyph name="edot" format="2">
  <advance width="515"/>
  <unicode hex="0117"/>
  <outline>
    <contour>
      <point x="337" y="591" type="qcurve" smooth="yes"/>
      <point x="261" y="591"/>
      <point x="261" y="650" type="qcurve" smooth="yes"/>
      <point x="261" y="654"/>
      <point x="263" y="664" type="qcurve" smooth="yes"/>
      <point x="268" y="692" type="line"/>
      <point x="272" y="722"/>
      <point x="314" y="759"/>
      <point x="362" y="759" type="qcurve" smooth="yes"/>
      <point x="438" y="759"/>
      <point x="438" y="700" type="qcurve" smooth="yes"/>
      <point x="438" y="689"/>
      <point x="431" y="658" type="qcurve"/>
      <point x="427" y="628"/>
      <point x="385" y="591"/>
    </contour>
    <contour>
      <point x="253" y="-12" type="qcurve" smooth="yes"/>
      <point x="141" y="-12"/>
      <point x="31" y="108"/>
      <point x="31" y="214" type="qcurve" smooth="yes"/>
      <point x="31" y="339"/>
      <point x="108" y="439" type="qcurve"/>
      <point x="145" y="484"/>
      <point x="250" y="537"/>
      <point x="316" y="537" type="qcurve" smooth="yes"/>
      <point x="387" y="537"/>
      <point x="440" y="507" type="qcurve" smooth="yes"/>
      <point x="504" y="470"/>
      <point x="504" y="391" type="qcurve" smooth="yes"/>
      <point x="504" y="219"/>
      <point x="172" y="208" type="qcurve"/>
      <point x="171" y="204" type="line" smooth="yes"/>
      <point x="170" y="200"/>
      <point x="170" y="185" type="qcurve" smooth="yes"/>
      <point x="170" y="147"/>
      <point x="211" y="101"/>
      <point x="263" y="101" type="qcurve" smooth="yes"/>
      <point x="297" y="101"/>
      <point x="356" y="131"/>
      <point x="391" y="174" type="qcurve"/>
      <point x="477" y="106" type="line"/>
      <point x="429" y="42"/>
      <point x="322" y="-12"/>
    </contour>
    <contour>
      <point x="187" y="297" type="line"/>
      <point x="298" y="305"/>
      <point x="334" y="325" type="qcurve"/>
      <point x="354" y="335"/>
      <point x="368" y="361"/>
      <point x="368" y="377" type="qcurve" smooth="yes"/>
      <point x="368" y="430"/>
      <point x="308" y="430" type="qcurve" smooth="yes"/>
      <point x="263" y="430"/>
      <point x="201" y="372"/>
      <point x="191" y="320" type="qcurve" smooth="yes"/>
    </contour>
  </outline>
</glyph>
<glyph name="gbreve" format="2">
  <advance width="571"/>
  <unicode hex="011F"/>
  <outline>
    <contour>
      <point x="240" y="111" type="qcurve"/>
      <point x="267" y="111"/>
      <point x="314" y="139"/>
      <point x="350" y="183"/>
      <point x="374" y="238"/>
      <point x="379" y="265" type="qcurve" smooth="yes"/>
      <point x="387" y="305"/>
      <point x="395" y="348"/>
      <point x="395" y="352" type="qcurve" smooth="yes"/>
      <point x="395" y="364"/>
      <point x="386" y="391"/>
      <point x="365" y="412"/>
      <point x="332" y="426"/>
      <point x="308" y="426" type="qcurve" smooth="yes"/>
      <point x="261" y="426"/>
      <point x="199" y="365"/>
      <point x="189" y="305" type="qcurve"/>
      <point x="177" y="247" type="line"/>
      <point x="174" y="230"/>
      <point x="171" y="204"/>
      <point x="171" y="190" type="qcurve" smooth="yes"/>
      <point x="171" y="153"/>
      <point x="203" y="114"/>
    </contour>
    <contour>
      <point x="206" y="-212" type="qcurve" smooth="yes"/>
      <point x="140" y="-212"/>
      <point x="35" y="-170"/>
      <point x="-3" y="-119" type="qcurve"/>
      <point x="83" y="-41" type="line"/>
      <point x="103" y="-73"/>
      <point x="164" y="-104"/>
      <point x="202" y="-104" type="qcurve" smooth="yes"/>
      <point x="255" y="-104"/>
      <point x="317" y="-40"/>
      <point x="331" y="24" type="qcurve"/>
      <point x="353" y="134" type="line"/>
      <point x="347" y="134" type="line"/>
      <point x="318" y="71"/>
      <point x="239" y="1"/>
      <point x="176" y="1" type="qcurve" smooth="yes"/>
      <point x="140" y="1"/>
      <point x="87" y="28"/>
      <point x="52" y="77"/>
      <point x="35" y="144"/>
      <point x="35" y="184" type="qcurve" smooth="yes"/>
      <point x="35" y="263"/>
      <point x="71" y="393"/>
      <point x="135" y="485"/>
      <point x="224" y="536"/>
      <point x="277" y="536" type="qcurve" smooth="yes"/>
      <point x="331" y="536"/>
      <point x="401" y="481"/>
      <point x="408" y="434" type="qcurve"/>
      <point x="413" y="434" type="line"/>
      <point x="431" y="524" type="line"/>
      <point x="565" y="524" type="line"/>
      <point x="463" y="16" type="line"/>
      <point x="453" y="-39"/>
      <point x="414" y="-124"/>
      <point x="352" y="-182"/>
      <point x="265" y="-212"/>
    </contour>
    <contour>
      <point x="340" y="581" type="qcurve" smooth="yes"/>
      <point x="299" y="581"/>
      <point x="242" y="609"/>
      <point x="203" y="655"/>
      <point x="180" y="715"/>
      <point x="174" y="747" type="qcurve"/>
      <point x="250" y="787" type="line"/>
      <point x="262" y="761" type="line"/>
      <point x="262" y="760"/>
      <point x="263" y="759" type="qcurve"/>
      <point x="263" y="758" type="line"/>
      <point x="265" y="755"/>
      <point x="266" y="752" type="qcurve"/>
      <point x="268" y="750" type="line"/>
      <point x="268" y="749" type="line"/>
      <point x="269" y="748" type="line"/>
      <point x="269" y="746" type="line"/>
      <point x="270" y="745" type="line"/>
      <point x="270" y="744" type="line"/>
      <point x="272" y="741" type="line"/>
      <point x="273" y="738"/>
      <point x="274" y="736" type="qcurve"/>
      <point x="275" y="735" type="line"/>
      <point x="275" y="734"/>
      <point x="276" y="734" type="qcurve"/>
      <point x="276" y="732" type="line"/>
      <point x="277" y="730"/>
      <point x="279" y="728" type="qcurve"/>
      <point x="286" y="713"/>
      <point x="304" y="690"/>
      <point x="328" y="678"/>
      <point x="347" y="678" type="qcurve" smooth="yes"/>
      <point x="376" y="678"/>
      <point x="418" y="715"/>
      <point x="445" y="751" type="qcurve" smooth="yes"/>
      <point x="472" y="787" type="line"/>
      <point x="552" y="743" type="line"/>
      <point x="536" y="713"/>
      <point x="495" y="655"/>
      <point x="444" y="609"/>
      <point x="380" y="581"/>
    </contour>
  </outline>
</glyph>
<glyph name="Gcedilla" format="2">
  <advance width="632"/>
  <unicode hex="0122"/>
  <outline>
    <contour>
      <point x="626" y="385" type="line"/>
      <point x="603" y="266" type="line"/>
      <point x="589" y="213"/>
      <point x="547" y="113"/>
      <point x="473" y="35"/>
      <point x="359" y="-12"/>
      <point x="275" y="-12" type="qcurve" smooth="yes"/>
      <point x="221" y="-12"/>
      <point x="133" y="31"/>
      <point x="71" y="107"/>
      <point x="37" y="214"/>
      <point x="37" y="279" type="qcurve" smooth="yes"/>
      <point x="37" y="361"/>
      <point x="84" y="517"/>
      <point x="175" y="637"/>
      <point x="311" y="710"/>
      <point x="400" y="710" type="qcurve" smooth="yes"/>
      <point x="455" y="710"/>
      <point x="540" y="680"/>
      <point x="601" y="634"/>
      <point x="638" y="577"/>
      <point x="645" y="549" type="qcurve"/>
      <point x="527" y="496" type="line"/>
      <point x="524" y="512"/>
      <point x="507" y="547"/>
      <point x="476" y="576"/>
      <point x="426" y="595"/>
      <point x="390" y="595" type="qcurve" smooth="yes"/>
      <point x="351" y="595"/>
      <point x="289" y="567"/>
      <point x="242" y="517"/>
      <point x="211" y="448"/>
      <point x="203" y="408" type="qcurve" smooth="yes"/>
      <point x="189" y="336" type="line" smooth="yes"/>
      <point x="184" y="313"/>
      <point x="174" y="263"/>
      <point x="174" y="242" type="qcurve" smooth="yes"/>
      <point x="174" y="220"/>
      <point x="184" y="171"/>
      <point x="211" y="129"/>
      <point x="259" y="102"/>
      <point x="297" y="102" type="qcurve" smooth="yes"/>
      <point x="355" y="102"/>
      <point x="446" y="168"/>
      <point x="460" y="235" type="qcurve" smooth="yes"/>
      <point x="467" y="270" type="line"/>
      <point x="313" y="270" type="line"/>
      <point x="336" y="385" type="line"/>
    </contour>
    <contour>
      <point x="273" y="-42" type="qcurve" smooth="yes"/>
      <point x="336" y="-42"/>
      <point x="336" y="-93" type="qcurve" smooth="yes"/>
      <point x="336" y="-99"/>
      <point x="335" y="-109"/>
      <point x="333" y="-120" type="qcurve"/>
      <point x="328" y="-143"/>
      <point x="309" y="-188"/>
      <point x="284" y="-228"/>
      <point x="253" y="-263"/>
      <point x="237" y="-275" type="qcurve"/>
      <point x="154" y="-275" type="line"/>
      <point x="183" y="-253"/>
      <point x="221" y="-206"/>
      <point x="234" y="-176" type="qcurve"/>
      <point x="212" y="-174"/>
      <point x="195" y="-149"/>
      <point x="195" y="-131" type="qcurve" smooth="yes"/>
      <point x="195" y="-124"/>
      <point x="199" y="-104" type="qcurve" smooth="yes"/>
      <point x="205" y="-74"/>
      <point x="244" y="-42"/>
    </contour>
  </outline>
</glyph>
<glyph name="itilde" format="2">
  <advance width="279"/>
  <unicode hex="0129"/>
  <outline>
    <contour>
      <point x="122" y="0" type="line" smooth="yes"/>
      <point x="80" y="0"/>
      <point x="34" y="43"/>
      <point x="34" y="78" type="qcurve" smooth="yes"/>
      <point x="34" y="87"/>
      <point x="121" y="524" type="qcurve"/>
      <point x="255" y="524" type="line"/>
      <point x="171" y="108" type="line"/>
      <point x="231" y="108" type="line"/>
      <point x="210" y="0" type="line"/>
    </contour>
    <contour>
      <point x="283" y="602" type="qcurve" smooth="yes"/>
      <point x="253" y="602"/>
      <point x="201" y="627"/>
      <point x="175" y="637" type="qcurve" smooth="yes"/>
      <point x="164" y="641"/>
      <point x="145" y="646"/>
      <point x="136" y="646" type="qcurve" smooth="yes"/>
      <point x="117" y="646"/>
      <point x="95" y="632"/>
      <point x="78" y="620" type="qcurve"/>
      <point x="36" y="686" type="line"/>
      <point x="86" y="748"/>
      <point x="150" y="748" type="qcurve" smooth="yes"/>
      <point x="163" y="748"/>
      <point x="189" y="742"/>
      <point x="201" y="737" type="qcurve" smooth="yes"/>
      <point x="226" y="727"/>
      <point x="272" y="704"/>
      <point x="297" y="704" type="qcurve" smooth="yes"/>
      <point x="315" y="704"/>
      <point x="338" y="717"/>
      <point x="355" y="729" type="qcurve"/>
      <point x="396" y="663" type="line"/>
      <point x="347" y="602"/>
    </contour>
  </outline>
</glyph>
<glyph name="Ibreve" format="2">
  <advance width="292"/>
  <unicode hex="012C"/>
  <outline>
    <contour>
      <point x="162" y="0" type="line"/>
      <point x="24" y="0" type="line"/>
      <point x="164" y="698" type="line"/>
      <point x="303" y="698" type="line"/>
    </contour>
    <contour>
      <point x="246" y="742" type="qcurve" smooth="yes"/>
      <point x="208" y="742"/>
      <point x="150" y="771"/>
      <point x="109" y="817"/>
      <point x="84" y="877"/>
      <point x="79" y="908" type="qcurve"/>
      <point x="156" y="948" type="line"/>
      <point x="173" y="911" type="line" smooth="yes"/>
      <point x="188" y="876"/>
      <point x="222" y="839"/>
      <point x="253" y="839" type="qcurve" smooth="yes"/>
      <point x="284" y="839"/>
      <point x="329" y="881"/>
      <point x="359" y="923" type="qcurve"/>
      <point x="378" y="948" type="line"/>
      <point x="458" y="904" type="line"/>
      <point x="441" y="871"/>
      <point x="397" y="813"/>
      <point x="344" y="768"/>
      <point x="282" y="742"/>
    </contour>
  </outline>
</glyph>
<glyph name="Idotaccent" format="2">
  <advance width="295"/>
  <unicode hex="0130"/>
  <outline>
    <contour>
      <point x="167" y="0" type="line"/>
      <point x="22" y="0" type="line"/>
      <point x="163" y="698" type="line"/>
      <point x="308" y="698" type="line"/>
    </contour>
    <contour>
      <point x="250" y="751" type="qcurve" smooth="yes"/>
      <point x="174" y="751"/>
      <point x="174" y="810" type="qcurve" smooth="yes"/>
      <point x="174" y="814"/>
      <point x="176" y="824" type="qcurve" smooth="yes"/>
      <point x="181" y="852" type="line"/>
      <point x="185" y="882"/>
      <point x="227" y="919"/>
      <point x="275" y="919" type="qcurve" smooth="yes"/>
      <point x="351" y="919"/>
      <point x="351" y="860" type="qcurve" smooth="yes"/>
      <point x="351" y="849"/>
      <point x="344" y="818" type="qcurve"/>
      <point x="340" y="788"/>
      <point x="298" y="751"/>
    </contour>
  </outline>
</glyph>
<glyph name="Jcircumflex" format="2">
  <advance width="532"/>
  <unicode hex="0134"/>
  <outline>
    <contour>
      <point x="211" y="-11" type="qcurve" smooth="yes"/>
      <point x="161" y="-11"/>
      <point x="88" y="17"/>
      <point x="37" y="68"/>
      <point x="9" y="136"/>
      <point x="5" y="177" type="qcurve"/>
      <point x="137" y="204" type="line"/>
      <point x="139" y="162"/>
      <point x="173" y="110"/>
      <point x="211" y="110" type="qcurve" smooth="yes"/>
      <point x="245" y="110"/>
      <point x="295" y="153"/>
      <point x="306" y="204" type="qcurve" smooth="yes"/>
      <point x="404" y="698" type="line"/>
      <point x="544" y="698" type="line"/>
      <point x="441" y="190" type="line" smooth="yes"/>
      <point x="423" y="99"/>
      <point x="310" y="-11"/>
    </contour>
    <contour>
      <point x="151" y="796" type="line"/>
      <point x="305" y="952" type="line"/>
      <point x="425" y="952" type="line"/>
      <point x="523" y="796" type="line"/>
      <point x="451" y="741" type="line"/>
      <point x="353" y="856" type="line"/>
      <point x="218" y="741" type="line"/>
    </contour>
  </outline>
</glyph>
<glyph name="u0136" format="2">
  <advance width="657"/>
  <unicode hex="0136"/>
  <outline>
    <contour>
      <point x="167" y="-275" type="line"/>
      <point x="221" y="-236"/>
      <point x="247" y="-176" type="qcurve"/>
      <point x="224" y="-173"/>
      <point x="208" y="-149"/>
      <point x="208" y="-131" type="qcurve" smooth="yes"/>
      <point x="208" y="-121"/>
      <point x="212" y="-104" type="qcurve"/>
      <point x="229" y="-42"/>
      <point x="286" y="-42" type="qcurve" smooth="yes"/>
      <point x="349" y="-42"/>
      <point x="349" y="-93" type="qcurve" smooth="yes"/>
      <point x="349" y="-105"/>
      <point x="346" y="-120" type="qcurve"/>
      <point x="322" y="-219"/>
      <point x="250" y="-275" type="qcurve"/>
    </contour>
    <contour>
      <point x="436" y="0" type="line"/>
      <point x="319" y="299" type="line"/>
      <point x="203" y="179" type="line"/>
      <point x="167" y="0" type="line"/>
      <point x="22" y="0" type="line"/>
      <point x="162" y="698" type="line"/>
      <point x="307" y="698" type="line"/>
      <point x="240" y="364" type="line"/>
      <point x="247" y="364" type="line"/>
      <point x="357" y="495" type="line"/>
      <point x="545" y="698" type="line"/>
      <point x="721" y="698" type="line"/>
      <point x="433" y="398" type="line"/>
      <point x="596" y="0" type="line"/>
    </contour>
  </outline>
</glyph>
<glyph name="lcommaaccent" format="2">
  <advance width="281"/>
  <unicode hex="013C"/>
  <outline>
    <contour>
      <point x="-1" y="-275" type="line"/>
      <point x="53" y="-236"/>
      <point x="79" y="-176" type="qcurve"/>
      <point x="56" y="-173"/>
      <point x="40" y="-149"/>
      <point x="40" y="-131" type="qcurve" smooth="yes"/>
      <point x="40" y="-121"/>
      <point x="44" y="-104" type="qcurve"/>
      <point x="61" y="-42"/>
      <point x="118" y="-42" type="qcurve" smooth="yes"/>
      <point x="181" y="-42"/>
      <point x="181" y="-93" type="qcurve" smooth="yes"/>
      <point x="181" y="-105"/>
      <point x="178" y="-120" type="qcurve"/>
      <point x="154" y="-219"/>
      <point x="82" y="-275" type="qcurve"/>
    </contour>
    <contour>
      <point x="122" y="0" type="line" smooth="yes"/>
      <point x="80" y="0"/>
      <point x="32" y="44"/>
      <point x="32" y="80" type="qcurve" smooth="yes"/>
      <point x="32" y="93"/>
      <point x="162" y="740" type="qcurve"/>
      <point x="302" y="740" type="line"/>
      <point x="176" y="112" type="line"/>
      <point x="238" y="112" type="line"/>
      <point x="216" y="0" type="line"/>
    </contour>
  </outline>
</glyph>
<glyph name="lcaron" format="2">
  <advance width="341"/>
  <unicode hex="013E"/>
  <outline>
    <contour>
      <point x="122" y="0" type="line" smooth="yes"/>
      <point x="81" y="0"/>
      <point x="34" y="42"/>
      <point x="34" y="78" type="qcurve" smooth="yes"/>
      <point x="34" y="91"/>
      <point x="164" y="740" type="qcurve"/>
      <point x="298" y="740" type="line"/>
      <point x="171" y="108" type="line"/>
      <point x="235" y="108" type="line"/>
      <point x="214" y="0" type="line"/>
    </contour>
    <contour>
      <point x="316" y="528" type="line"/>
      <point x="364" y="740" type="line"/>
      <point x="514" y="740" type="line"/>
      <point x="408" y="528" type="line"/>
    </contour>
  </outline>
</glyph>
<glyph name="Nacute" format="2">
  <advance width="698"/>
  <unicode hex="0143"/>
  <outline>
    <contour>
      <point x="383" y="785" type="line"/>
      <point x="500" y="972" type="line"/>
      <point x="608" y="915" type="line"/>
      <point x="463" y="741" type="line"/>
    </contour>
    <contour>
      <point x="418" y="0" type="line"/>
      <point x="301" y="344" type="line"/>
      <point x="258" y="486" type="line"/>
      <point x="252" y="486" type="line"/>
      <point x="155" y="0" type="line"/>
      <point x="24" y="0" type="line"/>
      <point x="164" y="698" type="line"/>
      <point x="314" y="698" type="line"/>
      <point x="431" y="354" type="line"/>
      <point x="475" y="212" type="line"/>
      <point x="480" y="212" type="line"/>
      <point x="578" y="698" type="line"/>
      <point x="709" y="698" type="line"/>
      <point x="569" y="0" type="line"/>
    </contour>
  </outline>
</glyph>
<glyph name="Ncedilla" format="2">
  <advance width="700"/>
  <unicode hex="0145"/>
  <outline>
    <contour>
      <point x="415" y="0" type="line"/>
      <point x="302" y="336" type="line"/>
      <point x="260" y="475" type="line"/>
      <point x="254" y="475" type="line"/>
      <point x="159" y="0" type="line"/>
      <point x="22" y="0" type="line"/>
      <point x="162" y="698" type="line"/>
      <point x="319" y="698" type="line"/>
      <point x="432" y="362" type="line"/>
      <point x="474" y="223" type="line"/>
      <point x="480" y="223" type="line"/>
      <point x="575" y="698" type="line"/>
      <point x="712" y="698" type="line"/>
      <point x="572" y="0" type="line"/>
    </contour>
    <contour>
      <point x="167" y="-275" type="line"/>
      <point x="221" y="-236"/>
      <point x="247" y="-176" type="qcurve"/>
      <point x="224" y="-173"/>
      <point x="208" y="-149"/>
      <point x="208" y="-131" type="qcurve" smooth="yes"/>
      <point x="208" y="-121"/>
      <point x="212" y="-104" type="qcurve"/>
      <point x="229" y="-42"/>
      <point x="286" y="-42" type="qcurve" smooth="yes"/>
      <point x="349" y="-42"/>
      <point x="349" y="-93" type="qcurve" smooth="yes"/>
      <point x="349" y="-105"/>
      <point x="346" y="-120" type="qcurve"/>
      <point x="322" y="-219"/>
      <point x="250" y="-275" type="qcurve"/>
    </contour>
  </outline>
</glyph>
<glyph name="u0146" format="2">
  <advance width="588"/>
  <unicode hex="0146"/>
  <outline>
    <contour>
      <point x="133" y="-275" type="line"/>
      <point x="187" y="-236"/>
      <point x="213" y="-176" type="qcurve"/>
      <point x="190" y="-173"/>
      <point x="174" y="-149"/>
      <point x="174" y="-131" type="qcurve" smooth="yes"/>
      <point x="174" y="-121"/>
      <point x="178" y="-104" type="qcurve"/>
      <point x="195" y="-42"/>
      <point x="252" y="-42" type="qcurve" smooth="yes"/>
      <point x="315" y="-42"/>
      <point x="315" y="-93" type="qcurve" smooth="yes"/>
      <point x="315" y="-105"/>
      <point x="312" y="-120" type="qcurve"/>
      <point x="288" y="-219"/>
      <point x="216" y="-275" type="qcurve"/>
    </contour>
    <contour>
      <point x="429" y="0" type="line" smooth="yes"/>
      <point x="389" y="0"/>
      <point x="345" y="41"/>
      <point x="345" y="76" type="qcurve" smooth="yes"/>
      <point x="345" y="89"/>
      <point x="369" y="208" type="qcurve" smooth="yes"/>
      <point x="396" y="338"/>
      <point x="396" y="368" type="qcurve" smooth="yes"/>
      <point x="396" y="420"/>
      <point x="343" y="420" type="qcurve" smooth="yes"/>
      <point x="298" y="420"/>
      <point x="258" y="372" type="qcurve"/>
      <point x="222" y="331"/>
      <point x="208" y="270" type="qcurve"/>
      <point x="154" y="0" type="line"/>
      <point x="14" y="0" type="line"/>
      <point x="119" y="525" type="line"/>
      <point x="259" y="525" type="line"/>
      <point x="235" y="403" type="line"/>
      <point x="241" y="403" type="line"/>
      <point x="270" y="467"/>
      <point x="352" y="537"/>
      <point x="415" y="537" type="qcurve" smooth="yes"/>
      <point x="476" y="537"/>
      <point x="541" y="467"/>
      <point x="541" y="401" type="qcurve" smooth="yes"/>
      <point x="541" y="364"/>
      <point x="532" y="327" type="qcurve"/>
      <point x="489" y="112" type="line"/>
      <point x="542" y="112" type="line"/>
      <point x="520" y="0" type="line"/>
    </contour>
  </outline>
</glyph>
<glyph name="Obreve" format="2">
  <advance width="693"/>
  <unicode hex="014E"/>
  <outline>
    <contour>
      <point x="317" y="111" type="qcurve" smooth="yes"/>
      <point x="392" y="111"/>
      <point x="489" y="218"/>
      <point x="504" y="315" type="qcurve"/>
      <point x="521" y="400" type="line"/>
      <point x="523" y="416"/>
      <point x="526" y="442"/>
      <point x="526" y="454" type="qcurve" smooth="yes"/>
      <point x="526" y="519"/>
      <point x="467" y="587"/>
      <point x="406" y="587" type="qcurve" smooth="yes"/>
      <point x="331" y="587"/>
      <point x="234" y="478"/>
      <point x="220" y="383" type="qcurve"/>
      <point x="202" y="298" type="line"/>
      <point x="200" y="283"/>
      <point x="197" y="256"/>
      <point x="197" y="244" type="qcurve" smooth="yes"/>
      <point x="197" y="179"/>
      <point x="256" y="111"/>
    </contour>
    <contour>
      <point x="307" y="-12" type="qcurve" smooth="yes"/>
      <point x="252" y="-12"/>
      <point x="160" y="25"/>
      <point x="94" y="97"/>
      <point x="57" y="202"/>
      <point x="57" y="270" type="qcurve" smooth="yes"/>
      <point x="57" y="354"/>
      <point x="108" y="513"/>
      <point x="201" y="636"/>
      <point x="334" y="710"/>
      <point x="416" y="710" type="qcurve" smooth="yes"/>
      <point x="474" y="710"/>
      <point x="566" y="671"/>
      <point x="631" y="599"/>
      <point x="666" y="494"/>
      <point x="666" y="428" type="qcurve" smooth="yes"/>
      <point x="666" y="343"/>
      <point x="615" y="185"/>
      <point x="521" y="62"/>
      <point x="389" y="-12"/>
    </contour>
    <contour>
      <point x="448" y="742" type="qcurve" smooth="yes"/>
      <point x="410" y="742"/>
      <point x="352" y="771"/>
      <point x="311" y="817"/>
      <point x="286" y="877"/>
      <point x="282" y="908" type="qcurve"/>
      <point x="359" y="948" type="line"/>
      <point x="376" y="911" type="line" smooth="yes"/>
      <point x="391" y="876"/>
      <point x="425" y="839"/>
      <point x="456" y="839" type="qcurve" smooth="yes"/>
      <point x="486" y="839"/>
      <point x="532" y="881"/>
      <point x="562" y="923" type="qcurve"/>
      <point x="581" y="948" type="line"/>
      <point x="660" y="904" type="line"/>
      <point x="643" y="871"/>
      <point x="600" y="813"/>
      <point x="547" y="768"/>
      <point x="484" y="742"/>
    </contour>
  </outline>
</glyph>
<glyph name="odblacute" format="2">
  <advance width="542"/>
  <unicode hex="0151"/>
  <outline>
    <contour>
      <point x="167" y="618" type="line"/>
      <point x="280" y="811" type="line"/>
      <point x="385" y="755" type="line"/>
      <point x="244" y="580" type="line"/>
    </contour>
    <contour>
      <point x="363" y="618" type="line"/>
      <point x="476" y="811" type="line"/>
      <point x="581" y="755" type="line"/>
      <point x="439" y="580" type="line"/>
    </contour>
    <contour>
      <point x="240" y="-12" type="qcurve" smooth="yes"/>
      <point x="143" y="-12"/>
      <point x="31" y="102"/>
      <point x="31" y="207" type="qcurve" smooth="yes"/>
      <point x="31" y="351"/>
      <point x="107" y="443" type="qcurve" smooth="yes"/>
      <point x="183" y="537"/>
      <point x="302" y="537" type="qcurve" smooth="yes"/>
      <point x="399" y="537"/>
      <point x="511" y="423"/>
      <point x="511" y="318" type="qcurve" smooth="yes"/>
      <point x="511" y="176"/>
      <point x="433" y="82" type="qcurve" smooth="yes"/>
      <point x="357" y="-12"/>
    </contour>
    <contour>
      <point x="245" y="101" type="qcurve" smooth="yes"/>
      <point x="328" y="101"/>
      <point x="350" y="216" type="qcurve" smooth="yes"/>
      <point x="369" y="308"/>
      <point x="369" y="313" type="qcurve"/>
      <point x="372" y="323"/>
      <point x="372" y="341" type="qcurve"/>
      <point x="370" y="424"/>
      <point x="297" y="424" type="qcurve" smooth="yes"/>
      <point x="214" y="424"/>
      <point x="192" y="309" type="qcurve" smooth="yes"/>
      <point x="173" y="217"/>
      <point x="173" y="212" type="qcurve"/>
      <point x="170" y="201"/>
      <point x="170" y="184" type="qcurve"/>
      <point x="172" y="101"/>
    </contour>
  </outline>
</glyph>
<glyph name="OE" format="2">
  <advance width="955"/>
  <unicode hex="0152"/>
  <outline>
    <contour>
      <point x="394" y="-1" type="line"/>
      <point x="367" y="-6"/>
      <point x="318" y="-12"/>
      <point x="302" y="-12" type="qcurve" smooth="yes"/>
      <point x="187" y="-12"/>
      <point x="57" y="141"/>
      <point x="57" y="282" type="qcurve" smooth="yes"/>
      <point x="57" y="372"/>
      <point x="110" y="528"/>
      <point x="206" y="643"/>
      <point x="339" y="710"/>
      <point x="419" y="710" type="qcurve" smooth="yes"/>
      <point x="451" y="710"/>
      <point x="513" y="703"/>
      <point x="547" y="698" type="qcurve"/>
      <point x="987" y="698" type="line"/>
      <point x="962" y="576" type="line"/>
      <point x="657" y="576" type="line"/>
      <point x="624" y="414" type="line"/>
      <point x="895" y="414" type="line"/>
      <point x="870" y="292" type="line"/>
      <point x="599" y="292" type="line"/>
      <point x="566" y="122" type="line"/>
      <point x="883" y="122" type="line"/>
      <point x="858" y="0" type="line"/>
      <point x="457" y="0" type="line"/>
      <point x="440" y="-1"/>
      <point x="425" y="-1" type="qcurve"/>
      <point x="425" y="-1"/>
      <point x="425" y="-1" type="qcurve"/>
      <point x="425" y="-1"/>
      <point x="425" y="-1" type="qcurve"/>
      <point x="425" y="-1"/>
      <point x="424" y="-1" type="qcurve"/>
      <point x="424" y="-1"/>
      <point x="424" y="-1" type="qcurve"/>
      <point x="424" y="-1"/>
      <point x="424" y="-1" type="qcurve"/>
      <point x="424" y="-1"/>
      <point x="424" y="-1" type="qcurve"/>
      <point x="422" y="-1" type="line"/>
      <point x="422" y="-1"/>
      <point x="422" y="-1" type="qcurve"/>
      <point x="422" y="-1"/>
      <point x="421" y="-1" type="qcurve"/>
      <point x="421" y="-1"/>
      <point x="421" y="-1" type="qcurve"/>
      <point x="421" y="-1"/>
      <point x="421" y="-1" type="qcurve"/>
      <point x="421" y="-1"/>
      <point x="421" y="-1" type="qcurve"/>
      <point x="421" y="-1"/>
      <point x="421" y="-1" type="qcurve"/>
      <point x="417" y="-1" type="line"/>
      <point x="417" y="-1"/>
      <point x="417" y="-1" type="qcurve"/>
      <point x="417" y="-1"/>
      <point x="417" y="-1" type="qcurve"/>
      <point x="417" y="-1"/>
      <point x="416" y="-1" type="qcurve"/>
      <point x="416" y="-1"/>
      <point x="416" y="-1" type="qcurve"/>
      <point x="416" y="-1"/>
      <point x="416" y="-1" type="qcurve"/>
      <point x="416" y="-1"/>
      <point x="416" y="-1" type="qcurve"/>
      <point x="415" y="-1" type="line"/>
      <point x="415" y="-1"/>
      <point x="415" y="-1" type="qcurve"/>
      <point x="415" y="-1"/>
      <point x="415" y="-1" type="qcurve"/>
      <point x="415" y="-1"/>
      <point x="414" y="-1" type="qcurve"/>
      <point x="414" y="-1"/>
      <point x="414" y="-1" type="qcurve"/>
      <point x="414" y="-1"/>
      <point x="414" y="-1" type="qcurve"/>
      <point x="414" y="-1"/>
      <point x="414" y="-1" type="qcurve"/>
      <point x="413" y="-1" type="line"/>
      <point x="413" y="-1"/>
      <point x="413" y="-1" type="qcurve"/>
      <point x="413" y="-1"/>
      <point x="413" y="-1" type="qcurve"/>
      <point x="413" y="-1"/>
      <point x="412" y="-1" type="qcurve"/>
      <point x="412" y="-1"/>
      <point x="412" y="-1" type="qcurve"/>
      <point x="412" y="-1"/>
      <point x="412" y="-1" type="qcurve"/>
      <point x="412" y="-1"/>
      <point x="412" y="-1" type="qcurve"/>
      <point x="411" y="-1" type="line"/>
      <point x="411" y="-1"/>
      <point x="411" y="-1" type="qcurve"/>
      <point x="411" y="-1"/>
      <point x="411" y="-1" type="qcurve"/>
      <point x="411" y="-1"/>
      <point x="410" y="-1" type="qcurve"/>
      <point x="410" y="-1"/>
      <point x="410" y="-1" type="qcurve"/>
      <point x="410" y="-1"/>
      <point x="410" y="-1" type="qcurve"/>
      <point x="410" y="-1"/>
      <point x="410" y="-1" type="qcurve"/>
    </contour>
    <contour>
      <point x="332" y="111" type="qcurve" smooth="yes"/>
      <point x="353" y="111"/>
      <point x="399" y="117"/>
      <point x="427" y="125" type="qcurve"/>
      <point x="517" y="573" type="line"/>
      <point x="467" y="587"/>
      <point x="414" y="587" type="qcurve" smooth="yes"/>
      <point x="259" y="587"/>
      <point x="224" y="402" type="qcurve" smooth="yes"/>
      <point x="206" y="311" type="line" smooth="yes"/>
      <point x="202" y="291"/>
      <point x="198" y="272"/>
      <point x="197" y="265"/>
      <point x="197" y="262" type="qcurve" smooth="yes"/>
      <point x="197" y="260"/>
      <point x="198" y="255"/>
      <point x="198" y="247" type="qcurve" smooth="yes"/>
      <point x="198" y="184"/>
      <point x="263" y="111"/>
    </contour>
  </outline>
</glyph>
<glyph name="Racute" format="2">
  <advance width="652"/>
  <unicode hex="0154"/>
  <outline>
    <contour>
      <point x="334" y="785" type="line"/>
      <point x="452" y="972" type="line"/>
      <point x="560" y="915" type="line"/>
      <point x="415" y="741" type="line"/>
    </contour>
    <contour>
      <point x="406" y="0" type="line"/>
      <point x="334" y="263" type="line"/>
      <point x="215" y="263" type="line"/>
      <point x="162" y="0" type="line"/>
      <point x="24" y="0" type="line"/>
      <point x="164" y="698" type="line"/>
      <point x="433" y="698" type="line" smooth="yes"/>
      <point x="532" y="698"/>
      <point x="641" y="605"/>
      <point x="641" y="519" type="qcurve" smooth="yes"/>
      <point x="641" y="480"/>
      <point x="618" y="405"/>
      <point x="574" y="342"/>
      <point x="509" y="292"/>
      <point x="468" y="279" type="qcurve"/>
      <point x="554" y="0" type="line"/>
    </contour>
    <contour>
      <point x="392" y="382" type="line" smooth="yes"/>
      <point x="429" y="382"/>
      <point x="477" y="421"/>
      <point x="486" y="457" type="qcurve"/>
      <point x="494" y="496" type="line" smooth="yes"/>
      <point x="497" y="509"/>
      <point x="497" y="519" type="qcurve" smooth="yes"/>
      <point x="497" y="544"/>
      <point x="465" y="576"/>
      <point x="430" y="576" type="qcurve" smooth="yes"/>
      <point x="277" y="576" type="line"/>
      <point x="239" y="382" type="line"/>
    </contour>
  </outline>
</glyph>
<glyph name="u0156" format="2">
  <advance width="655"/>
  <unicode hex="0156"/>
  <outline>
    <contour>
      <point x="393" y="383" type="line" smooth="yes"/>
      <point x="427" y="383"/>
      <point x="475" y="419"/>
      <point x="484" y="456" type="qcurve" smooth="yes"/>
      <point x="495" y="502"/>
      <point x="495" y="516" type="qcurve" smooth="yes"/>
      <point x="495" y="539"/>
      <point x="464" y="570"/>
      <point x="431" y="570" type="qcurve" smooth="yes"/>
      <point x="281" y="570" type="line"/>
      <point x="244" y="383" type="line"/>
    </contour>
    <contour>
      <point x="154" y="-275" type="line"/>
      <point x="208" y="-236"/>
      <point x="234" y="-176" type="qcurve"/>
      <point x="211" y="-173"/>
      <point x="195" y="-149"/>
      <point x="195" y="-131" type="qcurve" smooth="yes"/>
      <point x="195" y="-121"/>
      <point x="199" y="-104" type="qcurve"/>
      <point x="216" y="-42"/>
      <point x="273" y="-42" type="qcurve" smooth="yes"/>
      <point x="336" y="-42"/>
      <point x="336" y="-93" type="qcurve" smooth="yes"/>
      <point x="336" y="-105"/>
      <point x="333" y="-120" type="qcurve"/>
      <point x="309" y="-219"/>
      <point x="237" y="-275" type="qcurve"/>
    </contour>
    <contour>
      <point x="403" y="0" type="line"/>
      <point x="334" y="259" type="line"/>
      <point x="219" y="259" type="line"/>
      <point x="167" y="0" type="line"/>
      <point x="22" y="0" type="line"/>
      <point x="162" y="698" type="line"/>
      <point x="434" y="698" type="line" smooth="yes"/>
      <point x="534" y="698"/>
      <point x="645" y="605"/>
      <point x="645" y="518" type="qcurve" smooth="yes"/>
      <point x="645" y="440"/>
      <point x="601" y="372" type="qcurve" smooth="yes"/>
      <point x="557" y="304"/>
      <point x="474" y="276" type="qcurve"/>
      <point x="558" y="0" type="line"/>
    </contour>
  </outline>
</glyph>
<glyph name="rcommaaccent" format="2">
  <advance width="394"/>
  <unicode hex="0157"/>
  <outline>
    <contour>
      <point x="-47" y="-275" type="line"/>
      <point x="7" y="-236"/>
      <point x="33" y="-176" type="qcurve"/>
      <point x="10" y="-173"/>
      <point x="-6" y="-149"/>
      <point x="-6" y="-131" type="qcurve" smooth="yes"/>
      <point x="-6" y="-121"/>
      <point x="-2" y="-104" type="qcurve"/>
      <point x="15" y="-42"/>
      <point x="72" y="-42" type="qcurve" smooth="yes"/>
      <point x="135" y="-42"/>
      <point x="135" y="-93" type="qcurve" smooth="yes"/>
      <point x="135" y="-105"/>
      <point x="132" y="-120" type="qcurve"/>
      <point x="108" y="-219"/>
      <point x="36" y="-275" type="qcurve"/>
    </contour>
    <contour>
      <point x="14" y="0" type="line"/>
      <point x="119" y="525" type="line"/>
      <point x="259" y="525" type="line"/>
      <point x="233" y="394" type="line"/>
      <point x="240" y="394" type="line"/>
      <point x="256" y="440"/>
      <point x="297" y="481" type="qcurve" smooth="yes"/>
      <point x="343" y="525"/>
      <point x="397" y="525" type="qcurve" smooth="yes"/>
      <point x="422" y="525" type="line"/>
      <point x="394" y="389" type="line"/>
      <point x="359" y="389" type="line" smooth="yes"/>
      <point x="292" y="389"/>
      <point x="221" y="339"/>
      <point x="209" y="276" type="qcurve" smooth="yes"/>
      <point x="154" y="0" type="line"/>
    </contour>
  </outline>
</glyph>
<glyph name="rcaron" format="2">
  <advance width="391"/>
  <unicode hex="0159"/>
  <outline>
    <contour>
      <point x="16" y="0" type="line"/>
      <point x="121" y="524" type="line"/>
      <point x="255" y="524" type="line"/>
      <point x="229" y="396" type="line"/>
      <point x="236" y="396" type="line"/>
      <point x="245" y="419"/>
      <point x="275" y="465"/>
      <point x="315" y="501"/>
      <point x="365" y="524"/>
      <point x="394" y="524" type="qcurve" smooth="yes"/>
      <point x="418" y="524" type="line"/>
      <point x="392" y="394" type="line"/>
      <point x="357" y="394" type="line" smooth="yes"/>
      <point x="289" y="394"/>
      <point x="218" y="342"/>
      <point x="206" y="279" type="qcurve" smooth="yes"/>
      <point x="150" y="0" type="line"/>
    </contour>
    <contour>
      <point x="206" y="589" type="line"/>
      <point x="107" y="746" type="line"/>
      <point x="178" y="800" type="line"/>
      <point x="273" y="685" type="line"/>
      <point x="410" y="800" type="line"/>
      <point x="479" y="746" type="line"/>
      <point x="326" y="589" type="line"/>
    </contour>
  </outline>
</glyph>
<glyph name="Sacute" format="2">
  <advance width="601"/>
  <unicode hex="015A"/>
  <outline>
    <contour>
      <point x="318" y="797" type="line"/>
      <point x="435" y="985" type="line"/>
      <point x="543" y="928" type="line"/>
      <point x="398" y="753" type="line"/>
    </contour>
    <contour>
      <point x="72" y="489" type="qcurve"/>
      <point x="71" y="499"/>
      <point x="71" y="509" type="qcurve" smooth="yes"/>
      <point x="71" y="517"/>
      <point x="73" y="542"/>
      <point x="78" y="561" type="qcurve" smooth="yes"/>
      <point x="88" y="598"/>
      <point x="134" y="654"/>
      <point x="200" y="692"/>
      <point x="283" y="710"/>
      <point x="329" y="710" type="qcurve" smooth="yes"/>
      <point x="407" y="710"/>
      <point x="529" y="660"/>
      <point x="569" y="610" type="qcurve"/>
      <point x="472" y="514" type="line"/>
      <point x="416" y="582"/>
      <point x="320" y="582" type="qcurve" smooth="yes"/>
      <point x="269" y="582"/>
      <point x="217" y="548"/>
      <point x="216" y="510" type="qcurve"/>
      <point x="216" y="510"/>
      <point x="216" y="510" type="qcurve"/>
      <point x="216" y="510"/>
      <point x="216" y="510" type="qcurve"/>
      <point x="216" y="510"/>
      <point x="216" y="510" type="qcurve"/>
      <point x="216" y="510"/>
      <point x="216" y="510" type="qcurve"/>
      <point x="216" y="510"/>
      <point x="216" y="510" type="qcurve"/>
      <point x="216" y="509" type="line"/>
      <point x="216" y="509"/>
      <point x="216" y="509" type="qcurve"/>
      <point x="216" y="507" type="line" smooth="yes"/>
      <point x="216" y="482"/>
      <point x="253" y="447"/>
      <point x="288" y="433" type="qcurve" smooth="yes"/>
      <point x="352" y="409" type="line" smooth="yes"/>
      <point x="403" y="390"/>
      <point x="469" y="346"/>
      <point x="508" y="296"/>
      <point x="523" y="242"/>
      <point x="523" y="214" type="qcurve"/>
      <point x="522" y="160"/>
      <point x="482" y="75"/>
      <point x="411" y="18"/>
      <point x="313" y="-12"/>
      <point x="253" y="-12" type="qcurve" smooth="yes"/>
      <point x="171" y="-12"/>
      <point x="38" y="45"/>
      <point x="-10" y="102" type="qcurve"/>
      <point x="86" y="198" type="line"/>
      <point x="156" y="116"/>
      <point x="263" y="116" type="qcurve" smooth="yes"/>
      <point x="376" y="116"/>
      <point x="376" y="205" type="qcurve" smooth="yes"/>
      <point x="376" y="233"/>
      <point x="341" y="266"/>
      <point x="306" y="281" type="qcurve"/>
      <point x="250" y="300"/>
      <point x="164" y="339"/>
      <point x="105" y="387"/>
      <point x="73" y="448"/>
    </contour>
    <contour>
      <point x="216" y="510" type="qcurve"/>
      <point x="216" y="510"/>
      <point x="216" y="510" type="qcurve"/>
      <point x="216" y="510"/>
      <point x="216" y="510" type="qcurve"/>
      <point x="216" y="510"/>
    </contour>
  </outline>
</glyph>
<glyph name="sacute" format="2">
  <advance width="502"/>
  <unicode hex="015B"/>
  <outline>
    <contour>
      <point x="226" y="-12" type="qcurve" smooth="yes"/>
      <point x="90" y="-12"/>
      <point x="7" y="83" type="qcurve"/>
      <point x="91" y="166" type="line"/>
      <point x="151" y="98"/>
      <point x="231" y="98" type="qcurve" smooth="yes"/>
      <point x="302" y="99"/>
      <point x="311" y="140" type="qcurve"/>
      <point x="311" y="160"/>
      <point x="289" y="186"/>
      <point x="262" y="197" type="qcurve"/>
      <point x="210" y="215" type="line"/>
      <point x="68" y="260"/>
      <point x="65" y="367" type="qcurve"/>
      <point x="65" y="445"/>
      <point x="174" y="536"/>
      <point x="267" y="536" type="qcurve" smooth="yes"/>
      <point x="306" y="536"/>
      <point x="366" y="526"/>
      <point x="415" y="505"/>
      <point x="457" y="474"/>
      <point x="477" y="454" type="qcurve"/>
      <point x="395" y="371" type="line"/>
      <point x="340" y="426"/>
      <point x="273" y="426" type="qcurve" smooth="yes"/>
      <point x="238" y="426"/>
      <point x="202" y="401"/>
      <point x="202" y="378" type="qcurve" smooth="yes"/>
      <point x="202" y="345"/>
      <point x="251" y="329" type="qcurve" smooth="yes"/>
      <point x="285" y="317" type="line" smooth="yes"/>
      <point x="366" y="288"/>
      <point x="446" y="218"/>
      <point x="448" y="161" type="qcurve"/>
      <point x="448" y="123"/>
      <point x="416" y="60"/>
      <point x="358" y="14"/>
      <point x="276" y="-12"/>
    </contour>
    <contour>
      <point x="260" y="623" type="line"/>
      <point x="378" y="811" type="line"/>
      <point x="485" y="754" type="line"/>
      <point x="341" y="580" type="line"/>
    </contour>
  </outline>
</glyph>
<glyph name="tcedilla" format="2">
  <advance width="354"/>
  <unicode hex="0163"/>
  <outline>
    <contour>
      <point x="182" y="0" type="line" smooth="yes"/>
      <point x="59" y="0"/>
      <point x="59" y="99" type="qcurve" smooth="yes"/>
      <point x="59" y="107"/>
      <point x="61" y="129"/>
      <point x="63" y="142" type="qcurve"/>
      <point x="117" y="413" type="line"/>
      <point x="43" y="413" type="line"/>
      <point x="65" y="525" type="line"/>
      <point x="100" y="525" type="line" smooth="yes"/>
      <point x="132" y="525"/>
      <point x="155" y="551"/>
      <point x="159" y="578" type="qcurve"/>
      <point x="177" y="667" type="line"/>
      <point x="307" y="667" type="line"/>
      <point x="279" y="525" type="line"/>
      <point x="385" y="525" type="line"/>
      <point x="362" y="413" type="line"/>
      <point x="256" y="413" type="line"/>
      <point x="196" y="112" type="line"/>
      <point x="292" y="112" type="line"/>
      <point x="270" y="0" type="line"/>
    </contour>
    <contour>
      <point x="20" y="-275" type="line"/>
      <point x="74" y="-236"/>
      <point x="100" y="-176" type="qcurve"/>
      <point x="77" y="-173"/>
      <point x="61" y="-149"/>
      <point x="61" y="-131" type="qcurve" smooth="yes"/>
      <point x="61" y="-121"/>
      <point x="65" y="-104" type="qcurve"/>
      <point x="82" y="-42"/>
      <point x="139" y="-42" type="qcurve" smooth="yes"/>
      <point x="202" y="-42"/>
      <point x="202" y="-93" type="qcurve" smooth="yes"/>
      <point x="202" y="-105"/>
      <point x="199" y="-120" type="qcurve"/>
      <point x="175" y="-219"/>
      <point x="103" y="-275" type="qcurve"/>
    </contour>
  </outline>
</glyph>
<glyph name="Tcaron" format="2">
  <advance width="568"/>
  <unicode hex="0164"/>
  <outline>
    <contour>
      <point x="321" y="750" type="line"/>
      <point x="222" y="907" type="line"/>
      <point x="293" y="961" type="line"/>
      <point x="388" y="846" type="line"/>
      <point x="525" y="961" type="line"/>
      <point x="594" y="907" type="line"/>
      <point x="441" y="750" type="line"/>
    </contour>
    <contour>
      <point x="162" y="0" type="line"/>
      <point x="277" y="576" type="line"/>
      <point x="90" y="576" type="line"/>
      <point x="115" y="698" type="line"/>
      <point x="627" y="698" type="line"/>
      <point x="602" y="576" type="line"/>
      <point x="415" y="576" type="line"/>
      <point x="300" y="0" type="line"/>
    </contour>
  </outline>
</glyph>
<glyph name="Utilde" format="2">
  <advance width="676"/>
  <unicode hex="0168"/>
  <outline>
    <contour>
      <point x="305" y="-12" type="qcurve" smooth="yes"/>
      <point x="187" y="-12"/>
      <point x="73" y="103"/>
      <point x="73" y="211" type="qcurve" smooth="yes"/>
      <point x="73" y="252"/>
      <point x="82" y="302" type="qcurve"/>
      <point x="161" y="698" type="line"/>
      <point x="298" y="698" type="line"/>
      <point x="214" y="278" type="line" smooth="yes"/>
      <point x="208" y="245"/>
      <point x="208" y="218" type="qcurve" smooth="yes"/>
      <point x="208" y="114"/>
      <point x="312" y="114" type="qcurve" smooth="yes"/>
      <point x="439" y="114"/>
      <point x="464" y="271" type="qcurve"/>
      <point x="484" y="379"/>
      <point x="528" y="590"/>
      <point x="550" y="698" type="qcurve"/>
      <point x="687" y="698" type="line"/>
      <point x="602" y="275" type="line" smooth="yes"/>
      <point x="588" y="201"/>
      <point x="541" y="93"/>
      <point x="469" y="23"/>
      <point x="370" y="-12"/>
    </contour>
    <contour>
      <point x="513" y="763" type="qcurve" smooth="yes"/>
      <point x="484" y="763"/>
      <point x="432" y="789"/>
      <point x="406" y="798" type="qcurve" smooth="yes"/>
      <point x="395" y="802"/>
      <point x="376" y="807"/>
      <point x="366" y="807" type="qcurve" smooth="yes"/>
      <point x="347" y="807"/>
      <point x="325" y="794"/>
      <point x="308" y="782" type="qcurve"/>
      <point x="267" y="847" type="line"/>
      <point x="315" y="909"/>
      <point x="380" y="909" type="qcurve" smooth="yes"/>
      <point x="394" y="909"/>
      <point x="419" y="903"/>
      <point x="431" y="898" type="qcurve"/>
      <point x="457" y="888"/>
      <point x="503" y="865"/>
      <point x="527" y="865" type="qcurve" smooth="yes"/>
      <point x="546" y="865"/>
      <point x="568" y="878"/>
      <point x="585" y="890" type="qcurve"/>
      <point x="627" y="824" type="line"/>
      <point x="578" y="763"/>
    </contour>
  </outline>
</glyph>
<glyph name="umacron" format="2">
  <advance width="580"/>
  <unicode hex="016B"/>
  <outline>
    <contour>
      <point x="167" y="-12" type="qcurve" smooth="yes"/>
      <point x="106" y="-12"/>
      <point x="42" y="60"/>
      <point x="42" y="125" type="qcurve" smooth="yes"/>
      <point x="42" y="164"/>
      <point x="51" y="200" type="qcurve"/>
      <point x="116" y="524" type="line"/>
      <point x="250" y="524" type="line"/>
      <point x="187" y="211" type="line"/>
      <point x="183" y="196"/>
      <point x="181" y="169"/>
      <point x="181" y="158" type="qcurve" smooth="yes"/>
      <point x="181" y="129"/>
      <point x="204" y="100"/>
      <point x="232" y="100" type="qcurve" smooth="yes"/>
      <point x="257" y="100"/>
      <point x="302" y="128"/>
      <point x="337" y="171"/>
      <point x="361" y="225"/>
      <point x="367" y="252" type="qcurve" smooth="yes"/>
      <point x="422" y="524" type="line"/>
      <point x="555" y="524" type="line"/>
      <point x="472" y="108" type="line"/>
      <point x="532" y="108" type="line"/>
      <point x="511" y="0" type="line"/>
      <point x="420" y="0" type="line" smooth="yes"/>
      <point x="382" y="0"/>
      <point x="335" y="40"/>
      <point x="335" y="76" type="qcurve" smooth="yes"/>
      <point x="335" y="88"/>
      <point x="339" y="110"/>
      <point x="341" y="120" type="qcurve"/>
      <point x="335" y="120" type="line"/>
      <point x="306" y="57"/>
      <point x="227" y="-12"/>
    </contour>
    <contour>
      <point x="214" y="626" type="line"/>
      <point x="233" y="725" type="line"/>
      <point x="510" y="725" type="line"/>
      <point x="491" y="626" type="line"/>
    </contour>
  </outline>
</glyph>
<glyph name="Uring" format="2">
  <advance width="676"/>
  <unicode hex="016E"/>
  <outline>
    <contour>
      <point x="426" y="722" type="qcurve" smooth="yes"/>
      <point x="371" y="722"/>
      <point x="301" y="788"/>
      <point x="301" y="841" type="qcurve" smooth="yes"/>
      <point x="301" y="877"/>
      <point x="326" y="936"/>
      <point x="369" y="978"/>
      <point x="428" y="1002"/>
      <point x="462" y="1002" type="qcurve" smooth="yes"/>
      <point x="517" y="1002"/>
      <point x="587" y="936"/>
      <point x="587" y="882" type="qcurve" smooth="yes"/>
      <point x="587" y="846"/>
      <point x="561" y="787"/>
      <point x="517" y="745"/>
      <point x="459" y="722"/>
    </contour>
    <contour>
      <point x="432" y="793" type="qcurve" smooth="yes"/>
      <point x="451" y="793"/>
      <point x="477" y="814"/>
      <point x="492" y="845"/>
      <point x="498" y="879"/>
      <point x="498" y="891" type="qcurve" smooth="yes"/>
      <point x="498" y="931"/>
      <point x="456" y="931" type="qcurve" smooth="yes"/>
      <point x="438" y="931"/>
      <point x="413" y="912"/>
      <point x="397" y="883"/>
      <point x="390" y="849"/>
      <point x="390" y="833" type="qcurve" smooth="yes"/>
      <point x="390" y="793"/>
    </contour>
    <contour>
      <point x="305" y="-12" type="qcurve" smooth="yes"/>
      <point x="187" y="-12"/>
      <point x="73" y="103"/>
      <point x="73" y="211" type="qcurve" smooth="yes"/>
      <point x="73" y="252"/>
      <point x="82" y="302" type="qcurve"/>
      <point x="161" y="698" type="line"/>
      <point x="298" y="698" type="line"/>
      <point x="214" y="278" type="line" smooth="yes"/>
      <point x="208" y="245"/>
      <point x="208" y="218" type="qcurve" smooth="yes"/>
      <point x="208" y="114"/>
      <point x="312" y="114" type="qcurve" smooth="yes"/>
      <point x="439" y="114"/>
      <point x="464" y="271" type="qcurve"/>
      <point x="484" y="379"/>
      <point x="528" y="590"/>
      <point x="550" y="698" type="qcurve"/>
      <point x="687" y="698" type="line"/>
      <point x="602" y="275" type="line" smooth="yes"/>
      <point x="588" y="201"/>
      <point x="541" y="93"/>
      <point x="469" y="23"/>
      <point x="370" y="-12"/>
    </contour>
  </outline>
</glyph>
<glyph name="udblacute" format="2">
  <advance width="582"/>
  <unicode hex="0171"/>
  <outline>
    <contour>
      <point x="186" y="618" type="line"/>
      <point x="299" y="811" type="line"/>
      <point x="404" y="755" type="line"/>
      <point x="263" y="580" type="line"/>
    </contour>
    <contour>
      <point x="382" y="618" type="line"/>
      <point x="495" y="811" type="line"/>
      <point x="600" y="755" type="line"/>
      <point x="458" y="580" type="line"/>
    </contour>
    <contour>
      <point x="164" y="-12" type="qcurve" smooth="yes"/>
      <point x="104" y="-12"/>
      <point x="40" y="58"/>
      <point x="40" y="124" type="qcurve" smooth="yes"/>
      <point x="40" y="165"/>
      <point x="49" y="200" type="qcurve"/>
      <point x="114" y="525" type="line"/>
      <point x="254" y="525" type="line"/>
      <point x="192" y="213" type="line"/>
      <point x="185" y="185"/>
      <point x="185" y="160" type="qcurve" smooth="yes"/>
      <point x="185" y="105"/>
      <point x="234" y="105" type="qcurve" smooth="yes"/>
      <point x="280" y="105"/>
      <point x="318" y="153" type="qcurve"/>
      <point x="354" y="196"/>
      <point x="366" y="255" type="qcurve" smooth="yes"/>
      <point x="420" y="525" type="line"/>
      <point x="560" y="525" type="line"/>
      <point x="477" y="112" type="line"/>
      <point x="536" y="112" type="line"/>
      <point x="514" y="0" type="line"/>
      <point x="421" y="0" type="line" smooth="yes"/>
      <point x="383" y="0"/>
      <point x="333" y="40"/>
      <point x="333" y="77" type="qcurve" smooth="yes"/>
      <point x="333" y="91"/>
      <point x="337" y="113"/>
      <point x="339" y="122" type="qcurve"/>
      <point x="333" y="122" type="line"/>
      <point x="304" y="59"/>
      <point x="224" y="-12"/>
    </contour>
  </outline>
</glyph>
<glyph name="wcircumflex" format="2">
  <advance width="786"/>
  <unicode hex="0175"/>
  <outline>
    <contour>
      <point x="266" y="635" type="line"/>
      <point x="420" y="791" type="line"/>
      <point x="539" y="791" type="line"/>
      <point x="637" y="635" type="line"/>
      <point x="565" y="580" type="line"/>
      <point x="467" y="695" type="line"/>
      <point x="333" y="580" type="line"/>
    </contour>
    <contour>
      <point x="436" y="0" type="line"/>
      <point x="430" y="70"/>
      <point x="417" y="209"/>
      <point x="412" y="279" type="qcurve" smooth="yes"/>
      <point x="407" y="355" type="line"/>
      <point x="401" y="355" type="line"/>
      <point x="239" y="0" type="line"/>
      <point x="95" y="0" type="line"/>
      <point x="56" y="524" type="line"/>
      <point x="189" y="524" type="line"/>
      <point x="192" y="430"/>
      <point x="197" y="243"/>
      <point x="199" y="149" type="qcurve"/>
      <point x="205" y="149" type="line"/>
      <point x="373" y="524" type="line"/>
      <point x="497" y="524" type="line"/>
      <point x="504" y="427"/>
      <point x="518" y="240"/>
      <point x="523" y="143" type="qcurve"/>
      <point x="529" y="143" type="line"/>
      <point x="685" y="524" type="line"/>
      <point x="817" y="524" type="line"/>
      <point x="577" y="0" type="line"/>
    </contour>
  </outline>
</glyph>
<glyph name="Ycircumflex" format="2">
  <advance width="619"/>
  <unicode hex="0176"/>
  <outline>
    <contour>
      <point x="208" y="796" type="line"/>
      <point x="362" y="952" type="line"/>
      <point x="482" y="952" type="line"/>
      <point x="580" y="796" type="line"/>
      <point x="508" y="741" type="line"/>
      <point x="410" y="856" type="line"/>
      <point x="275" y="741" type="line"/>
    </contour>
    <contour>
      <point x="186" y="0" type="line"/>
      <point x="240" y="271" type="line"/>
      <point x="92" y="698" type="line"/>
      <point x="234" y="698" type="line"/>
      <point x="330" y="399" type="line"/>
      <point x="337" y="399" type="line"/>
      <point x="543" y="698" type="line"/>
      <point x="696" y="698" type="line"/>
      <point x="377" y="259" type="line"/>
      <point x="325" y="0" type="line"/>
    </contour>
  </outline>
</glyph>
<glyph name="Ydieresis" format="2">
  <advance width="619"/>
  <unicode hex="0178"/>
  <outline>
    <contour>
      <point x="186" y="0" type="line"/>
      <point x="240" y="271" type="line"/>
      <point x="92" y="698" type="line"/>
      <point x="234" y="698" type="line"/>
      <point x="330" y="399" type="line"/>
      <point x="337" y="399" type="line"/>
      <point x="543" y="698" type="line"/>
      <point x="696" y="698" type="line"/>
      <point x="377" y="259" type="line"/>
      <point x="325" y="0" type="line"/>
    </contour>
    <contour>
      <point x="295" y="763" type="qcurve" smooth="yes"/>
      <point x="263" y="763"/>
      <point x="232" y="790"/>
      <point x="232" y="810" type="qcurve" smooth="yes"/>
      <point x="232" y="909"/>
      <point x="320" y="909" type="qcurve" smooth="yes"/>
      <point x="354" y="909"/>
      <point x="383" y="881"/>
      <point x="383" y="861" type="qcurve" smooth="yes"/>
      <point x="383" y="763"/>
    </contour>
    <contour>
      <point x="493" y="763" type="qcurve" smooth="yes"/>
      <point x="461" y="763"/>
      <point x="431" y="790"/>
      <point x="431" y="810" type="qcurve" smooth="yes"/>
      <point x="431" y="909"/>
      <point x="518" y="909" type="qcurve" smooth="yes"/>
      <point x="553" y="909"/>
      <point x="581" y="881"/>
      <point x="581" y="861" type="qcurve" smooth="yes"/>
      <point x="581" y="763"/>
    </contour>
  </outline>
</glyph>
<glyph name="zacute" format="2">
  <advance width="488"/>
  <unicode hex="017A"/>
  <outline>
    <contour>
      <point x="-10" y="0" type="line"/>
      <point x="11" y="107" type="line"/>
      <point x="320" y="416" type="line"/>
      <point x="77" y="416" type="line"/>
      <point x="98" y="524" type="line"/>
      <point x="502" y="524" type="line"/>
      <point x="481" y="417" type="line"/>
      <point x="170" y="108" type="line"/>
      <point x="430" y="108" type="line"/>
      <point x="409" y="0" type="line"/>
    </contour>
    <contour>
      <point x="245" y="623" type="line"/>
      <point x="362" y="811" type="line"/>
      <point x="470" y="754" type="line"/>
      <point x="325" y="580" type="line"/>
    </contour>
  </outline>
</glyph>
<glyph name="zdot" format="2">
  <advance width="492"/>
  <unicode hex="017C"/>
  <outline>
    <contour>
      <point x="313" y="591" type="qcurve" smooth="yes"/>
      <point x="237" y="591"/>
      <point x="237" y="650" type="qcurve" smooth="yes"/>
      <point x="237" y="654"/>
      <point x="239" y="664" type="qcurve" smooth="yes"/>
      <point x="244" y="692" type="line"/>
      <point x="248" y="722"/>
      <point x="290" y="759"/>
      <point x="338" y="759" type="qcurve" smooth="yes"/>
      <point x="414" y="759"/>
      <point x="414" y="700" type="qcurve" smooth="yes"/>
      <point x="414" y="689"/>
      <point x="407" y="658" type="qcurve"/>
      <point x="403" y="628"/>
      <point x="361" y="591"/>
    </contour>
    <contour>
      <point x="-11" y="0" type="line"/>
      <point x="11" y="112" type="line"/>
      <point x="317" y="413" type="line"/>
      <point x="76" y="413" type="line"/>
      <point x="98" y="525" type="line"/>
      <point x="507" y="525" type="line"/>
      <point x="485" y="413" type="line"/>
      <point x="178" y="112" type="line"/>
      <point x="436" y="112" type="line"/>
      <point x="414" y="0" type="line"/>
    </contour>
  </outline>
</glyph>
<glyph name="u018F" format="2">
  <advance width="696"/>
  <unicode hex="018F"/>
  <outline>
    <contour>
      <point x="323" y="118" type="qcurve" smooth="yes"/>
      <point x="452" y="118"/>
      <point x="490" y="279" type="qcurve"/>
      <point x="205" y="279" type="line"/>
      <point x="204" y="274"/>
      <point x="203" y="265"/>
      <point x="203" y="261" type="qcurve" smooth="yes"/>
      <point x="203" y="243" type="line" smooth="yes"/>
      <point x="203" y="118"/>
    </contour>
    <contour>
      <point x="309" y="-12" type="qcurve" smooth="yes"/>
      <point x="203" y="-12"/>
      <point x="130" y="55" type="qcurve"/>
      <point x="57" y="127"/>
      <point x="57" y="267" type="qcurve" smooth="yes"/>
      <point x="57" y="311"/>
      <point x="67" y="350" type="qcurve"/>
      <point x="76" y="394" type="line"/>
      <point x="513" y="394" type="line"/>
      <point x="520" y="428"/>
      <point x="520" y="455" type="qcurve" smooth="yes"/>
      <point x="520" y="515"/>
      <point x="454" y="580"/>
      <point x="388" y="580" type="qcurve" smooth="yes"/>
      <point x="331" y="580"/>
      <point x="262" y="520"/>
      <point x="239" y="466" type="qcurve"/>
      <point x="109" y="521" type="line"/>
      <point x="151" y="605"/>
      <point x="304" y="710"/>
      <point x="410" y="710" type="qcurve" smooth="yes"/>
      <point x="520" y="710"/>
      <point x="595" y="641" type="qcurve"/>
      <point x="669" y="570"/>
      <point x="669" y="437" type="qcurve" smooth="yes"/>
      <point x="669" y="247"/>
      <point x="570" y="118" type="qcurve" smooth="yes"/>
      <point x="522" y="57"/>
      <point x="390" y="-12"/>
    </contour>
  </outline>
</glyph>
<glyph name="Ohorn" format="2">
  <advance width="693"/>
  <unicode hex="01A0"/>
  <outline>
    <contour>
      <point x="307" y="-12" type="qcurve" smooth="yes"/>
      <point x="251" y="-12"/>
      <point x="159" y="27"/>
      <point x="93" y="100"/>
      <point x="57" y="204"/>
      <point x="57" y="270" type="qcurve" smooth="yes"/>
      <point x="57" y="354"/>
      <point x="108" y="513"/>
      <point x="202" y="636"/>
      <point x="334" y="710"/>
      <point x="416" y="710" type="qcurve" smooth="yes"/>
      <point x="446" y="710"/>
      <point x="498" y="699"/>
      <point x="527" y="698" type="qcurve"/>
      <point x="625" y="698" type="line"/>
      <point x="646" y="805" type="line"/>
      <point x="765" y="805" type="line"/>
      <point x="746" y="709" type="line"/>
      <point x="738" y="658"/>
      <point x="687" y="614"/>
      <point x="629" y="614" type="qcurve" smooth="yes"/>
      <point x="613" y="614" type="line"/>
      <point x="666" y="538"/>
      <point x="666" y="428" type="qcurve" smooth="yes"/>
      <point x="666" y="343"/>
      <point x="615" y="185"/>
      <point x="521" y="62"/>
      <point x="389" y="-12"/>
    </contour>
    <contour>
      <point x="317" y="111" type="qcurve" smooth="yes"/>
      <point x="392" y="111"/>
      <point x="489" y="218"/>
      <point x="504" y="315" type="qcurve"/>
      <point x="521" y="400" type="line"/>
      <point x="523" y="416"/>
      <point x="526" y="442"/>
      <point x="526" y="454" type="qcurve" smooth="yes"/>
      <point x="526" y="519"/>
      <point x="467" y="587"/>
      <point x="406" y="587" type="qcurve" smooth="yes"/>
      <point x="331" y="587"/>
      <point x="234" y="478"/>
      <point x="220" y="383" type="qcurve"/>
      <point x="202" y="298" type="line"/>
      <point x="200" y="283"/>
      <point x="197" y="256"/>
      <point x="197" y="244" type="qcurve" smooth="yes"/>
      <point x="197" y="179"/>
      <point x="256" y="111"/>
    </contour>
  </outline>
</glyph>
<glyph name="Aringacute" format="2">
  <advance width="654"/>
  <unicode hex="01FA"/>
  <outline>
    <contour>
      <point x="418" y="726" type="qcurve" smooth="yes"/>
      <point x="364" y="726"/>
      <point x="294" y="780"/>
      <point x="294" y="828" type="qcurve" smooth="yes"/>
      <point x="294" y="862"/>
      <point x="320" y="913"/>
      <point x="365" y="947"/>
      <point x="395" y="956" type="qcurve" smooth="yes"/>
      <point x="415" y="962"/>
      <point x="437" y="964" type="qcurve"/>
      <point x="559" y="1065" type="line"/>
      <point x="619" y="990" type="line"/>
      <point x="541" y="942" type="line"/>
      <point x="545" y="940"/>
      <point x="548" y="938" type="qcurve"/>
      <point x="583" y="910"/>
      <point x="583" y="862" type="qcurve" smooth="yes"/>
      <point x="583" y="829"/>
      <point x="555" y="779"/>
      <point x="509" y="744"/>
      <point x="449" y="726"/>
    </contour>
    <contour>
      <point x="429" y="793" type="qcurve" smooth="yes"/>
      <point x="461" y="793"/>
      <point x="492" y="834"/>
      <point x="492" y="864" type="qcurve" smooth="yes"/>
      <point x="492" y="890"/>
      <point x="465" y="896" type="qcurve"/>
      <point x="457" y="898"/>
      <point x="448" y="898" type="qcurve" smooth="yes"/>
      <point x="418" y="898"/>
      <point x="385" y="861"/>
      <point x="385" y="827" type="qcurve" smooth="yes"/>
      <point x="385" y="793"/>
    </contour>
    <contour>
      <point x="443" y="0" type="line"/>
      <point x="426" y="174" type="line"/>
      <point x="198" y="174" type="line"/>
      <point x="114" y="0" type="line"/>
      <point x="-34" y="0" type="line"/>
      <point x="326" y="698" type="line"/>
      <point x="503" y="698" type="line"/>
      <point x="584" y="0" type="line"/>
    </contour>
    <contour>
      <point x="393" y="572" type="line"/>
      <point x="386" y="572" type="line"/>
      <point x="253" y="290" type="line"/>
      <point x="416" y="290" type="line"/>
    </contour>
  </outline>
</glyph>
<glyph name="oslashacute" format="2">
  <advance width="544"/>
  <unicode hex="01FF"/>
  <outline>
    <contour>
      <point x="263" y="623" type="line"/>
      <point x="380" y="811" type="line"/>
      <point x="488" y="754" type="line"/>
      <point x="343" y="580" type="line"/>
    </contour>
    <contour>
      <point x="-32" y="19" type="line"/>
      <point x="51" y="105" type="line"/>
      <point x="33" y="148"/>
      <point x="33" y="206" type="qcurve" smooth="yes"/>
      <point x="33" y="275"/>
      <point x="73" y="395"/>
      <point x="144" y="484"/>
      <point x="244" y="536"/>
      <point x="304" y="536" type="qcurve" smooth="yes"/>
      <point x="343" y="536"/>
      <point x="411" y="516"/>
      <point x="437" y="495" type="qcurve"/>
      <point x="507" y="567" type="line"/>
      <point x="576" y="505" type="line"/>
      <point x="492" y="419" type="line"/>
      <point x="511" y="377"/>
      <point x="511" y="318" type="qcurve" smooth="yes"/>
      <point x="511" y="249"/>
      <point x="470" y="129"/>
      <point x="398" y="40"/>
      <point x="298" y="-12"/>
      <point x="239" y="-12" type="qcurve" smooth="yes"/>
      <point x="200" y="-12"/>
      <point x="132" y="8"/>
      <point x="106" y="29" type="qcurve"/>
      <point x="36" y="-43" type="line"/>
    </contour>
    <contour>
      <point x="360" y="408" type="line"/>
      <point x="337" y="433"/>
      <point x="299" y="433" type="qcurve" smooth="yes"/>
      <point x="264" y="433"/>
      <point x="239" y="412" type="qcurve" smooth="yes"/>
      <point x="225" y="400"/>
      <point x="204" y="365"/>
      <point x="189" y="321"/>
      <point x="177" y="270"/>
      <point x="172" y="243" type="qcurve"/>
      <point x="170" y="235"/>
      <point x="168" y="220"/>
      <point x="167" y="212" type="qcurve"/>
    </contour>
    <contour>
      <point x="245" y="91" type="qcurve" smooth="yes"/>
      <point x="290" y="91"/>
      <point x="344" y="155"/>
      <point x="358" y="215" type="qcurve" smooth="yes"/>
      <point x="362" y="233"/>
      <point x="368" y="266"/>
      <point x="371" y="280" type="qcurve" smooth="yes"/>
      <point x="374" y="295" type="line" smooth="yes"/>
      <point x="375" y="300"/>
      <point x="375" y="307"/>
      <point x="376" y="312" type="qcurve"/>
      <point x="183" y="116" type="line"/>
      <point x="208" y="91"/>
    </contour>
  </outline>
</glyph>
<glyph name="commaturnedmod" format="2">
  <advance width="600"/>
  <unicode hex="02BB"/>
  <outline>
    <contour>
      <point x="308" y="576" type="qcurve" smooth="yes"/>
      <point x="245" y="576"/>
      <point x="245" y="627" type="qcurve" smooth="yes"/>
      <point x="245" y="639"/>
      <point x="248" y="654" type="qcurve" smooth="yes"/>
      <point x="258" y="700"/>
      <point x="311" y="784"/>
      <point x="344" y="809" type="qcurve"/>
      <point x="427" y="809" type="line"/>
      <point x="373" y="770"/>
      <point x="347" y="710" type="qcurve"/>
      <point x="370" y="707"/>
      <point x="386" y="683"/>
      <point x="386" y="665" type="qcurve" smooth="yes"/>
      <point x="386" y="655"/>
      <point x="382" y="638" type="qcurve" smooth="yes"/>
      <point x="367" y="576"/>
    </contour>
  </outline>
</glyph>
<glyph name="gravecmb" format="2">
  <unicode hex="0300"/>
  <outline>
    <contour>
      <point x="-118" y="756" type="line"/>
      <point x="8" y="815" type="line"/>
      <point x="76" y="619" type="line"/>
      <point x="-13" y="580" type="line"/>
    </contour>
  </outline>
</glyph>
<glyph name="acutecmb" format="2">
  <unicode hex="0301"/>
  <outline>
    <contour>
      <point x="-55" y="625" type="line"/>
      <point x="64" y="815" type="line"/>
      <point x="176" y="755" type="line"/>
      <point x="29" y="579" type="line"/>
    </contour>
  </outline>
</glyph>
<glyph name="tildecomb" format="2">
  <unicode hex="0303"/>
  <outline>
    <contour>
      <point x="95" y="601" type="qcurve" smooth="yes"/>
      <point x="74" y="601"/>
      <point x="37" y="614"/>
      <point x="1" y="631"/>
      <point x="-35" y="644"/>
      <point x="-53" y="644" type="qcurve" smooth="yes"/>
      <point x="-70" y="644"/>
      <point x="-94" y="632"/>
      <point x="-111" y="619" type="qcurve"/>
      <point x="-154" y="688" type="line"/>
      <point x="-104" y="750"/>
      <point x="-39" y="750" type="qcurve" smooth="yes"/>
      <point x="-18" y="750"/>
      <point x="19" y="737"/>
      <point x="55" y="720"/>
      <point x="91" y="707"/>
      <point x="109" y="707" type="qcurve" smooth="yes"/>
      <point x="126" y="707"/>
      <point x="150" y="719"/>
      <point x="167" y="732" type="qcurve"/>
      <point x="210" y="663" type="line"/>
      <point x="160" y="601"/>
    </contour>
  </outline>
</glyph>
<glyph name="macroncmb" format="2">
  <unicode hex="0304"/>
  <outline>
    <contour>
      <point x="-121" y="625" type="line"/>
      <point x="-101" y="727" type="line"/>
      <point x="177" y="727" type="line"/>
      <point x="157" y="625" type="line"/>
    </contour>
  </outline>
</glyph>
<glyph name="u0306" format="2">
  <unicode hex="0306"/>
  <outline>
    <contour>
      <point x="13" y="579" type="qcurve" smooth="yes"/>
      <point x="-65" y="579"/>
      <point x="-108" y="633" type="qcurve"/>
      <point x="-146" y="683"/>
      <point x="-157" y="749" type="qcurve"/>
      <point x="-77" y="791" type="line"/>
      <point x="-59" y="752" type="line" smooth="yes"/>
      <point x="-44" y="718"/>
      <point x="-11" y="680"/>
      <point x="21" y="680" type="qcurve" smooth="yes"/>
      <point x="48" y="680"/>
      <point x="92" y="717"/>
      <point x="119" y="754" type="qcurve" smooth="yes"/>
      <point x="147" y="791" type="line"/>
      <point x="230" y="745" type="line"/>
      <point x="197" y="681"/>
      <point x="144" y="630" type="qcurve"/>
      <point x="88" y="579"/>
    </contour>
  </outline>
</glyph>
<glyph name="ringcomb" format="2">
  <unicode hex="030A"/>
  <outline>
    <contour>
      <point x="12" y="632" type="qcurve" smooth="yes"/>
      <point x="60" y="632"/>
      <point x="70" y="684" type="qcurve" smooth="yes"/>
      <point x="73" y="699" type="line"/>
      <point x="73" y="701"/>
      <point x="74" y="703" type="qcurve"/>
      <point x="75" y="711"/>
      <point x="78" y="724"/>
      <point x="78" y="731" type="qcurve" smooth="yes"/>
      <point x="78" y="770"/>
      <point x="37" y="770" type="qcurve" smooth="yes"/>
      <point x="-9" y="770"/>
      <point x="-21" y="718" type="qcurve"/>
      <point x="-24" y="703" type="line" smooth="yes"/>
      <point x="-26" y="693"/>
      <point x="-29" y="678"/>
      <point x="-29" y="671" type="qcurve"/>
      <point x="-28" y="632"/>
    </contour>
    <contour>
      <point x="6" y="558" type="qcurve" smooth="yes"/>
      <point x="-51" y="558"/>
      <point x="-122" y="626"/>
      <point x="-122" y="680" type="qcurve" smooth="yes"/>
      <point x="-122" y="754"/>
      <point x="-72" y="799" type="qcurve" smooth="yes"/>
      <point x="-23" y="844"/>
      <point x="43" y="844" type="qcurve" smooth="yes"/>
      <point x="100" y="844"/>
      <point x="171" y="776"/>
      <point x="171" y="722" type="qcurve" smooth="yes"/>
      <point x="171" y="646"/>
      <point x="121" y="602" type="qcurve" smooth="yes"/>
      <point x="71" y="558"/>
    </contour>
  </outline>
</glyph>
<glyph name="caroncmb" format="2">
  <unicode hex="030C"/>
  <outline>
    <contour>
      <point x="-51" y="588" type="line"/>
      <point x="-152" y="746" type="line"/>
      <point x="-78" y="803" type="line"/>
      <point x="18" y="688" type="line"/>
      <point x="155" y="803" type="line"/>
      <point x="227" y="746" type="line"/>
      <point x="72" y="588" type="line"/>
    </contour>
  </outline>
</glyph>
<glyph name="u0312" format="2">
  <unicode hex="0312"/>
  <outline>
    <contour>
      <point x="9" y="576" type="qcurve" smooth="yes"/>
      <point x="-54" y="576"/>
      <point x="-54" y="627" type="qcurve" smooth="yes"/>
      <point x="-54" y="639"/>
      <point x="-51" y="654" type="qcurve" smooth="yes"/>
      <point x="-41" y="700"/>
      <point x="12" y="784"/>
      <point x="45" y="809" type="qcurve"/>
      <point x="128" y="809" type="line"/>
      <point x="74" y="770"/>
      <point x="48" y="710" type="qcurve"/>
      <point x="71" y="707"/>
      <point x="87" y="683"/>
      <point x="87" y="665" type="qcurve" smooth="yes"/>
      <point x="87" y="655"/>
      <point x="83" y="638" type="qcurve" smooth="yes"/>
      <point x="68" y="576"/>
    </contour>
  </outline>
</glyph>
<glyph name="uni0326" format="2">
  <unicode hex="0326"/>
  <outline>
    <contour>
      <point x="-127" y="-272" type="line"/>
      <point x="-76" y="-234"/>
      <point x="-50" y="-175" type="qcurve"/>
      <point x="-76" y="-172"/>
      <point x="-83" y="-154" type="qcurve"/>
      <point x="-86" y="-149"/>
      <point x="-87" y="-137"/>
      <point x="-87" y="-130" type="qcurve" smooth="yes"/>
      <point x="-87" y="-92"/>
      <point x="-44" y="-44"/>
      <point x="-11" y="-44" type="qcurve" smooth="yes"/>
      <point x="21" y="-44"/>
      <point x="49" y="-69"/>
      <point x="49" y="-95" type="qcurve" smooth="yes"/>
      <point x="49" y="-122"/>
      <point x="32" y="-173"/>
      <point x="5" y="-219"/>
      <point x="-29" y="-258"/>
      <point x="-47" y="-272" type="qcurve"/>
    </contour>
  </outline>
</glyph>
<glyph name="cedillacomb" format="2">
  <unicode hex="0327"/>
  <outline>
    <contour>
      <point x="-23" y="-212" type="qcurve" smooth="yes"/>
      <point x="-65" y="-212"/>
      <point x="-121" y="-185"/>
      <point x="-134" y="-166" type="qcurve"/>
      <point x="-82" y="-114" type="line"/>
      <point x="-76" y="-124"/>
      <point x="-46" y="-142"/>
      <point x="-24" y="-142" type="qcurve" smooth="yes"/>
      <point x="26" y="-142"/>
      <point x="26" y="-111" type="qcurve" smooth="yes"/>
      <point x="26" y="-83"/>
      <point x="-40" y="-75" type="qcurve"/>
      <point x="-62" y="-73" type="line"/>
      <point x="-18" y="30" type="line"/>
      <point x="48" y="30" type="line"/>
      <point x="14" y="-55" type="line"/>
      <point x="16" y="-59" type="line"/>
      <point x="37" y="-52"/>
      <point x="59" y="-52" type="qcurve" smooth="yes"/>
      <point x="85" y="-52"/>
      <point x="121" y="-82"/>
      <point x="121" y="-108" type="qcurve" smooth="yes"/>
      <point x="121" y="-134"/>
      <point x="98" y="-173"/>
      <point x="59" y="-199"/>
      <point x="7" y="-212"/>
    </contour>
  </outline>
</glyph>
<glyph name="tonos" format="2">
  <advance width="588"/>
  <unicode hex="0384"/>
  <outline>
    <contour>
      <point x="408" y="580" type="line"/>
      <point x="323" y="607" type="line"/>
      <point x="395" y="811" type="line"/>
      <point x="515" y="782" type="line"/>
    </contour>
  </outline>
</glyph>
<glyph name="Alphatonos" format="2">
  <advance width="654"/>
  <unicode hex="0386"/>
  <outline>
    <contour>
      <point x="443" y="0" type="line"/>
      <point x="426" y="174" type="line"/>
      <point x="198" y="174" type="line"/>
      <point x="114" y="0" type="line"/>
      <point x="-34" y="0" type="line"/>
      <point x="326" y="698" type="line"/>
      <point x="503" y="698" type="line"/>
      <point x="584" y="0" type="line"/>
    </contour>
    <contour>
      <point x="393" y="572" type="line"/>
      <point x="386" y="572" type="line"/>
      <point x="253" y="290" type="line"/>
      <point x="416" y="290" type="line"/>
    </contour>
    <contour>
      <point x="190" y="580" type="line"/>
      <point x="105" y="607" type="line"/>
      <point x="177" y="811" type="line"/>
      <point x="296" y="782" type="line"/>
    </contour>
  </outline>
</glyph>
<glyph name="anoteleia" format="2">
  <advance width="323"/>
  <unicode hex="0387"/>
  <outline>
    <contour>
      <point x="184" y="361" type="line" smooth="yes"/>
      <point x="146" y="361"/>
      <point x="111" y="394"/>
      <point x="111" y="419" type="qcurve" smooth="yes"/>
      <point x="111" y="440"/>
      <point x="121" y="482"/>
      <point x="144" y="515"/>
      <point x="182" y="536"/>
      <point x="211" y="536" type="qcurve" smooth="yes"/>
      <point x="249" y="536"/>
      <point x="285" y="502"/>
      <point x="285" y="478" type="qcurve" smooth="yes"/>
      <point x="285" y="425"/>
      <point x="236" y="363"/>
      <point x="195" y="361" type="qcurve"/>
    </contour>
  </outline>
</glyph>
<glyph name="iotadieresistonos" format="2">
  <advance width="308"/>
  <unicode hex="0390"/>
  <outline>
    <contour>
      <point x="257" y="0" type="line"/>
      <point x="169" y="0" type="line" smooth="yes"/>
      <point x="51" y="0"/>
      <point x="51" y="95" type="qcurve" smooth="yes"/>
      <point x="51" y="103"/>
      <point x="53" y="125"/>
      <point x="55" y="136" type="qcurve" smooth="yes"/>
      <point x="133" y="524" type="line"/>
      <point x="266" y="524" type="line"/>
      <point x="183" y="108" type="line"/>
      <point x="278" y="108" type="line"/>
    </contour>
    <contour>
      <point x="356" y="603" type="qcurve"/>
      <point x="329" y="603"/>
      <point x="305" y="628"/>
      <point x="303" y="645" type="qcurve"/>
      <point x="304" y="660"/>
      <point x="311" y="695"/>
      <point x="328" y="725"/>
      <point x="357" y="747"/>
      <point x="379" y="749" type="qcurve"/>
      <point x="407" y="749"/>
      <point x="432" y="724"/>
      <point x="434" y="707" type="qcurve"/>
      <point x="433" y="694"/>
      <point x="426" y="660"/>
      <point x="409" y="628"/>
      <point x="379" y="605"/>
    </contour>
    <contour>
      <point x="219" y="583" type="line"/>
      <point x="217" y="584" type="line"/>
      <point x="215" y="584" type="line"/>
      <point x="214" y="585" type="line"/>
      <point x="213" y="585" type="line"/>
      <point x="212" y="586" type="line"/>
      <point x="210" y="586" type="line"/>
      <point x="208" y="587" type="line"/>
      <point x="207" y="587" type="line"/>
      <point x="206" y="588" type="line"/>
      <point x="204" y="588" type="line"/>
      <point x="203" y="589" type="line"/>
      <point x="202" y="589" type="line"/>
      <point x="200" y="590" type="line"/>
      <point x="198" y="590" type="line"/>
      <point x="197" y="591" type="line"/>
      <point x="196" y="591" type="line"/>
      <point x="195" y="592" type="line"/>
      <point x="193" y="592" type="line"/>
      <point x="189" y="594" type="line"/>
      <point x="187" y="594" type="line"/>
      <point x="186" y="595" type="line"/>
      <point x="185" y="595" type="line"/>
      <point x="184" y="596" type="line"/>
      <point x="182" y="596" type="line"/>
      <point x="178" y="598" type="line"/>
      <point x="176" y="598" type="line"/>
      <point x="175" y="599" type="line"/>
      <point x="174" y="599" type="line"/>
      <point x="172" y="600" type="line"/>
      <point x="170" y="600" type="line"/>
      <point x="169" y="601" type="line"/>
      <point x="168" y="601" type="line"/>
      <point x="167" y="602" type="line"/>
      <point x="165" y="602" type="line"/>
      <point x="163" y="603" type="line"/>
      <point x="173" y="639" type="line"/>
      <point x="165" y="627"/>
      <point x="152" y="617" type="qcurve" smooth="yes"/>
      <point x="137" y="606"/>
      <point x="113" y="606" type="qcurve" smooth="yes"/>
      <point x="87" y="606"/>
      <point x="61" y="630"/>
      <point x="61" y="650" type="qcurve" smooth="yes"/>
      <point x="61" y="663"/>
      <point x="67" y="696"/>
      <point x="84" y="724"/>
      <point x="112" y="743"/>
      <point x="135" y="743" type="qcurve" smooth="yes"/>
      <point x="162" y="743"/>
      <point x="188" y="719"/>
      <point x="188" y="699" type="qcurve" smooth="yes"/>
      <point x="188" y="692"/>
      <point x="187" y="682" type="qcurve"/>
      <point x="190" y="692" type="line"/>
      <point x="198" y="722"/>
      <point x="218" y="779"/>
      <point x="229" y="806" type="qcurve"/>
      <point x="252" y="800"/>
      <point x="295" y="787"/>
      <point x="317" y="781" type="qcurve"/>
      <point x="312" y="770"/>
      <point x="303" y="748"/>
      <point x="298" y="736" type="qcurve"/>
      <point x="285" y="707"/>
      <point x="256" y="651"/>
      <point x="240" y="625" type="qcurve"/>
    </contour>
  </outline>
</glyph>
<glyph name="Omicron" format="2">
  <advance width="693"/>
  <unicode hex="039F"/>
  <outline>
    <contour>
      <point x="382" y="111" type="qcurve" smooth="yes"/>
      <point x="455" y="111"/>
      <point x="546" y="208"/>
      <point x="565" y="296" type="qcurve"/>
      <point x="579" y="369" type="line" smooth="yes"/>
      <point x="583" y="392"/>
      <point x="591" y="437"/>
      <point x="591" y="454" type="qcurve" smooth="yes"/>
      <point x="591" y="587"/>
      <point x="471" y="587" type="qcurve" smooth="yes"/>
      <point x="397" y="587"/>
      <point x="305" y="488"/>
      <point x="288" y="402" type="qcurve" smooth="yes"/>
      <point x="273" y="329" type="line" smooth="yes"/>
      <point x="269" y="308"/>
      <point x="262" y="264"/>
      <point x="262" y="244" type="qcurve" smooth="yes"/>
      <point x="262" y="181"/>
      <point x="321" y="111"/>
    </contour>
    <contour>
      <point x="372" y="-12" type="qcurve" smooth="yes"/>
      <point x="324" y="-12"/>
      <point x="233" y="20"/>
      <point x="164" y="89"/>
      <point x="122" y="195"/>
      <point x="122" y="270" type="qcurve" smooth="yes"/>
      <point x="122" y="357"/>
      <point x="173" y="516"/>
      <point x="268" y="638"/>
      <point x="400" y="710"/>
      <point x="481" y="710" type="qcurve" smooth="yes"/>
      <point x="530" y="710"/>
      <point x="620" y="678"/>
      <point x="689" y="609"/>
      <point x="731" y="502"/>
      <point x="731" y="428" type="qcurve" smooth="yes"/>
      <point x="731" y="341"/>
      <point x="680" y="182"/>
      <point x="586" y="61"/>
      <point x="453" y="-12"/>
    </contour>
  </outline>
</glyph>
<glyph name="Phi" format="2">
  <advance width="818"/>
  <unicode hex="03A6"/>
  <outline>
    <contour>
      <point x="292" y="32" type="line"/>
      <point x="241" y="32"/>
      <point x="151" y="63"/>
      <point x="85" y="124"/>
      <point x="47" y="216"/>
      <point x="47" y="277" type="qcurve" smooth="yes"/>
      <point x="47" y="364"/>
      <point x="95" y="510"/>
      <point x="189" y="617"/>
      <point x="329" y="676"/>
      <point x="422" y="676" type="qcurve"/>
      <point x="434" y="738" type="line"/>
      <point x="573" y="738" type="line"/>
      <point x="560" y="676" type="line"/>
      <point x="613" y="676"/>
      <point x="702" y="644"/>
      <point x="767" y="582"/>
      <point x="804" y="490"/>
      <point x="804" y="431" type="qcurve" smooth="yes"/>
      <point x="804" y="344"/>
      <point x="756" y="197"/>
      <point x="662" y="91"/>
      <point x="522" y="32"/>
      <point x="430" y="32" type="qcurve"/>
      <point x="415" y="-43" type="line"/>
      <point x="277" y="-43" type="line"/>
    </contour>
    <contour>
      <point x="401" y="562" type="line"/>
      <point x="323" y="562"/>
      <point x="223" y="477"/>
      <point x="203" y="382" type="qcurve" smooth="yes"/>
      <point x="193" y="337" type="line"/>
      <point x="190" y="321"/>
      <point x="188" y="292"/>
      <point x="188" y="276" type="qcurve" smooth="yes"/>
      <point x="188" y="207"/>
      <point x="251" y="146"/>
      <point x="318" y="146" type="qcurve"/>
    </contour>
    <contour>
      <point x="453" y="146" type="line" smooth="yes"/>
      <point x="530" y="146"/>
      <point x="629" y="231"/>
      <point x="649" y="326" type="qcurve" smooth="yes"/>
      <point x="658" y="371" type="line" smooth="yes"/>
      <point x="664" y="399"/>
      <point x="664" y="432" type="qcurve" smooth="yes"/>
      <point x="664" y="501"/>
      <point x="600" y="562"/>
      <point x="534" y="562" type="qcurve"/>
      <point x="451" y="146" type="line"/>
    </contour>
  </outline>
</glyph>
<glyph name="Upsilondieresis" format="2">
  <advance width="619"/>
  <unicode hex="03AB"/>
  <outline>
    <contour>
      <point x="325" y="0" type="line"/>
      <point x="379" y="271" type="line"/>
      <point x="231" y="698" type="line"/>
      <point x="373" y="698" type="line"/>
      <point x="469" y="399" type="line"/>
      <point x="476" y="399" type="line"/>
      <point x="682" y="698" type="line"/>
      <point x="835" y="698" type="line"/>
      <point x="516" y="259" type="line"/>
      <point x="464" y="0" type="line"/>
    </contour>
    <contour>
      <point x="434" y="763" type="qcurve" smooth="yes"/>
      <point x="402" y="763"/>
      <point x="371" y="788"/>
      <point x="371" y="810" type="qcurve" smooth="yes"/>
      <point x="371" y="818"/>
      <point x="375" y="851"/>
      <point x="393" y="884"/>
      <point x="428" y="909"/>
      <point x="459" y="909" type="qcurve" smooth="yes"/>
      <point x="491" y="909"/>
      <point x="522" y="884"/>
      <point x="522" y="861" type="qcurve" smooth="yes"/>
      <point x="522" y="854"/>
      <point x="518" y="821"/>
      <point x="500" y="788"/>
      <point x="465" y="763"/>
    </contour>
    <contour>
      <point x="632" y="763" type="qcurve" smooth="yes"/>
      <point x="600" y="763"/>
      <point x="570" y="788"/>
      <point x="570" y="810" type="qcurve" smooth="yes"/>
      <point x="570" y="818"/>
      <point x="574" y="851"/>
      <point x="591" y="884"/>
      <point x="626" y="909"/>
      <point x="657" y="909" type="qcurve" smooth="yes"/>
      <point x="689" y="909"/>
      <point x="720" y="884"/>
      <point x="720" y="861" type="qcurve" smooth="yes"/>
      <point x="720" y="854"/>
      <point x="716" y="821"/>
      <point x="698" y="788"/>
      <point x="663" y="763"/>
    </contour>
  </outline>
</glyph>
<glyph name="beta" format="2">
  <advance width="577"/>
  <unicode hex="03B2"/>
  <outline>
    <contour>
      <point x="296" y="434" type="line"/>
      <point x="323" y="434" type="line" smooth="yes"/>
      <point x="345" y="434"/>
      <point x="381" y="445"/>
      <point x="409" y="472"/>
      <point x="428" y="519"/>
      <point x="432" y="555" type="qcurve"/>
      <point x="433" y="562"/>
      <point x="434" y="573"/>
      <point x="434" y="579" type="qcurve" smooth="yes"/>
      <point x="434" y="609"/>
      <point x="401" y="643"/>
      <point x="369" y="643" type="qcurve" smooth="yes"/>
      <point x="329" y="643"/>
      <point x="266" y="585"/>
      <point x="252" y="512" type="qcurve" smooth="yes"/>
      <point x="192" y="217" type="line"/>
      <point x="190" y="203"/>
      <point x="186" y="180"/>
      <point x="186" y="172" type="qcurve" smooth="yes"/>
      <point x="186" y="166"/>
      <point x="187" y="160" type="qcurve"/>
      <point x="192" y="97"/>
      <point x="276" y="97" type="qcurve" smooth="yes"/>
      <point x="336" y="97"/>
      <point x="400" y="168"/>
      <point x="401" y="249" type="qcurve"/>
      <point x="401" y="261" type="line" smooth="yes"/>
      <point x="401" y="265"/>
      <point x="400" y="269" type="qcurve"/>
      <point x="392" y="328"/>
      <point x="318" y="328" type="qcurve" smooth="yes"/>
      <point x="274" y="328" type="line"/>
    </contour>
    <contour>
      <point x="117" y="507" type="line" smooth="yes"/>
      <point x="143" y="633"/>
      <point x="283" y="752"/>
      <point x="380" y="752" type="qcurve" smooth="yes"/>
      <point x="474" y="752"/>
      <point x="567" y="661"/>
      <point x="567" y="577" type="qcurve" smooth="yes"/>
      <point x="567" y="502"/>
      <point x="490" y="406"/>
      <point x="420" y="385" type="qcurve"/>
      <point x="420" y="383"/>
      <point x="419" y="382"/>
      <point x="419" y="380" type="qcurve"/>
      <point x="474" y="368"/>
      <point x="534" y="297"/>
      <point x="534" y="231" type="qcurve" smooth="yes"/>
      <point x="534" y="184"/>
      <point x="500" y="97"/>
      <point x="442" y="30"/>
      <point x="362" y="-11"/>
      <point x="316" y="-12" type="qcurve"/>
      <point x="305" y="-12"/>
      <point x="286" y="-10"/>
      <point x="276" y="-8" type="qcurve" smooth="yes"/>
      <point x="234" y="0"/>
      <point x="177" y="49"/>
      <point x="172" y="90" type="qcurve"/>
      <point x="167" y="90" type="line"/>
      <point x="109" y="-200" type="line"/>
      <point x="-25" y="-200" type="line"/>
    </contour>
  </outline>
</glyph>
<glyph name="phi" format="2">
  <advance width="735"/>
  <unicode hex="03C6"/>
  <outline>
    <contour>
      <point x="241" y="-12" type="line"/>
      <point x="189" y="-12"/>
      <point x="111" y="19"/>
      <point x="59" y="71"/>
      <point x="33" y="142"/>
      <point x="33" y="181" type="qcurve" smooth="yes"/>
      <point x="33" y="237"/>
      <point x="55" y="342"/>
      <point x="100" y="433"/>
      <point x="171" y="509"/>
      <point x="220" y="536" type="qcurve"/>
      <point x="290" y="450" type="line"/>
      <point x="244" y="419"/>
      <point x="197" y="343"/>
      <point x="184" y="287" type="qcurve"/>
      <point x="171" y="225" type="line"/>
      <point x="168" y="205"/>
      <point x="166" y="183"/>
      <point x="166" y="174" type="qcurve" smooth="yes"/>
      <point x="166" y="135"/>
      <point x="211" y="95"/>
      <point x="262" y="95" type="qcurve"/>
      <point x="299" y="281" type="line" smooth="yes"/>
      <point x="312" y="346"/>
      <point x="350" y="442"/>
      <point x="407" y="505"/>
      <point x="485" y="536"/>
      <point x="538" y="536" type="qcurve" smooth="yes"/>
      <point x="618" y="536"/>
      <point x="702" y="442"/>
      <point x="702" y="361" type="qcurve" smooth="yes"/>
      <point x="702" y="275"/>
      <point x="659" y="137"/>
      <point x="576" y="40"/>
      <point x="453" y="-12"/>
      <point x="372" y="-12" type="qcurve"/>
      <point x="334" y="-200" type="line"/>
      <point x="203" y="-200" type="line"/>
    </contour>
    <contour>
      <point x="393" y="95" type="line"/>
      <point x="453" y="95"/>
      <point x="531" y="158"/>
      <point x="547" y="236" type="qcurve"/>
      <point x="549" y="248"/>
      <point x="555" y="274"/>
      <point x="557" y="286" type="qcurve" smooth="yes"/>
      <point x="566" y="334" type="line" smooth="yes"/>
      <point x="568" y="346"/>
      <point x="570" y="367"/>
      <point x="570" y="378" type="qcurve" smooth="yes"/>
      <point x="570" y="429"/>
      <point x="519" y="429" type="qcurve" smooth="yes"/>
      <point x="491" y="429"/>
      <point x="452" y="388"/>
      <point x="441" y="333" type="qcurve" smooth="yes"/>
    </contour>
  </outline>
</glyph>
<glyph name="Iocyr" format="2">
  <advance width="578"/>
  <unicode hex="0401"/>
  <outline>
    <contour>
      <point x="22" y="0" type="line"/>
      <point x="162" y="698" type="line"/>
      <point x="611" y="698" type="line"/>
      <point x="585" y="570" type="line"/>
      <point x="282" y="570" type="line"/>
      <point x="251" y="417" type="line"/>
      <point x="519" y="417" type="line"/>
      <point x="493" y="289" type="line"/>
      <point x="225" y="289" type="line"/>
      <point x="193" y="128" type="line"/>
      <point x="507" y="128" type="line"/>
      <point x="481" y="0" type="line"/>
    </contour>
    <contour>
      <point x="300" y="760" type="qcurve" smooth="yes"/>
      <point x="265" y="760"/>
      <point x="235" y="789"/>
      <point x="235" y="809" type="qcurve" smooth="yes"/>
      <point x="235" y="812"/>
      <point x="237" y="822" type="qcurve"/>
      <point x="241" y="848" type="line" smooth="yes"/>
      <point x="251" y="911"/>
      <point x="326" y="911" type="qcurve" smooth="yes"/>
      <point x="361" y="911"/>
      <point x="391" y="882"/>
      <point x="391" y="862" type="qcurve" smooth="yes"/>
      <point x="391" y="854"/>
      <point x="387" y="837"/>
      <point x="385" y="823" type="qcurve"/>
      <point x="374" y="760"/>
    </contour>
    <contour>
      <point x="500" y="760" type="qcurve" smooth="yes"/>
      <point x="465" y="760"/>
      <point x="435" y="789"/>
      <point x="435" y="809" type="qcurve" smooth="yes"/>
      <point x="435" y="812"/>
      <point x="437" y="822" type="qcurve"/>
      <point x="441" y="848" type="line" smooth="yes"/>
      <point x="451" y="911"/>
      <point x="526" y="911" type="qcurve" smooth="yes"/>
      <point x="561" y="911"/>
      <point x="591" y="882"/>
      <point x="591" y="862" type="qcurve" smooth="yes"/>
      <point x="591" y="854"/>
      <point x="587" y="837"/>
      <point x="585" y="823" type="qcurve"/>
      <point x="574" y="760"/>
    </contour>
  </outline>
</glyph>
<glyph name="Eukrcyr" format="2">
  <advance width="655"/>
  <unicode hex="0404"/>
  <outline>
    <contour>
      <point x="316" y="-12" type="qcurve" smooth="yes"/>
      <point x="196" y="-12"/>
      <point x="57" y="131"/>
      <point x="57" y="272" type="qcurve" smooth="yes"/>
      <point x="57" y="456"/>
      <point x="161" y="583" type="qcurve" smooth="yes"/>
      <point x="209" y="643"/>
      <point x="344" y="710"/>
      <point x="425" y="710" type="qcurve" smooth="yes"/>
      <point x="525" y="710"/>
      <point x="640" y="627"/>
      <point x="669" y="548" type="qcurve"/>
      <point x="544" y="490" type="line"/>
      <point x="538" y="509"/>
      <point x="519" y="543"/>
      <point x="489" y="567"/>
      <point x="445" y="581"/>
      <point x="414" y="581" type="qcurve" smooth="yes"/>
      <point x="271" y="581"/>
      <point x="233" y="417" type="qcurve"/>
      <point x="467" y="417" type="line"/>
      <point x="442" y="289" type="line"/>
      <point x="208" y="289" type="line"/>
      <point x="206" y="276"/>
      <point x="204" y="254"/>
      <point x="204" y="246" type="qcurve" smooth="yes"/>
      <point x="204" y="182"/>
      <point x="260" y="117"/>
      <point x="329" y="117" type="qcurve" smooth="yes"/>
      <point x="391" y="117"/>
      <point x="463" y="167"/>
      <point x="492" y="217" type="qcurve"/>
      <point x="613" y="158" type="line"/>
      <point x="512" y="-12"/>
    </contour>
  </outline>
</glyph>
<glyph name="afii10058" format="2">
  <advance width="1033"/>
  <unicode hex="0409"/>
  <outline>
    <contour>
      <point x="-30" y="-6" type="line"/>
      <point x="-3" y="129" type="line"/>
      <point x="79" y="129" type="line"/>
      <point x="155" y="190"/>
      <point x="208" y="450" type="qcurve" smooth="yes"/>
      <point x="258" y="698" type="line"/>
      <point x="707" y="698" type="line"/>
      <point x="656" y="443" type="line"/>
      <point x="782" y="443" type="line" smooth="yes"/>
      <point x="888" y="443"/>
      <point x="999" y="346"/>
      <point x="999" y="258" type="qcurve" smooth="yes"/>
      <point x="999" y="140"/>
      <point x="922" y="71" type="qcurve" smooth="yes"/>
      <point x="845" y="0"/>
      <point x="727" y="0" type="qcurve" smooth="yes"/>
      <point x="421" y="0" type="line"/>
      <point x="536" y="569" type="line"/>
      <point x="373" y="569" type="line"/>
      <point x="350" y="453" type="line" smooth="yes"/>
      <point x="314" y="275"/>
      <point x="275" y="187" type="qcurve" smooth="yes"/>
      <point x="236" y="99"/>
      <point x="198" y="64" type="qcurve"/>
      <point x="159" y="26"/>
      <point x="73" y="-6"/>
      <point x="22" y="-6" type="qcurve" smooth="yes"/>
    </contour>
    <contour>
      <point x="746" y="128" type="line" smooth="yes"/>
      <point x="779" y="128"/>
      <point x="829" y="162"/>
      <point x="838" y="201" type="qcurve" smooth="yes"/>
      <point x="849" y="248"/>
      <point x="849" y="265" type="qcurve" smooth="yes"/>
      <point x="849" y="315"/>
      <point x="788" y="315" type="qcurve" smooth="yes"/>
      <point x="629" y="315" type="line"/>
      <point x="592" y="128" type="line"/>
    </contour>
  </outline>
</glyph>
<glyph name="afii10059" format="2">
  <advance width="1019"/>
  <unicode hex="040A"/>
  <outline>
    <contour>
      <point x="407" y="0" type="line"/>
      <point x="465" y="289" type="line"/>
      <point x="225" y="289" type="line"/>
      <point x="167" y="0" type="line"/>
      <point x="22" y="0" type="line"/>
      <point x="162" y="698" type="line"/>
      <point x="307" y="698" type="line"/>
      <point x="251" y="417" type="line"/>
      <point x="491" y="417" type="line"/>
      <point x="548" y="698" type="line"/>
      <point x="693" y="698" type="line"/>
      <point x="642" y="443" type="line"/>
      <point x="768" y="443" type="line" smooth="yes"/>
      <point x="874" y="443"/>
      <point x="985" y="346"/>
      <point x="985" y="258" type="qcurve" smooth="yes"/>
      <point x="985" y="140"/>
      <point x="908" y="71" type="qcurve" smooth="yes"/>
      <point x="831" y="0"/>
      <point x="713" y="0" type="qcurve" smooth="yes"/>
    </contour>
    <contour>
      <point x="732" y="128" type="line" smooth="yes"/>
      <point x="765" y="128"/>
      <point x="815" y="162"/>
      <point x="824" y="201" type="qcurve" smooth="yes"/>
      <point x="835" y="248"/>
      <point x="835" y="265" type="qcurve" smooth="yes"/>
      <point x="835" y="315"/>
      <point x="774" y="315" type="qcurve" smooth="yes"/>
      <point x="615" y="315" type="line"/>
      <point x="578" y="128" type="line"/>
    </contour>
  </outline>
</glyph>
<glyph name="Decyr" format="2">
  <advance width="791"/>
  <unicode hex="0414"/>
  <outline>
    <contour>
      <point x="575" y="569" type="line"/>
      <point x="376" y="569" type="line"/>
      <point x="353" y="453" type="line" smooth="yes"/>
      <point x="325" y="307"/>
      <point x="296" y="236" type="qcurve"/>
      <point x="270" y="169"/>
      <point x="237" y="133" type="qcurve"/>
      <point x="236" y="129" type="line"/>
      <point x="487" y="129" type="line"/>
    </contour>
    <contour>
      <point x="551" y="-150" type="line"/>
      <point x="581" y="0" type="line"/>
      <point x="106" y="0" type="line"/>
      <point x="75" y="-150" type="line"/>
      <point x="-61" y="-150" type="line"/>
      <point x="-5" y="129" type="line"/>
      <point x="78" y="129" type="line"/>
      <point x="116" y="161"/>
      <point x="183" y="310"/>
      <point x="211" y="450" type="qcurve" smooth="yes"/>
      <point x="261" y="698" type="line"/>
      <point x="746" y="698" type="line"/>
      <point x="632" y="129" type="line"/>
      <point x="744" y="129" type="line"/>
      <point x="687" y="-150" type="line"/>
    </contour>
  </outline>
</glyph>
<glyph name="afii10028" format="2">
  <advance width="660"/>
  <unicode hex="041A"/>
  <outline>
    <contour>
      <point x="507" y="0" type="line" smooth="yes"/>
      <point x="481" y="0"/>
      <point x="444" y="9"/>
      <point x="417" y="28"/>
      <point x="398" y="61"/>
      <point x="391" y="85" type="qcurve"/>
      <point x="325" y="289" type="line"/>
      <point x="225" y="289" type="line"/>
      <point x="167" y="0" type="line"/>
      <point x="22" y="0" type="line"/>
      <point x="162" y="698" type="line"/>
      <point x="307" y="698" type="line"/>
      <point x="250" y="417" type="line"/>
      <point x="350" y="417" type="line"/>
      <point x="498" y="627" type="line" smooth="yes"/>
      <point x="524" y="665"/>
      <point x="580" y="698"/>
      <point x="626" y="698" type="qcurve" smooth="yes"/>
      <point x="690" y="698" type="line"/>
      <point x="664" y="569" type="line"/>
      <point x="611" y="569" type="line"/>
      <point x="512" y="428" type="line" smooth="yes"/>
      <point x="489" y="396"/>
      <point x="447" y="368"/>
      <point x="418" y="363" type="qcurve"/>
      <point x="417" y="357" type="line"/>
      <point x="457" y="343"/>
      <point x="473" y="291" type="qcurve" smooth="yes"/>
      <point x="525" y="129" type="line"/>
      <point x="584" y="129" type="line"/>
      <point x="558" y="0" type="line"/>
    </contour>
  </outline>
</glyph>
<glyph name="u041B" format="2">
  <advance width="723"/>
  <unicode hex="041B"/>
  <outline>
    <contour>
      <point x="-30" y="-6" type="line"/>
      <point x="-3" y="129" type="line"/>
      <point x="79" y="129" type="line"/>
      <point x="155" y="190"/>
      <point x="208" y="450" type="qcurve" smooth="yes"/>
      <point x="258" y="698" type="line"/>
      <point x="735" y="698" type="line"/>
      <point x="595" y="0" type="line"/>
      <point x="450" y="0" type="line"/>
      <point x="564" y="569" type="line"/>
      <point x="373" y="569" type="line"/>
      <point x="350" y="453" type="line" smooth="yes"/>
      <point x="314" y="275"/>
      <point x="275" y="187" type="qcurve" smooth="yes"/>
      <point x="236" y="99"/>
      <point x="198" y="64" type="qcurve"/>
      <point x="159" y="26"/>
      <point x="73" y="-6"/>
      <point x="22" y="-6" type="qcurve" smooth="yes"/>
    </contour>
  </outline>
</glyph>
<glyph name="afii10031" format="2">
  <advance width="700"/>
  <unicode hex="041D"/>
  <outline>
    <contour>
      <point x="427" y="0" type="line"/>
      <point x="485" y="289" type="line"/>
      <point x="225" y="289" type="line"/>
      <point x="167" y="0" type="line"/>
      <point x="22" y="0" type="line"/>
      <point x="162" y="698" type="line"/>
      <point x="307" y="698" type="line"/>
      <point x="251" y="417" type="line"/>
      <point x="511" y="417" type="line"/>
      <point x="567" y="698" type="line"/>
      <point x="712" y="698" type="line"/>
      <point x="572" y="0" type="line"/>
    </contour>
  </outline>
</glyph>
<glyph name="u041E" format="2">
  <advance width="695"/>
  <unicode hex="041E"/>
  <outline>
    <contour>
      <point x="318" y="117" type="qcurve" smooth="yes"/>
      <point x="388" y="117"/>
      <point x="478" y="211"/>
      <point x="495" y="296" type="qcurve" smooth="yes"/>
      <point x="516" y="401" type="line"/>
      <point x="518" y="416"/>
      <point x="521" y="442"/>
      <point x="521" y="453" type="qcurve" smooth="yes"/>
      <point x="521" y="581"/>
      <point x="407" y="581" type="qcurve" smooth="yes"/>
      <point x="337" y="581"/>
      <point x="247" y="487"/>
      <point x="230" y="402" type="qcurve" smooth="yes"/>
      <point x="209" y="297" type="line"/>
      <point x="207" y="283"/>
      <point x="204" y="256"/>
      <point x="204" y="245" type="qcurve" smooth="yes"/>
      <point x="204" y="117"/>
    </contour>
    <contour>
      <point x="308" y="-12" type="qcurve" smooth="yes"/>
      <point x="203" y="-12"/>
      <point x="133" y="56" type="qcurve" smooth="yes"/>
      <point x="57" y="131"/>
      <point x="57" y="271" type="qcurve" smooth="yes"/>
      <point x="57" y="450"/>
      <point x="159" y="581" type="qcurve" smooth="yes"/>
      <point x="207" y="642"/>
      <point x="339" y="710"/>
      <point x="417" y="710" type="qcurve" smooth="yes"/>
      <point x="526" y="710"/>
      <point x="593" y="643" type="qcurve" smooth="yes"/>
      <point x="668" y="569"/>
      <point x="668" y="427" type="qcurve" smooth="yes"/>
      <point x="668" y="247"/>
      <point x="566" y="117" type="qcurve" smooth="yes"/>
      <point x="518" y="56"/>
      <point x="386" y="-12"/>
    </contour>
  </outline>
</glyph>
<glyph name="afii10036" format="2">
  <advance width="569"/>
  <unicode hex="0422"/>
  <outline>
    <contour>
      <point x="159" y="0" type="line"/>
      <point x="273" y="570" type="line"/>
      <point x="89" y="570" type="line"/>
      <point x="115" y="698" type="line"/>
      <point x="628" y="698" type="line"/>
      <point x="602" y="570" type="line"/>
      <point x="418" y="570" type="line"/>
      <point x="304" y="0" type="line"/>
    </contour>
  </outline>
</glyph>
<glyph name="afii10038" format="2">
  <advance width="883"/>
  <unicode hex="0424"/>
  <outline>
    <contour>
      <point x="307" y="-44" type="line"/>
      <point x="325" y="46" type="line"/>
      <point x="290" y="46" type="line" smooth="yes"/>
      <point x="170" y="46"/>
      <point x="104" y="121" type="qcurve" smooth="yes"/>
      <point x="46" y="186"/>
      <point x="46" y="289" type="qcurve" smooth="yes"/>
      <point x="46" y="362"/>
      <point x="94" y="494"/>
      <point x="186" y="592"/>
      <point x="320" y="650"/>
      <point x="407" y="650" type="qcurve" smooth="yes"/>
      <point x="447" y="650" type="line"/>
      <point x="465" y="740" type="line"/>
      <point x="610" y="740" type="line"/>
      <point x="592" y="650" type="line"/>
      <point x="627" y="650" type="line" smooth="yes"/>
      <point x="691" y="650"/>
      <point x="783" y="609"/>
      <point x="843" y="541"/>
      <point x="871" y="453"/>
      <point x="871" y="407" type="qcurve" smooth="yes"/>
      <point x="871" y="259"/>
      <point x="777" y="153" type="qcurve"/>
      <point x="731" y="104"/>
      <point x="598" y="46"/>
      <point x="510" y="46" type="qcurve" smooth="yes"/>
      <point x="470" y="46" type="line"/>
      <point x="452" y="-44" type="line"/>
    </contour>
    <contour>
      <point x="425" y="531" type="line"/>
      <point x="384" y="531" type="line" smooth="yes"/>
      <point x="312" y="531"/>
      <point x="265" y="487" type="qcurve"/>
      <point x="221" y="443"/>
      <point x="209" y="379" type="qcurve" smooth="yes"/>
      <point x="204" y="351"/>
      <point x="193" y="294"/>
      <point x="193" y="271" type="qcurve" smooth="yes"/>
      <point x="193" y="232"/>
      <point x="222" y="198" type="qcurve" smooth="yes"/>
      <point x="250" y="165"/>
      <point x="312" y="165" type="qcurve" smooth="yes"/>
      <point x="352" y="165" type="line"/>
    </contour>
    <contour>
      <point x="533" y="165" type="line" smooth="yes"/>
      <point x="610" y="165"/>
      <point x="652" y="210" type="qcurve"/>
      <point x="696" y="252"/>
      <point x="708" y="317" type="qcurve"/>
      <point x="714" y="345"/>
      <point x="724" y="403"/>
      <point x="724" y="425" type="qcurve" smooth="yes"/>
      <point x="724" y="446"/>
      <point x="710" y="484"/>
      <point x="681" y="513"/>
      <point x="636" y="531"/>
      <point x="605" y="531" type="qcurve" smooth="yes"/>
      <point x="565" y="531" type="line"/>
      <point x="492" y="165" type="line"/>
    </contour>
  </outline>
</glyph>
<glyph name="Softcyr" format="2">
  <advance width="634"/>
  <unicode hex="042C"/>
  <outline>
    <contour>
      <point x="347" y="128" type="line" smooth="yes"/>
      <point x="380" y="128"/>
      <point x="430" y="162"/>
      <point x="439" y="201" type="qcurve" smooth="yes"/>
      <point x="450" y="248"/>
      <point x="450" y="265" type="qcurve" smooth="yes"/>
      <point x="450" y="315"/>
      <point x="389" y="315" type="qcurve" smooth="yes"/>
      <point x="230" y="315" type="line"/>
      <point x="193" y="128" type="line"/>
    </contour>
    <contour>
      <point x="22" y="0" type="line"/>
      <point x="163" y="698" type="line"/>
      <point x="308" y="698" type="line"/>
      <point x="257" y="443" type="line"/>
      <point x="383" y="443" type="line" smooth="yes"/>
      <point x="489" y="443"/>
      <point x="600" y="346"/>
      <point x="600" y="258" type="qcurve" smooth="yes"/>
      <point x="600" y="140"/>
      <point x="523" y="71" type="qcurve" smooth="yes"/>
      <point x="446" y="0"/>
      <point x="328" y="0" type="qcurve" smooth="yes"/>
    </contour>
  </outline>
</glyph>
<glyph name="u042D" format="2">
  <advance width="655"/>
  <unicode hex="042D"/>
  <outline>
    <contour>
      <point x="261" y="-12" type="qcurve" smooth="yes"/>
      <point x="159" y="-12"/>
      <point x="42" y="75"/>
      <point x="12" y="153" type="qcurve"/>
      <point x="134" y="215" type="line"/>
      <point x="152" y="166"/>
      <point x="216" y="117"/>
      <point x="271" y="117" type="qcurve" smooth="yes"/>
      <point x="422" y="117"/>
      <point x="453" y="289" type="qcurve"/>
      <point x="219" y="289" type="line"/>
      <point x="244" y="417" type="line"/>
      <point x="478" y="417" type="line"/>
      <point x="481" y="436"/>
      <point x="481" y="452" type="qcurve" smooth="yes"/>
      <point x="481" y="516"/>
      <point x="421" y="581"/>
      <point x="352" y="581" type="qcurve" smooth="yes"/>
      <point x="292" y="581"/>
      <point x="221" y="531"/>
      <point x="198" y="486" type="qcurve"/>
      <point x="76" y="543" type="line"/>
      <point x="124" y="624"/>
      <point x="262" y="710"/>
      <point x="361" y="710" type="qcurve" smooth="yes"/>
      <point x="485" y="710"/>
      <point x="553" y="643" type="qcurve" smooth="yes"/>
      <point x="628" y="569"/>
      <point x="628" y="427" type="qcurve" smooth="yes"/>
      <point x="628" y="331"/>
      <point x="573" y="173"/>
      <point x="525" y="113" type="qcurve"/>
      <point x="421" y="-12"/>
    </contour>
  </outline>
</glyph>
<glyph name="afii10049" format="2">
  <advance width="660"/>
  <unicode hex="042F"/>
  <outline>
    <contour>
      <point x="386" y="0" type="line"/>
      <point x="437" y="255" type="line"/>
      <point x="344" y="255" type="line"/>
      <point x="209" y="68" type="line"/>
      <point x="162" y="0"/>
      <point x="80" y="0" type="qcurve" smooth="yes"/>
      <point x="0" y="0" type="line"/>
      <point x="26" y="129" type="line"/>
      <point x="85" y="129" type="line"/>
      <point x="149" y="217" type="line" smooth="yes"/>
      <point x="186" y="269"/>
      <point x="238" y="274" type="qcurve"/>
      <point x="239" y="280" type="line"/>
      <point x="103" y="314"/>
      <point x="103" y="440" type="qcurve" smooth="yes"/>
      <point x="103" y="556"/>
      <point x="180" y="627" type="qcurve" smooth="yes"/>
      <point x="257" y="698"/>
      <point x="375" y="698" type="qcurve" smooth="yes"/>
      <point x="672" y="698" type="line"/>
      <point x="531" y="0" type="line"/>
    </contour>
    <contour>
      <point x="501" y="570" type="line"/>
      <point x="356" y="570" type="line" smooth="yes"/>
      <point x="323" y="570"/>
      <point x="273" y="536"/>
      <point x="264" y="497" type="qcurve" smooth="yes"/>
      <point x="253" y="451"/>
      <point x="253" y="431" type="qcurve" smooth="yes"/>
      <point x="253" y="410"/>
      <point x="281" y="379"/>
      <point x="313" y="379" type="qcurve" smooth="yes"/>
      <point x="463" y="379" type="line"/>
    </contour>
  </outline>
</glyph>
<glyph name="u0431" format="2">
  <advance width="542"/>
  <unicode hex="0431"/>
  <outline>
    <contour>
      <point x="247" y="101" type="qcurve" smooth="yes"/>
      <point x="287" y="101"/>
      <point x="344" y="156"/>
      <point x="356" y="216" type="qcurve" smooth="yes"/>
      <point x="367" y="272" type="line" smooth="yes"/>
      <point x="372" y="295"/>
      <point x="372" y="329" type="qcurve" smooth="yes"/>
      <point x="372" y="361"/>
      <point x="339" y="397"/>
      <point x="299" y="397" type="qcurve" smooth="yes"/>
      <point x="207" y="397"/>
      <point x="185" y="282" type="qcurve" smooth="yes"/>
      <point x="176" y="236" type="line" smooth="yes"/>
      <point x="170" y="207"/>
      <point x="170" y="184" type="qcurve" smooth="yes"/>
      <point x="170" y="101"/>
    </contour>
    <contour>
      <point x="240" y="-12" type="qcurve" smooth="yes"/>
      <point x="143" y="-12"/>
      <point x="33" y="105"/>
      <point x="33" y="207" type="qcurve" smooth="yes"/>
      <point x="33" y="244"/>
      <point x="42" y="301" type="qcurve" smooth="yes"/>
      <point x="76" y="521"/>
      <point x="188" y="643" type="qcurve" smooth="yes"/>
      <point x="265" y="726"/>
      <point x="430" y="739" type="qcurve" smooth="yes"/>
      <point x="576" y="752" type="line"/>
      <point x="548" y="614" type="line"/>
      <point x="393" y="601" type="line" smooth="yes"/>
      <point x="321" y="596"/>
      <point x="233" y="503"/>
      <point x="211" y="407" type="qcurve"/>
      <point x="217" y="407" type="line"/>
      <point x="243" y="464"/>
      <point x="313" y="510"/>
      <point x="364" y="510" type="qcurve" smooth="yes"/>
      <point x="426" y="510"/>
      <point x="468" y="461" type="qcurve" smooth="yes"/>
      <point x="511" y="412"/>
      <point x="511" y="328" type="qcurve" smooth="yes"/>
      <point x="511" y="177"/>
      <point x="435" y="83" type="qcurve" smooth="yes"/>
      <point x="358" y="-12"/>
    </contour>
  </outline>
</glyph>
<glyph name="u0433" format="2">
  <advance width="432"/>
  <unicode hex="0433"/>
  <outline>
    <contour>
      <point x="14" y="0" type="line"/>
      <point x="119" y="525" type="line"/>
      <point x="462" y="525" type="line"/>
      <point x="440" y="413" type="line"/>
      <point x="237" y="413" type="line"/>
      <point x="154" y="0" type="line"/>
    </contour>
  </outline>
</glyph>
<glyph name="afii10069" format="2">
  <advance width="553"/>
  <unicode hex="0434"/>
  <outline>
    <contour>
      <point x="233" y="-12" type="qcurve" smooth="yes"/>
      <point x="142" y="-12"/>
      <point x="31" y="102"/>
      <point x="31" y="207" type="qcurve" smooth="yes"/>
      <point x="31" y="346"/>
      <point x="99" y="435" type="qcurve" smooth="yes"/>
      <point x="168" y="525"/>
      <point x="258" y="525" type="qcurve" smooth="yes"/>
      <point x="306" y="525"/>
      <point x="362" y="481"/>
      <point x="376" y="436" type="qcurve"/>
      <point x="382" y="436" type="line"/>
      <point x="382" y="462" type="line" smooth="yes"/>
      <point x="382" y="550"/>
      <point x="307" y="628"/>
      <point x="241" y="628" type="qcurve" smooth="yes"/>
      <point x="189" y="628"/>
      <point x="153" y="616" type="qcurve"/>
      <point x="179" y="744" type="line"/>
      <point x="208" y="752"/>
      <point x="260" y="752" type="qcurve" smooth="yes"/>
      <point x="386" y="752"/>
      <point x="446" y="687" type="qcurve"/>
      <point x="522" y="611"/>
      <point x="522" y="454" type="qcurve" smooth="yes"/>
      <point x="522" y="329"/>
      <point x="476" y="153"/>
      <point x="396" y="40"/>
      <point x="291" y="-12"/>
    </contour>
    <contour>
      <point x="236" y="101" type="qcurve" smooth="yes"/>
      <point x="282" y="101"/>
      <point x="332" y="166"/>
      <point x="347" y="241" type="qcurve" smooth="yes"/>
      <point x="359" y="299" type="line"/>
      <point x="364" y="317"/>
      <point x="364" y="340" type="qcurve" smooth="yes"/>
      <point x="364" y="412"/>
      <point x="292" y="412" type="qcurve" smooth="yes"/>
      <point x="213" y="412"/>
      <point x="189" y="294" type="qcurve" smooth="yes"/>
      <point x="173" y="217"/>
      <point x="173" y="212" type="qcurve"/>
      <point x="170" y="201"/>
      <point x="170" y="184" type="qcurve" smooth="yes"/>
      <point x="170" y="146"/>
      <point x="206" y="101"/>
    </contour>
  </outline>
</glyph>
<glyph name="u043B" format="2">
  <advance width="594"/>
  <unicode hex="043B"/>
  <outline>
    <contour>
      <point x="-39" y="-6" type="line"/>
      <point x="-15" y="112" type="line"/>
      <point x="52" y="112" type="line"/>
      <point x="102" y="162"/>
      <point x="142" y="360" type="qcurve" smooth="yes"/>
      <point x="175" y="525" type="line"/>
      <point x="580" y="525" type="line"/>
      <point x="475" y="0" type="line"/>
      <point x="335" y="0" type="line"/>
      <point x="418" y="413" type="line"/>
      <point x="286" y="413" type="line"/>
      <point x="267" y="316"/>
      <point x="233" y="184"/>
      <point x="218" y="147" type="qcurve"/>
      <point x="195" y="96"/>
      <point x="149" y="36"/>
      <point x="99" y="6"/>
      <point x="42" y="-4"/>
      <point x="8" y="-6" type="qcurve"/>
    </contour>
  </outline>
</glyph>
<glyph name="u0440" format="2">
  <advance width="583"/>
  <unicode hex="0440"/>
  <outline>
    <contour>
      <point x="274" y="103" type="qcurve" smooth="yes"/>
      <point x="366" y="103"/>
      <point x="389" y="220" type="qcurve" smooth="yes"/>
      <point x="404" y="296"/>
      <point x="407" y="319" type="qcurve" smooth="yes"/>
      <point x="408" y="327"/>
      <point x="409" y="341"/>
      <point x="409" y="347" type="qcurve"/>
      <point x="404" y="422"/>
      <point x="343" y="422" type="qcurve" smooth="yes"/>
      <point x="293" y="422"/>
      <point x="256" y="374" type="qcurve" smooth="yes"/>
      <point x="221" y="330"/>
      <point x="208" y="270" type="qcurve" smooth="yes"/>
      <point x="190" y="180"/>
      <point x="190" y="170" type="qcurve" smooth="yes"/>
      <point x="190" y="145"/>
      <point x="207" y="126" type="qcurve"/>
      <point x="230" y="103"/>
    </contour>
    <contour>
      <point x="-26" y="-200" type="line"/>
      <point x="119" y="525" type="line"/>
      <point x="259" y="525" type="line"/>
      <point x="235" y="403" type="line"/>
      <point x="241" y="403" type="line"/>
      <point x="271" y="467"/>
      <point x="350" y="537"/>
      <point x="412" y="537" type="qcurve" smooth="yes"/>
      <point x="449" y="537"/>
      <point x="502" y="509"/>
      <point x="536" y="461"/>
      <point x="552" y="394"/>
      <point x="552" y="355" type="qcurve" smooth="yes"/>
      <point x="552" y="192"/>
      <point x="480" y="90" type="qcurve" smooth="yes"/>
      <point x="409" y="-12"/>
      <point x="308" y="-12" type="qcurve" smooth="yes"/>
      <point x="253" y="-12"/>
      <point x="183" y="46"/>
      <point x="177" y="91" type="qcurve"/>
      <point x="172" y="91" type="line"/>
      <point x="114" y="-200" type="line"/>
    </contour>
  </outline>
</glyph>
<glyph name="afii10083" format="2">
  <advance width="494"/>
  <unicode hex="0441"/>
  <outline>
    <contour>
      <point x="237" y="-12" type="qcurve" smooth="yes"/>
      <point x="146" y="-12"/>
      <point x="91" y="41" type="qcurve" smooth="yes"/>
      <point x="31" y="99"/>
      <point x="31" y="215" type="qcurve" smooth="yes"/>
      <point x="31" y="355"/>
      <point x="110" y="446" type="qcurve" smooth="yes"/>
      <point x="189" y="537"/>
      <point x="310" y="537" type="qcurve" smooth="yes"/>
      <point x="385" y="537"/>
      <point x="437" y="500" type="qcurve"/>
      <point x="486" y="463"/>
      <point x="498" y="401" type="qcurve"/>
      <point x="380" y="356" type="line"/>
      <point x="372" y="387"/>
      <point x="340" y="424"/>
      <point x="302" y="424" type="qcurve" smooth="yes"/>
      <point x="216" y="424"/>
      <point x="193" y="314" type="qcurve" smooth="yes"/>
      <point x="175" y="225" type="line" smooth="yes"/>
      <point x="170" y="200"/>
      <point x="170" y="183" type="qcurve" smooth="yes"/>
      <point x="170" y="101"/>
      <point x="249" y="101" type="qcurve" smooth="yes"/>
      <point x="290" y="101"/>
      <point x="332" y="147"/>
      <point x="353" y="184" type="qcurve"/>
      <point x="460" y="134" type="line"/>
      <point x="386" y="-12"/>
    </contour>
  </outline>
</glyph>
<glyph name="tsecyr" format="2">
  <advance width="630"/>
  <unicode hex="0446"/>
  <outline>
    <contour>
      <point x="392" y="-140" type="line"/>
      <point x="420" y="0" type="line"/>
      <point x="385" y="0"/>
      <point x="333" y="39"/>
      <point x="333" y="77" type="qcurve" smooth="yes"/>
      <point x="333" y="91"/>
      <point x="337" y="113"/>
      <point x="339" y="122" type="qcurve"/>
      <point x="333" y="122" type="line"/>
      <point x="304" y="59"/>
      <point x="224" y="-12"/>
      <point x="164" y="-12" type="qcurve" smooth="yes"/>
      <point x="104" y="-12"/>
      <point x="40" y="58"/>
      <point x="40" y="124" type="qcurve" smooth="yes"/>
      <point x="40" y="165"/>
      <point x="49" y="200" type="qcurve"/>
      <point x="114" y="525" type="line"/>
      <point x="254" y="525" type="line"/>
      <point x="192" y="213" type="line"/>
      <point x="185" y="185"/>
      <point x="185" y="160" type="qcurve" smooth="yes"/>
      <point x="185" y="105"/>
      <point x="234" y="105" type="qcurve" smooth="yes"/>
      <point x="280" y="105"/>
      <point x="318" y="153" type="qcurve"/>
      <point x="354" y="196"/>
      <point x="366" y="255" type="qcurve" smooth="yes"/>
      <point x="420" y="525" type="line"/>
      <point x="560" y="525" type="line"/>
      <point x="477" y="112" type="line"/>
      <point x="567" y="112" type="line"/>
      <point x="516" y="-140" type="line"/>
    </contour>
  </outline>
</glyph>
<glyph name="u0447" format="2">
  <advance width="561"/>
  <unicode hex="0447"/>
  <outline>
    <contour>
      <point x="302" y="0" type="line"/>
      <point x="354" y="257" type="line"/>
      <point x="348" y="257" type="line"/>
      <point x="297" y="154"/>
      <point x="195" y="154" type="qcurve" smooth="yes"/>
      <point x="128" y="154"/>
      <point x="60" y="225"/>
      <point x="60" y="283" type="qcurve" smooth="yes"/>
      <point x="60" y="303"/>
      <point x="63" y="340"/>
      <point x="67" y="356" type="qcurve"/>
      <point x="101" y="525" type="line"/>
      <point x="241" y="525" type="line"/>
      <point x="209" y="364" type="line" smooth="yes"/>
      <point x="205" y="345"/>
      <point x="205" y="320" type="qcurve" smooth="yes"/>
      <point x="205" y="271"/>
      <point x="263" y="271" type="qcurve" smooth="yes"/>
      <point x="360" y="271"/>
      <point x="376" y="371" type="qcurve"/>
      <point x="407" y="525" type="line"/>
      <point x="547" y="525" type="line"/>
      <point x="442" y="0" type="line"/>
    </contour>
  </outline>
</glyph>
<glyph name="yucyr" format="2">
  <advance width="790"/>
  <unicode hex="044E"/>
  <outline>
    <contour>
      <point x="500" y="101" type="qcurve" smooth="yes"/>
      <point x="540" y="101"/>
      <point x="587" y="159"/>
      <point x="598" y="216" type="qcurve" smooth="yes"/>
      <point x="617" y="310" type="line" smooth="yes"/>
      <point x="620" y="325"/>
      <point x="620" y="349" type="qcurve" smooth="yes"/>
      <point x="620" y="382"/>
      <point x="586" y="424"/>
      <point x="552" y="424" type="qcurve" smooth="yes"/>
      <point x="512" y="424"/>
      <point x="465" y="366"/>
      <point x="454" y="309" type="qcurve" smooth="yes"/>
      <point x="435" y="215" type="line" smooth="yes"/>
      <point x="432" y="200"/>
      <point x="432" y="176" type="qcurve" smooth="yes"/>
      <point x="432" y="143"/>
      <point x="466" y="101"/>
    </contour>
    <contour>
      <point x="495" y="-12" type="qcurve" smooth="yes"/>
      <point x="398" y="-12"/>
      <point x="293" y="100"/>
      <point x="293" y="211" type="qcurve"/>
      <point x="196" y="211" type="line"/>
      <point x="154" y="0" type="line"/>
      <point x="14" y="0" type="line"/>
      <point x="119" y="525" type="line"/>
      <point x="259" y="525" type="line"/>
      <point x="218" y="323" type="line"/>
      <point x="307" y="323" type="line"/>
      <point x="333" y="421"/>
      <point x="400" y="478" type="qcurve" smooth="yes"/>
      <point x="467" y="537"/>
      <point x="557" y="537" type="qcurve" smooth="yes"/>
      <point x="654" y="537"/>
      <point x="759" y="424"/>
      <point x="759" y="318" type="qcurve" smooth="yes"/>
      <point x="759" y="177"/>
      <point x="685" y="82" type="qcurve" smooth="yes"/>
      <point x="612" y="-12"/>
    </contour>
  </outline>
</glyph>
<glyph name="afii10097" format="2">
  <advance width="566"/>
  <unicode hex="044F"/>
  <outline>
    <contour>
      <point x="307" y="0" type="line"/>
      <point x="344" y="183" type="line"/>
      <point x="265" y="183" type="line"/>
      <point x="194" y="75" type="line"/>
      <point x="150" y="0"/>
      <point x="71" y="0" type="qcurve" smooth="yes"/>
      <point x="-10" y="0" type="line"/>
      <point x="12" y="112" type="line"/>
      <point x="66" y="112" type="line"/>
      <point x="100" y="164" type="line"/>
      <point x="125" y="198"/>
      <point x="163" y="203" type="qcurve"/>
      <point x="164" y="209" type="line"/>
      <point x="66" y="229"/>
      <point x="66" y="337" type="qcurve" smooth="yes"/>
      <point x="66" y="420"/>
      <point x="128" y="473" type="qcurve" smooth="yes"/>
      <point x="189" y="525"/>
      <point x="284" y="525" type="qcurve" smooth="yes"/>
      <point x="552" y="525" type="line"/>
      <point x="447" y="0" type="line"/>
    </contour>
    <contour>
      <point x="392" y="423" type="line"/>
      <point x="297" y="423" type="line" smooth="yes"/>
      <point x="261" y="423"/>
      <point x="238" y="407" type="qcurve" smooth="yes"/>
      <point x="205" y="384"/>
      <point x="205" y="339" type="qcurve" smooth="yes"/>
      <point x="205" y="317"/>
      <point x="237" y="286"/>
      <point x="266" y="286" type="qcurve" smooth="yes"/>
      <point x="365" y="286" type="line"/>
    </contour>
  </outline>
</glyph>
<glyph name="iocyr" format="2">
  <advance width="515"/>
  <unicode hex="0451"/>
  <outline>
    <contour>
      <point x="187" y="297" type="line"/>
      <point x="298" y="305"/>
      <point x="334" y="325" type="qcurve"/>
      <point x="354" y="335"/>
      <point x="368" y="361"/>
      <point x="368" y="377" type="qcurve" smooth="yes"/>
      <point x="368" y="430"/>
      <point x="308" y="430" type="qcurve" smooth="yes"/>
      <point x="263" y="430"/>
      <point x="201" y="372"/>
      <point x="191" y="320" type="qcurve" smooth="yes"/>
    </contour>
    <contour>
      <point x="253" y="-12" type="qcurve" smooth="yes"/>
      <point x="141" y="-12"/>
      <point x="31" y="108"/>
      <point x="31" y="214" type="qcurve" smooth="yes"/>
      <point x="31" y="339"/>
      <point x="108" y="439" type="qcurve"/>
      <point x="145" y="484"/>
      <point x="250" y="537"/>
      <point x="316" y="537" type="qcurve" smooth="yes"/>
      <point x="387" y="537"/>
      <point x="440" y="507" type="qcurve" smooth="yes"/>
      <point x="504" y="470"/>
      <point x="504" y="391" type="qcurve" smooth="yes"/>
      <point x="504" y="219"/>
      <point x="172" y="208" type="qcurve"/>
      <point x="171" y="204" type="line" smooth="yes"/>
      <point x="170" y="200"/>
      <point x="170" y="185" type="qcurve" smooth="yes"/>
      <point x="170" y="147"/>
      <point x="211" y="101"/>
      <point x="263" y="101" type="qcurve" smooth="yes"/>
      <point x="297" y="101"/>
      <point x="356" y="131"/>
      <point x="391" y="174" type="qcurve"/>
      <point x="477" y="106" type="line"/>
      <point x="429" y="42"/>
      <point x="322" y="-12"/>
    </contour>
    <contour>
      <point x="237" y="600" type="qcurve" smooth="yes"/>
      <point x="202" y="600"/>
      <point x="172" y="628"/>
      <point x="172" y="648" type="qcurve" smooth="yes"/>
      <point x="172" y="658"/>
      <point x="178" y="688" type="qcurve"/>
      <point x="188" y="751"/>
      <point x="263" y="751" type="qcurve" smooth="yes"/>
      <point x="298" y="751"/>
      <point x="328" y="723"/>
      <point x="328" y="703" type="qcurve" smooth="yes"/>
      <point x="328" y="693"/>
      <point x="325" y="678" type="qcurve" smooth="yes"/>
      <point x="322" y="663" type="line" smooth="yes"/>
      <point x="311" y="600"/>
    </contour>
    <contour>
      <point x="437" y="600" type="qcurve" smooth="yes"/>
      <point x="402" y="600"/>
      <point x="372" y="628"/>
      <point x="372" y="648" type="qcurve" smooth="yes"/>
      <point x="372" y="658"/>
      <point x="378" y="688" type="qcurve"/>
      <point x="388" y="751"/>
      <point x="463" y="751" type="qcurve" smooth="yes"/>
      <point x="498" y="751"/>
      <point x="528" y="723"/>
      <point x="528" y="703" type="qcurve" smooth="yes"/>
      <point x="528" y="693"/>
      <point x="525" y="678" type="qcurve" smooth="yes"/>
      <point x="522" y="663" type="line" smooth="yes"/>
      <point x="511" y="600"/>
    </contour>
  </outline>
</glyph>
<glyph name="u0456" format="2">
  <advance width="281"/>
  <unicode hex="0456"/>
  <outline>
    <contour>
      <point x="122" y="0" type="line" smooth="yes"/>
      <point x="80" y="0"/>
      <point x="32" y="44"/>
      <point x="32" y="80" type="qcurve" smooth="yes"/>
      <point x="32" y="90"/>
      <point x="119" y="525" type="qcurve"/>
      <point x="259" y="525" type="line"/>
      <point x="176" y="112" type="line"/>
      <point x="235" y="112" type="line"/>
      <point x="213" y="0" type="line"/>
    </contour>
    <contour>
      <point x="202" y="583" type="qcurve" smooth="yes"/>
      <point x="165" y="583"/>
      <point x="130" y="611"/>
      <point x="130" y="635" type="qcurve" smooth="yes"/>
      <point x="130" y="717"/>
      <point x="190" y="740" type="qcurve"/>
      <point x="205" y="747"/>
      <point x="232" y="747" type="qcurve" smooth="yes"/>
      <point x="269" y="747"/>
      <point x="304" y="719"/>
      <point x="304" y="695" type="qcurve" smooth="yes"/>
      <point x="304" y="612"/>
      <point x="244" y="590" type="qcurve"/>
      <point x="229" y="583"/>
    </contour>
  </outline>
</glyph>
<glyph name="u0457" format="2">
  <advance width="281"/>
  <unicode hex="0457"/>
  <outline>
    <contour>
      <point x="122" y="0" type="line" smooth="yes"/>
      <point x="80" y="0"/>
      <point x="32" y="44"/>
      <point x="32" y="80" type="qcurve" smooth="yes"/>
      <point x="32" y="90"/>
      <point x="119" y="525" type="qcurve"/>
      <point x="259" y="525" type="line"/>
      <point x="176" y="112" type="line"/>
      <point x="235" y="112" type="line"/>
      <point x="213" y="0" type="line"/>
    </contour>
    <contour>
      <point x="104" y="600" type="qcurve" smooth="yes"/>
      <point x="69" y="600"/>
      <point x="39" y="628"/>
      <point x="39" y="648" type="qcurve" smooth="yes"/>
      <point x="39" y="658"/>
      <point x="45" y="688" type="qcurve"/>
      <point x="55" y="751"/>
      <point x="130" y="751" type="qcurve" smooth="yes"/>
      <point x="165" y="751"/>
      <point x="195" y="723"/>
      <point x="195" y="703" type="qcurve" smooth="yes"/>
      <point x="195" y="693"/>
      <point x="192" y="678" type="qcurve" smooth="yes"/>
      <point x="189" y="663" type="line" smooth="yes"/>
      <point x="178" y="600"/>
    </contour>
    <contour>
      <point x="304" y="600" type="qcurve" smooth="yes"/>
      <point x="269" y="600"/>
      <point x="239" y="628"/>
      <point x="239" y="648" type="qcurve" smooth="yes"/>
      <point x="239" y="658"/>
      <point x="245" y="688" type="qcurve"/>
      <point x="255" y="751"/>
      <point x="330" y="751" type="qcurve" smooth="yes"/>
      <point x="365" y="751"/>
      <point x="395" y="723"/>
      <point x="395" y="703" type="qcurve" smooth="yes"/>
      <point x="395" y="693"/>
      <point x="392" y="678" type="qcurve" smooth="yes"/>
      <point x="389" y="663" type="line" smooth="yes"/>
      <point x="378" y="600"/>
    </contour>
  </outline>
</glyph>
<glyph name="u045E" format="2">
  <advance width="509"/>
  <unicode hex="045E"/>
  <outline>
    <contour>
      <point x="-29" y="-200" type="line"/>
      <point x="-6" y="-88" type="line"/>
      <point x="91" y="-88" type="line"/>
      <point x="119" y="-30" type="line"/>
      <point x="45" y="525" type="line"/>
      <point x="184" y="525" type="line"/>
      <point x="194" y="425"/>
      <point x="212" y="230"/>
      <point x="220" y="131" type="qcurve"/>
      <point x="226" y="131" type="line"/>
      <point x="314" y="327" type="line"/>
      <point x="408" y="525" type="line"/>
      <point x="557" y="525" type="line"/>
      <point x="235" y="-85" type="line"/>
      <point x="206" y="-143"/>
      <point x="123" y="-200"/>
      <point x="49" y="-200" type="qcurve" smooth="yes"/>
    </contour>
    <contour>
      <point x="296" y="579" type="qcurve" smooth="yes"/>
      <point x="187" y="579"/>
      <point x="150" y="691" type="qcurve" smooth="yes"/>
      <point x="133" y="742" type="line"/>
      <point x="248" y="785" type="line"/>
      <point x="264" y="684" type="line"/>
      <point x="282" y="677"/>
      <point x="309" y="677" type="qcurve" smooth="yes"/>
      <point x="339" y="677"/>
      <point x="352" y="684" type="qcurve"/>
      <point x="398" y="785" type="line"/>
      <point x="509" y="742" type="line"/>
      <point x="479" y="691" type="line"/>
      <point x="416" y="579"/>
    </contour>
  </outline>
</glyph>
<glyph name="u0494" format="2">
  <advance width="649"/>
  <unicode hex="0494"/>
  <outline>
    <contour>
      <point x="223" y="-184" type="line"/>
      <point x="250" y="-49" type="line"/>
      <point x="346" y="-49" type="line"/>
      <point x="394" y="-8"/>
      <point x="411" y="75" type="qcurve" smooth="yes"/>
      <point x="422" y="129" type="line"/>
      <point x="426" y="146"/>
      <point x="430" y="175"/>
      <point x="430" y="188" type="qcurve" smooth="yes"/>
      <point x="430" y="230"/>
      <point x="387" y="267"/>
      <point x="336" y="267" type="qcurve" smooth="yes"/>
      <point x="262" y="267"/>
      <point x="217" y="248" type="qcurve"/>
      <point x="167" y="0" type="line"/>
      <point x="22" y="0" type="line"/>
      <point x="162" y="698" type="line"/>
      <point x="559" y="698" type="line"/>
      <point x="533" y="570" type="line"/>
      <point x="281" y="570" type="line"/>
      <point x="241" y="368" type="line"/>
      <point x="246" y="368" type="line"/>
      <point x="295" y="396"/>
      <point x="380" y="396" type="qcurve" smooth="yes"/>
      <point x="474" y="396"/>
      <point x="575" y="302"/>
      <point x="575" y="214" type="qcurve" smooth="yes"/>
      <point x="575" y="174"/>
      <point x="566" y="125" type="qcurve" smooth="yes"/>
      <point x="555" y="71" type="line"/>
      <point x="525" y="-59"/>
      <point x="376" y="-184"/>
      <point x="275" y="-184" type="qcurve" smooth="yes"/>
    </contour>
  </outline>
</glyph>
<glyph name="u0495" format="2">
  <advance width="554"/>
  <unicode hex="0495"/>
  <outline>
    <contour>
      <point x="169" y="-200" type="line"/>
      <point x="192" y="-85" type="line"/>
      <point x="276" y="-85" type="line"/>
      <point x="307" y="-62"/>
      <point x="320" y="-1" type="qcurve" smooth="yes"/>
      <point x="342" y="104" type="line"/>
      <point x="345" y="125"/>
      <point x="345" y="148" type="qcurve" smooth="yes"/>
      <point x="345" y="195"/>
      <point x="287" y="195" type="qcurve" smooth="yes"/>
      <point x="193" y="195"/>
      <point x="175" y="104" type="qcurve" smooth="yes"/>
      <point x="154" y="0" type="line"/>
      <point x="14" y="0" type="line"/>
      <point x="119" y="525" type="line"/>
      <point x="462" y="525" type="line"/>
      <point x="440" y="413" type="line"/>
      <point x="237" y="413" type="line"/>
      <point x="198" y="219" type="line"/>
      <point x="204" y="219" type="line"/>
      <point x="233" y="267"/>
      <point x="304" y="312"/>
      <point x="355" y="312" type="qcurve" smooth="yes"/>
      <point x="422" y="312"/>
      <point x="490" y="241"/>
      <point x="490" y="183" type="qcurve" smooth="yes"/>
      <point x="490" y="141"/>
      <point x="483" y="110" type="qcurve" smooth="yes"/>
      <point x="458" y="-11" type="line" smooth="yes"/>
      <point x="437" y="-108"/>
      <point x="322" y="-200"/>
      <point x="232" y="-200" type="qcurve" smooth="yes"/>
    </contour>
  </outline>
</glyph>
